ISO-10303-21;
HEADER;
FILE_DESCRIPTION(('Open CASCADE Model'),'2;1');
FILE_NAME('marker_peg_penta_02','2026-08-13T18:10:25',('Author'),(
    'Open CASCADE'),'Open CASCADE STEP processor 7.8','cadpy','Unknown'
  );
FILE_SCHEMA(('AUTOMOTIVE_DESIGN { 1 0 10303 214 1 1 1 1 }'));
ENDSEC;
DATA;
#1 = APPLICATION_PROTOCOL_DEFINITION('international standard',
  'automotive_design',2000,#2);
#2 = APPLICATION_CONTEXT(
  'core data for automotive mechanical design processes');
#3 = SHAPE_DEFINITION_REPRESENTATION(#4,#10);
#4 = PRODUCT_DEFINITION_SHAPE('','',#5);
#5 = PRODUCT_DEFINITION('design','',#6,#9);
#6 = PRODUCT_DEFINITION_FORMATION('','',#7);
#7 = PRODUCT('marker_peg_penta_02','marker_peg_penta_02','',(#8));
#8 = PRODUCT_CONTEXT('',#2,'mechanical');
#9 = PRODUCT_DEFINITION_CONTEXT('part definition',#2,'design');
#10 = ADVANCED_BREP_SHAPE_REPRESENTATION('',(#11,#15),#1008);
#11 = AXIS2_PLACEMENT_3D('',#12,#13,#14);
#12 = CARTESIAN_POINT('',(0.,0.,0.));
#13 = DIRECTION('',(0.,0.,1.));
#14 = DIRECTION('',(1.,0.,-0.));
#15 = MANIFOLD_SOLID_BREP('',#16);
#16 = CLOSED_SHELL('',(#17,#221,#325,#453,#480,#792,#819,#870,#941,#990,
    #996,#1002));
#17 = ADVANCED_FACE('',(#18),#32,.F.);
#18 = FACE_BOUND('',#19,.F.);
#19 = EDGE_LOOP('',(#20,#55,#83,#111,#167,#195));
#20 = ORIENTED_EDGE('',*,*,#21,.F.);
#21 = EDGE_CURVE('',#22,#24,#26,.T.);
#22 = VERTEX_POINT('',#23);
#23 = CARTESIAN_POINT('',(5.5,0.,0.));
#24 = VERTEX_POINT('',#25);
#25 = CARTESIAN_POINT('',(1.699593469062,5.230810839623,0.));
#26 = SURFACE_CURVE('',#27,(#31,#43),.PCURVE_S1.);
#27 = LINE('',#28,#29);
#28 = CARTESIAN_POINT('',(5.5,0.,0.));
#29 = VECTOR('',#30,1.);
#30 = DIRECTION('',(-0.587785252292,0.809016994375,0.));
#31 = PCURVE('',#32,#37);
#32 = PLANE('',#33);
#33 = AXIS2_PLACEMENT_3D('',#34,#35,#36);
#34 = CARTESIAN_POINT('',(5.5,0.,0.));
#35 = DIRECTION('',(-0.809016994375,-0.587785252292,0.));
#36 = DIRECTION('',(-0.587785252292,0.809016994375,0.));
#37 = DEFINITIONAL_REPRESENTATION('',(#38),#42);
#38 = LINE('',#39,#40);
#39 = CARTESIAN_POINT('',(0.,0.));
#40 = VECTOR('',#41,1.);
#41 = DIRECTION('',(1.,0.));
#42 = ( GEOMETRIC_REPRESENTATION_CONTEXT(2) 
PARAMETRIC_REPRESENTATION_CONTEXT() REPRESENTATION_CONTEXT('2D SPACE',''
  ) );
#43 = PCURVE('',#44,#49);
#44 = PLANE('',#45);
#45 = AXIS2_PLACEMENT_3D('',#46,#47,#48);
#46 = CARTESIAN_POINT('',(-3.296856832053E-16,-2.51608060199E-16,0.));
#47 = DIRECTION('',(0.,0.,1.));
#48 = DIRECTION('',(1.,0.,-0.));
#49 = DEFINITIONAL_REPRESENTATION('',(#50),#54);
#50 = LINE('',#51,#52);
#51 = CARTESIAN_POINT('',(5.5,2.51608060199E-16));
#52 = VECTOR('',#53,1.);
#53 = DIRECTION('',(-0.587785252292,0.809016994375));
#54 = ( GEOMETRIC_REPRESENTATION_CONTEXT(2) 
PARAMETRIC_REPRESENTATION_CONTEXT() REPRESENTATION_CONTEXT('2D SPACE',''
  ) );
#55 = ORIENTED_EDGE('',*,*,#56,.T.);
#56 = EDGE_CURVE('',#22,#57,#59,.T.);
#57 = VERTEX_POINT('',#58);
#58 = CARTESIAN_POINT('',(5.5,0.,20.));
#59 = SURFACE_CURVE('',#60,(#64,#71),.PCURVE_S1.);
#60 = LINE('',#61,#62);
#61 = CARTESIAN_POINT('',(5.5,0.,0.));
#62 = VECTOR('',#63,1.);
#63 = DIRECTION('',(0.,0.,1.));
#64 = PCURVE('',#32,#65);
#65 = DEFINITIONAL_REPRESENTATION('',(#66),#70);
#66 = LINE('',#67,#68);
#67 = CARTESIAN_POINT('',(0.,0.));
#68 = VECTOR('',#69,1.);
#69 = DIRECTION('',(0.,-1.));
#70 = ( GEOMETRIC_REPRESENTATION_CONTEXT(2) 
PARAMETRIC_REPRESENTATION_CONTEXT() REPRESENTATION_CONTEXT('2D SPACE',''
  ) );
#71 = PCURVE('',#72,#77);
#72 = PLANE('',#73);
#73 = AXIS2_PLACEMENT_3D('',#74,#75,#76);
#74 = CARTESIAN_POINT('',(1.699593469062,-5.230810839623,0.));
#75 = DIRECTION('',(-0.809016994375,0.587785252292,0.));
#76 = DIRECTION('',(0.587785252292,0.809016994375,0.));
#77 = DEFINITIONAL_REPRESENTATION('',(#78),#82);
#78 = LINE('',#79,#80);
#79 = CARTESIAN_POINT('',(6.465637775217,0.));
#80 = VECTOR('',#81,1.);
#81 = DIRECTION('',(0.,-1.));
#82 = ( GEOMETRIC_REPRESENTATION_CONTEXT(2) 
PARAMETRIC_REPRESENTATION_CONTEXT() REPRESENTATION_CONTEXT('2D SPACE',''
  ) );
#83 = ORIENTED_EDGE('',*,*,#84,.T.);
#84 = EDGE_CURVE('',#57,#85,#87,.T.);
#85 = VERTEX_POINT('',#86);
#86 = CARTESIAN_POINT('',(4.874575161429,0.860823440423,20.));
#87 = SURFACE_CURVE('',#88,(#92,#99),.PCURVE_S1.);
#88 = LINE('',#89,#90);
#89 = CARTESIAN_POINT('',(5.5,0.,20.));
#90 = VECTOR('',#91,1.);
#91 = DIRECTION('',(-0.587785252292,0.809016994375,0.));
#92 = PCURVE('',#32,#93);
#93 = DEFINITIONAL_REPRESENTATION('',(#94),#98);
#94 = LINE('',#95,#96);
#95 = CARTESIAN_POINT('',(0.,-20.));
#96 = VECTOR('',#97,1.);
#97 = DIRECTION('',(1.,0.));
#98 = ( GEOMETRIC_REPRESENTATION_CONTEXT(2) 
PARAMETRIC_REPRESENTATION_CONTEXT() REPRESENTATION_CONTEXT('2D SPACE',''
  ) );
#99 = PCURVE('',#100,#105);
#100 = PLANE('',#101);
#101 = AXIS2_PLACEMENT_3D('',#102,#103,#104);
#102 = CARTESIAN_POINT('',(-3.296856832053E-16,-2.51608060199E-16,20.));
#103 = DIRECTION('',(0.,0.,1.));
#104 = DIRECTION('',(1.,0.,-0.));
#105 = DEFINITIONAL_REPRESENTATION('',(#106),#110);
#106 = LINE('',#107,#108);
#107 = CARTESIAN_POINT('',(5.5,2.51608060199E-16));
#108 = VECTOR('',#109,1.);
#109 = DIRECTION('',(-0.587785252292,0.809016994375));
#110 = ( GEOMETRIC_REPRESENTATION_CONTEXT(2) 
PARAMETRIC_REPRESENTATION_CONTEXT() REPRESENTATION_CONTEXT('2D SPACE',''
  ) );
#111 = ORIENTED_EDGE('',*,*,#112,.F.);
#112 = EDGE_CURVE('',#113,#85,#115,.T.);
#113 = VERTEX_POINT('',#114);
#114 = CARTESIAN_POINT('',(2.325018307633,4.3699873992,20.));
#115 = SURFACE_CURVE('',#116,(#121,#128),.PCURVE_S1.);
#116 = CIRCLE('',#117,2.16878259862);
#117 = AXIS2_PLACEMENT_3D('',#118,#119,#120);
#118 = CARTESIAN_POINT('',(3.599796734531,2.615405419812,20.));
#119 = DIRECTION('',(-0.809016994375,-0.587785252292,0.));
#120 = DIRECTION('',(0.587785252292,-0.809016994375,0.));
#121 = PCURVE('',#32,#122);
#122 = DEFINITIONAL_REPRESENTATION('',(#123),#127);
#123 = CIRCLE('',#124,2.16878259862);
#124 = AXIS2_PLACEMENT_2D('',#125,#126);
#125 = CARTESIAN_POINT('',(3.232818887609,-20.));
#126 = DIRECTION('',(-1.,-0.));
#127 = ( GEOMETRIC_REPRESENTATION_CONTEXT(2) 
PARAMETRIC_REPRESENTATION_CONTEXT() REPRESENTATION_CONTEXT('2D SPACE',''
  ) );
#128 = PCURVE('',#129,#134);
#129 = SPHERICAL_SURFACE('',#130,4.95);
#130 = AXIS2_PLACEMENT_3D('',#131,#132,#133);
#131 = CARTESIAN_POINT('',(0.,0.,20.));
#132 = DIRECTION('',(0.,0.,1.));
#133 = DIRECTION('',(1.,0.,0.));
#134 = DEFINITIONAL_REPRESENTATION('',(#135),#166);
#135 = B_SPLINE_CURVE_WITH_KNOTS('',8,(#136,#137,#138,#139,#140,#141,
    #142,#143,#144,#145,#146,#147,#148,#149,#150,#151,#152,#153,#154,
    #155,#156,#157,#158,#159,#160,#161,#162,#163,#164,#165),
  .UNSPECIFIED.,.F.,.F.,(9,7,7,7,9),(3.14159265359,3.926990816987,
    4.516039439535,5.399612373357,6.28318530718),.UNSPECIFIED.);
#136 = CARTESIAN_POINT('',(1.081844640391,0.));
#137 = CARTESIAN_POINT('',(1.081844640391,-4.301408762032E-02));
#138 = CARTESIAN_POINT('',(1.077506435801,-8.602816728771E-02));
#139 = CARTESIAN_POINT('',(1.06882953997,-0.128531825685));
#140 = CARTESIAN_POINT('',(1.05580167004,-0.170014402885));
#141 = CARTESIAN_POINT('',(1.038394278411,-0.209954321666));
#142 = CARTESIAN_POINT('',(1.016594469588,-0.247806377966));
#143 = CARTESIAN_POINT('',(0.990464615404,-0.283004000518));
#144 = CARTESIAN_POINT('',(0.937538256178,-0.338985602947));
#145 = CARTESIAN_POINT('',(0.912541440856,-0.361173159454));
#146 = CARTESIAN_POINT('',(0.885321617096,-0.381322449205));
#147 = CARTESIAN_POINT('',(0.856016910528,-0.399204265614));
#148 = CARTESIAN_POINT('',(0.824830066402,-0.414600515172));
#149 = CARTESIAN_POINT('',(0.792041546629,-0.427319359857));
#150 = CARTESIAN_POINT('',(0.758006346021,-0.437211696528));
#151 = CARTESIAN_POINT('',(0.670797294488,-0.45463690424));
#152 = CARTESIAN_POINT('',(0.616562903483,-0.458516818049));
#153 = CARTESIAN_POINT('',(0.561765772885,-0.455499017276));
#154 = CARTESIAN_POINT('',(0.507970435938,-0.445524447707));
#155 = CARTESIAN_POINT('',(0.456786237361,-0.428890172043));
#156 = CARTESIAN_POINT('',(0.409351285577,-0.406193150159));
#157 = CARTESIAN_POINT('',(0.366415213007,-0.378146232624));
#158 = CARTESIAN_POINT('',(0.29045135325,-0.312892034952));
#159 = CARTESIAN_POINT('',(0.257423213815,-0.275684667935));
#160 = CARTESIAN_POINT('',(0.229806830644,-0.234665545085));
#161 = CARTESIAN_POINT('',(0.207757012022,-0.190655983995));
#162 = CARTESIAN_POINT('',(0.191265217031,-0.144445759238));
#163 = CARTESIAN_POINT('',(0.180282797558,-9.678169266809E-02));
#164 = CARTESIAN_POINT('',(0.174792421045,-4.839084857287E-02));
#165 = CARTESIAN_POINT('',(0.174792421045,0.));
#166 = ( GEOMETRIC_REPRESENTATION_CONTEXT(2) 
PARAMETRIC_REPRESENTATION_CONTEXT() REPRESENTATION_CONTEXT('2D SPACE',''
  ) );
#167 = ORIENTED_EDGE('',*,*,#168,.T.);
#168 = EDGE_CURVE('',#113,#169,#171,.T.);
#169 = VERTEX_POINT('',#170);
#170 = CARTESIAN_POINT('',(1.699593469062,5.230810839623,20.));
#171 = SURFACE_CURVE('',#172,(#176,#183),.PCURVE_S1.);
#172 = LINE('',#173,#174);
#173 = CARTESIAN_POINT('',(5.5,0.,20.));
#174 = VECTOR('',#175,1.);
#175 = DIRECTION('',(-0.587785252292,0.809016994375,0.));
#176 = PCURVE('',#32,#177);
#177 = DEFINITIONAL_REPRESENTATION('',(#178),#182);
#178 = LINE('',#179,#180);
#179 = CARTESIAN_POINT('',(0.,-20.));
#180 = VECTOR('',#181,1.);
#181 = DIRECTION('',(1.,0.));
#182 = ( GEOMETRIC_REPRESENTATION_CONTEXT(2) 
PARAMETRIC_REPRESENTATION_CONTEXT() REPRESENTATION_CONTEXT('2D SPACE',''
  ) );
#183 = PCURVE('',#184,#189);
#184 = PLANE('',#185);
#185 = AXIS2_PLACEMENT_3D('',#186,#187,#188);
#186 = CARTESIAN_POINT('',(-3.296856832053E-16,-2.51608060199E-16,20.));
#187 = DIRECTION('',(0.,0.,1.));
#188 = DIRECTION('',(1.,0.,-0.));
#189 = DEFINITIONAL_REPRESENTATION('',(#190),#194);
#190 = LINE('',#191,#192);
#191 = CARTESIAN_POINT('',(5.5,2.51608060199E-16));
#192 = VECTOR('',#193,1.);
#193 = DIRECTION('',(-0.587785252292,0.809016994375));
#194 = ( GEOMETRIC_REPRESENTATION_CONTEXT(2) 
PARAMETRIC_REPRESENTATION_CONTEXT() REPRESENTATION_CONTEXT('2D SPACE',''
  ) );
#195 = ORIENTED_EDGE('',*,*,#196,.F.);
#196 = EDGE_CURVE('',#24,#169,#197,.T.);
#197 = SURFACE_CURVE('',#198,(#202,#209),.PCURVE_S1.);
#198 = LINE('',#199,#200);
#199 = CARTESIAN_POINT('',(1.699593469062,5.230810839623,0.));
#200 = VECTOR('',#201,1.);
#201 = DIRECTION('',(0.,0.,1.));
#202 = PCURVE('',#32,#203);
#203 = DEFINITIONAL_REPRESENTATION('',(#204),#208);
#204 = LINE('',#205,#206);
#205 = CARTESIAN_POINT('',(6.465637775217,0.));
#206 = VECTOR('',#207,1.);
#207 = DIRECTION('',(0.,-1.));
#208 = ( GEOMETRIC_REPRESENTATION_CONTEXT(2) 
PARAMETRIC_REPRESENTATION_CONTEXT() REPRESENTATION_CONTEXT('2D SPACE',''
  ) );
#209 = PCURVE('',#210,#215);
#210 = PLANE('',#211);
#211 = AXIS2_PLACEMENT_3D('',#212,#213,#214);
#212 = CARTESIAN_POINT('',(1.699593469062,5.230810839623,0.));
#213 = DIRECTION('',(0.309016994375,-0.951056516295,0.));
#214 = DIRECTION('',(-0.951056516295,-0.309016994375,0.));
#215 = DEFINITIONAL_REPRESENTATION('',(#216),#220);
#216 = LINE('',#217,#218);
#217 = CARTESIAN_POINT('',(0.,0.));
#218 = VECTOR('',#219,1.);
#219 = DIRECTION('',(0.,-1.));
#220 = ( GEOMETRIC_REPRESENTATION_CONTEXT(2) 
PARAMETRIC_REPRESENTATION_CONTEXT() REPRESENTATION_CONTEXT('2D SPACE',''
  ) );
#221 = ADVANCED_FACE('',(#222),#44,.F.);
#222 = FACE_BOUND('',#223,.F.);
#223 = EDGE_LOOP('',(#224,#225,#248,#276,#304));
#224 = ORIENTED_EDGE('',*,*,#21,.T.);
#225 = ORIENTED_EDGE('',*,*,#226,.T.);
#226 = EDGE_CURVE('',#24,#227,#229,.T.);
#227 = VERTEX_POINT('',#228);
#228 = CARTESIAN_POINT('',(-4.449593469062,3.232818887609,0.));
#229 = SURFACE_CURVE('',#230,(#234,#241),.PCURVE_S1.);
#230 = LINE('',#231,#232);
#231 = CARTESIAN_POINT('',(1.699593469062,5.230810839623,0.));
#232 = VECTOR('',#233,1.);
#233 = DIRECTION('',(-0.951056516295,-0.309016994375,0.));
#234 = PCURVE('',#44,#235);
#235 = DEFINITIONAL_REPRESENTATION('',(#236),#240);
#236 = LINE('',#237,#238);
#237 = CARTESIAN_POINT('',(1.699593469062,5.230810839623));
#238 = VECTOR('',#239,1.);
#239 = DIRECTION('',(-0.951056516295,-0.309016994375));
#240 = ( GEOMETRIC_REPRESENTATION_CONTEXT(2) 
PARAMETRIC_REPRESENTATION_CONTEXT() REPRESENTATION_CONTEXT('2D SPACE',''
  ) );
#241 = PCURVE('',#210,#242);
#242 = DEFINITIONAL_REPRESENTATION('',(#243),#247);
#243 = LINE('',#244,#245);
#244 = CARTESIAN_POINT('',(0.,0.));
#245 = VECTOR('',#246,1.);
#246 = DIRECTION('',(1.,0.));
#247 = ( GEOMETRIC_REPRESENTATION_CONTEXT(2) 
PARAMETRIC_REPRESENTATION_CONTEXT() REPRESENTATION_CONTEXT('2D SPACE',''
  ) );
#248 = ORIENTED_EDGE('',*,*,#249,.T.);
#249 = EDGE_CURVE('',#227,#250,#252,.T.);
#250 = VERTEX_POINT('',#251);
#251 = CARTESIAN_POINT('',(-4.449593469062,-3.232818887609,0.));
#252 = SURFACE_CURVE('',#253,(#257,#264),.PCURVE_S1.);
#253 = LINE('',#254,#255);
#254 = CARTESIAN_POINT('',(-4.449593469062,3.232818887609,0.));
#255 = VECTOR('',#256,1.);
#256 = DIRECTION('',(-1.373690346689E-16,-1.,0.));
#257 = PCURVE('',#44,#258);
#258 = DEFINITIONAL_REPRESENTATION('',(#259),#263);
#259 = LINE('',#260,#261);
#260 = CARTESIAN_POINT('',(-4.449593469062,3.232818887609));
#261 = VECTOR('',#262,1.);
#262 = DIRECTION('',(-1.373690346689E-16,-1.));
#263 = ( GEOMETRIC_REPRESENTATION_CONTEXT(2) 
PARAMETRIC_REPRESENTATION_CONTEXT() REPRESENTATION_CONTEXT('2D SPACE',''
  ) );
#264 = PCURVE('',#265,#270);
#265 = PLANE('',#266);
#266 = AXIS2_PLACEMENT_3D('',#267,#268,#269);
#267 = CARTESIAN_POINT('',(-4.449593469062,3.232818887609,0.));
#268 = DIRECTION('',(1.,-1.373690346689E-16,0.));
#269 = DIRECTION('',(-1.373690346689E-16,-1.,0.));
#270 = DEFINITIONAL_REPRESENTATION('',(#271),#275);
#271 = LINE('',#272,#273);
#272 = CARTESIAN_POINT('',(0.,0.));
#273 = VECTOR('',#274,1.);
#274 = DIRECTION('',(1.,0.));
#275 = ( GEOMETRIC_REPRESENTATION_CONTEXT(2) 
PARAMETRIC_REPRESENTATION_CONTEXT() REPRESENTATION_CONTEXT('2D SPACE',''
  ) );
#276 = ORIENTED_EDGE('',*,*,#277,.T.);
#277 = EDGE_CURVE('',#250,#278,#280,.T.);
#278 = VERTEX_POINT('',#279);
#279 = CARTESIAN_POINT('',(1.699593469062,-5.230810839623,0.));
#280 = SURFACE_CURVE('',#281,(#285,#292),.PCURVE_S1.);
#281 = LINE('',#282,#283);
#282 = CARTESIAN_POINT('',(-4.449593469062,-3.232818887609,0.));
#283 = VECTOR('',#284,1.);
#284 = DIRECTION('',(0.951056516295,-0.309016994375,0.));
#285 = PCURVE('',#44,#286);
#286 = DEFINITIONAL_REPRESENTATION('',(#287),#291);
#287 = LINE('',#288,#289);
#288 = CARTESIAN_POINT('',(-4.449593469062,-3.232818887609));
#289 = VECTOR('',#290,1.);
#290 = DIRECTION('',(0.951056516295,-0.309016994375));
#291 = ( GEOMETRIC_REPRESENTATION_CONTEXT(2) 
PARAMETRIC_REPRESENTATION_CONTEXT() REPRESENTATION_CONTEXT('2D SPACE',''
  ) );
#292 = PCURVE('',#293,#298);
#293 = PLANE('',#294);
#294 = AXIS2_PLACEMENT_3D('',#295,#296,#297);
#295 = CARTESIAN_POINT('',(-4.449593469062,-3.232818887609,0.));
#296 = DIRECTION('',(0.309016994375,0.951056516295,-0.));
#297 = DIRECTION('',(0.951056516295,-0.309016994375,0.));
#298 = DEFINITIONAL_REPRESENTATION('',(#299),#303);
#299 = LINE('',#300,#301);
#300 = CARTESIAN_POINT('',(0.,0.));
#301 = VECTOR('',#302,1.);
#302 = DIRECTION('',(1.,0.));
#303 = ( GEOMETRIC_REPRESENTATION_CONTEXT(2) 
PARAMETRIC_REPRESENTATION_CONTEXT() REPRESENTATION_CONTEXT('2D SPACE',''
  ) );
#304 = ORIENTED_EDGE('',*,*,#305,.T.);
#305 = EDGE_CURVE('',#278,#22,#306,.T.);
#306 = SURFACE_CURVE('',#307,(#311,#318),.PCURVE_S1.);
#307 = LINE('',#308,#309);
#308 = CARTESIAN_POINT('',(1.699593469062,-5.230810839623,0.));
#309 = VECTOR('',#310,1.);
#310 = DIRECTION('',(0.587785252292,0.809016994375,0.));
#311 = PCURVE('',#44,#312);
#312 = DEFINITIONAL_REPRESENTATION('',(#313),#317);
#313 = LINE('',#314,#315);
#314 = CARTESIAN_POINT('',(1.699593469062,-5.230810839623));
#315 = VECTOR('',#316,1.);
#316 = DIRECTION('',(0.587785252292,0.809016994375));
#317 = ( GEOMETRIC_REPRESENTATION_CONTEXT(2) 
PARAMETRIC_REPRESENTATION_CONTEXT() REPRESENTATION_CONTEXT('2D SPACE',''
  ) );
#318 = PCURVE('',#72,#319);
#319 = DEFINITIONAL_REPRESENTATION('',(#320),#324);
#320 = LINE('',#321,#322);
#321 = CARTESIAN_POINT('',(0.,0.));
#322 = VECTOR('',#323,1.);
#323 = DIRECTION('',(1.,0.));
#324 = ( GEOMETRIC_REPRESENTATION_CONTEXT(2) 
PARAMETRIC_REPRESENTATION_CONTEXT() REPRESENTATION_CONTEXT('2D SPACE',''
  ) );
#325 = ADVANCED_FACE('',(#326),#210,.F.);
#326 = FACE_BOUND('',#327,.F.);
#327 = EDGE_LOOP('',(#328,#329,#330,#353,#404,#432));
#328 = ORIENTED_EDGE('',*,*,#226,.F.);
#329 = ORIENTED_EDGE('',*,*,#196,.T.);
#330 = ORIENTED_EDGE('',*,*,#331,.T.);
#331 = EDGE_CURVE('',#169,#332,#334,.T.);
#332 = VERTEX_POINT('',#333);
#333 = CARTESIAN_POINT('',(0.687634822846,4.902005543694,20.));
#334 = SURFACE_CURVE('',#335,(#339,#346),.PCURVE_S1.);
#335 = LINE('',#336,#337);
#336 = CARTESIAN_POINT('',(1.699593469062,5.230810839623,20.));
#337 = VECTOR('',#338,1.);
#338 = DIRECTION('',(-0.951056516295,-0.309016994375,0.));
#339 = PCURVE('',#210,#340);
#340 = DEFINITIONAL_REPRESENTATION('',(#341),#345);
#341 = LINE('',#342,#343);
#342 = CARTESIAN_POINT('',(0.,-20.));
#343 = VECTOR('',#344,1.);
#344 = DIRECTION('',(1.,0.));
#345 = ( GEOMETRIC_REPRESENTATION_CONTEXT(2) 
PARAMETRIC_REPRESENTATION_CONTEXT() REPRESENTATION_CONTEXT('2D SPACE',''
  ) );
#346 = PCURVE('',#184,#347);
#347 = DEFINITIONAL_REPRESENTATION('',(#348),#352);
#348 = LINE('',#349,#350);
#349 = CARTESIAN_POINT('',(1.699593469062,5.230810839623));
#350 = VECTOR('',#351,1.);
#351 = DIRECTION('',(-0.951056516295,-0.309016994375));
#352 = ( GEOMETRIC_REPRESENTATION_CONTEXT(2) 
PARAMETRIC_REPRESENTATION_CONTEXT() REPRESENTATION_CONTEXT('2D SPACE',''
  ) );
#353 = ORIENTED_EDGE('',*,*,#354,.F.);
#354 = EDGE_CURVE('',#355,#332,#357,.T.);
#355 = VERTEX_POINT('',#356);
#356 = CARTESIAN_POINT('',(-3.437634822846,3.561624183538,20.));
#357 = SURFACE_CURVE('',#358,(#363,#370),.PCURVE_S1.);
#358 = CIRCLE('',#359,2.16878259862);
#359 = AXIS2_PLACEMENT_3D('',#360,#361,#362);
#360 = CARTESIAN_POINT('',(-1.375,4.231814863616,20.));
#361 = DIRECTION('',(0.309016994375,-0.951056516295,0.));
#362 = DIRECTION('',(0.951056516295,0.309016994375,0.));
#363 = PCURVE('',#210,#364);
#364 = DEFINITIONAL_REPRESENTATION('',(#365),#369);
#365 = CIRCLE('',#366,2.16878259862);
#366 = AXIS2_PLACEMENT_2D('',#367,#368);
#367 = CARTESIAN_POINT('',(3.232818887609,-20.));
#368 = DIRECTION('',(-1.,0.));
#369 = ( GEOMETRIC_REPRESENTATION_CONTEXT(2) 
PARAMETRIC_REPRESENTATION_CONTEXT() REPRESENTATION_CONTEXT('2D SPACE',''
  ) );
#370 = PCURVE('',#129,#371);
#371 = DEFINITIONAL_REPRESENTATION('',(#372),#403);
#372 = B_SPLINE_CURVE_WITH_KNOTS('',8,(#373,#374,#375,#376,#377,#378,
    #379,#380,#381,#382,#383,#384,#385,#386,#387,#388,#389,#390,#391,
    #392,#393,#394,#395,#396,#397,#398,#399,#400,#401,#402),
  .UNSPECIFIED.,.F.,.F.,(9,7,7,7,9),(3.14159265359,3.926990816987,
    4.516039439535,5.399612373357,6.28318530718),.UNSPECIFIED.);
#373 = CARTESIAN_POINT('',(2.338481701827,0.));
#374 = CARTESIAN_POINT('',(2.338481701827,-4.301408762032E-02));
#375 = CARTESIAN_POINT('',(2.334143497237,-8.60281672877E-02));
#376 = CARTESIAN_POINT('',(2.325466601405,-0.128531825685));
#377 = CARTESIAN_POINT('',(2.312438731477,-0.170014402885));
#378 = CARTESIAN_POINT('',(2.295031339847,-0.209954321666));
#379 = CARTESIAN_POINT('',(2.273231531023,-0.247806377966));
#380 = CARTESIAN_POINT('',(2.24710167684,-0.283004000518));
#381 = CARTESIAN_POINT('',(2.194175317614,-0.338985602947));
#382 = CARTESIAN_POINT('',(2.169178502292,-0.361173159454));
#383 = CARTESIAN_POINT('',(2.141958678532,-0.381322449205));
#384 = CARTESIAN_POINT('',(2.112653971964,-0.399204265614));
#385 = CARTESIAN_POINT('',(2.081467127838,-0.414600515171));
#386 = CARTESIAN_POINT('',(2.048678608065,-0.427319359857));
#387 = CARTESIAN_POINT('',(2.014643407456,-0.437211696528));
#388 = CARTESIAN_POINT('',(1.927434355924,-0.45463690424));
#389 = CARTESIAN_POINT('',(1.873199964918,-0.458516818049));
#390 = CARTESIAN_POINT('',(1.818402834319,-0.455499017276));
#391 = CARTESIAN_POINT('',(1.764607497372,-0.445524447708));
#392 = CARTESIAN_POINT('',(1.713423298795,-0.428890172043));
#393 = CARTESIAN_POINT('',(1.665988347013,-0.406193150159));
#394 = CARTESIAN_POINT('',(1.623052274443,-0.378146232624));
#395 = CARTESIAN_POINT('',(1.547088414686,-0.312892034952));
#396 = CARTESIAN_POINT('',(1.514060275251,-0.275684667935));
#397 = CARTESIAN_POINT('',(1.48644389208,-0.234665545085));
#398 = CARTESIAN_POINT('',(1.464394073458,-0.190655983995));
#399 = CARTESIAN_POINT('',(1.447902278467,-0.144445759238));
#400 = CARTESIAN_POINT('',(1.436919858994,-9.67816926681E-02));
#401 = CARTESIAN_POINT('',(1.431429482481,-4.839084857287E-02));
#402 = CARTESIAN_POINT('',(1.431429482481,0.));
#403 = ( GEOMETRIC_REPRESENTATION_CONTEXT(2) 
PARAMETRIC_REPRESENTATION_CONTEXT() REPRESENTATION_CONTEXT('2D SPACE',''
  ) );
#404 = ORIENTED_EDGE('',*,*,#405,.T.);
#405 = EDGE_CURVE('',#355,#406,#408,.T.);
#406 = VERTEX_POINT('',#407);
#407 = CARTESIAN_POINT('',(-4.449593469062,3.232818887609,20.));
#408 = SURFACE_CURVE('',#409,(#413,#420),.PCURVE_S1.);
#409 = LINE('',#410,#411);
#410 = CARTESIAN_POINT('',(1.699593469062,5.230810839623,20.));
#411 = VECTOR('',#412,1.);
#412 = DIRECTION('',(-0.951056516295,-0.309016994375,0.));
#413 = PCURVE('',#210,#414);
#414 = DEFINITIONAL_REPRESENTATION('',(#415),#419);
#415 = LINE('',#416,#417);
#416 = CARTESIAN_POINT('',(0.,-20.));
#417 = VECTOR('',#418,1.);
#418 = DIRECTION('',(1.,0.));
#419 = ( GEOMETRIC_REPRESENTATION_CONTEXT(2) 
PARAMETRIC_REPRESENTATION_CONTEXT() REPRESENTATION_CONTEXT('2D SPACE',''
  ) );
#420 = PCURVE('',#421,#426);
#421 = PLANE('',#422);
#422 = AXIS2_PLACEMENT_3D('',#423,#424,#425);
#423 = CARTESIAN_POINT('',(-3.296856832053E-16,-2.51608060199E-16,20.));
#424 = DIRECTION('',(0.,0.,1.));
#425 = DIRECTION('',(1.,0.,-0.));
#426 = DEFINITIONAL_REPRESENTATION('',(#427),#431);
#427 = LINE('',#428,#429);
#428 = CARTESIAN_POINT('',(1.699593469062,5.230810839623));
#429 = VECTOR('',#430,1.);
#430 = DIRECTION('',(-0.951056516295,-0.309016994375));
#431 = ( GEOMETRIC_REPRESENTATION_CONTEXT(2) 
PARAMETRIC_REPRESENTATION_CONTEXT() REPRESENTATION_CONTEXT('2D SPACE',''
  ) );
#432 = ORIENTED_EDGE('',*,*,#433,.F.);
#433 = EDGE_CURVE('',#227,#406,#434,.T.);
#434 = SURFACE_CURVE('',#435,(#439,#446),.PCURVE_S1.);
#435 = LINE('',#436,#437);
#436 = CARTESIAN_POINT('',(-4.449593469062,3.232818887609,0.));
#437 = VECTOR('',#438,1.);
#438 = DIRECTION('',(0.,0.,1.));
#439 = PCURVE('',#210,#440);
#440 = DEFINITIONAL_REPRESENTATION('',(#441),#445);
#441 = LINE('',#442,#443);
#442 = CARTESIAN_POINT('',(6.465637775217,0.));
#443 = VECTOR('',#444,1.);
#444 = DIRECTION('',(0.,-1.));
#445 = ( GEOMETRIC_REPRESENTATION_CONTEXT(2) 
PARAMETRIC_REPRESENTATION_CONTEXT() REPRESENTATION_CONTEXT('2D SPACE',''
  ) );
#446 = PCURVE('',#265,#447);
#447 = DEFINITIONAL_REPRESENTATION('',(#448),#452);
#448 = LINE('',#449,#450);
#449 = CARTESIAN_POINT('',(0.,0.));
#450 = VECTOR('',#451,1.);
#451 = DIRECTION('',(0.,-1.));
#452 = ( GEOMETRIC_REPRESENTATION_CONTEXT(2) 
PARAMETRIC_REPRESENTATION_CONTEXT() REPRESENTATION_CONTEXT('2D SPACE',''
  ) );
#453 = ADVANCED_FACE('',(#454),#184,.T.);
#454 = FACE_BOUND('',#455,.T.);
#455 = EDGE_LOOP('',(#456,#478,#479));
#456 = ORIENTED_EDGE('',*,*,#457,.F.);
#457 = EDGE_CURVE('',#113,#332,#458,.T.);
#458 = SURFACE_CURVE('',#459,(#464,#471),.PCURVE_S1.);
#459 = CIRCLE('',#460,4.95);
#460 = AXIS2_PLACEMENT_3D('',#461,#462,#463);
#461 = CARTESIAN_POINT('',(0.,0.,20.));
#462 = DIRECTION('',(0.,0.,1.));
#463 = DIRECTION('',(1.,0.,-0.));
#464 = PCURVE('',#184,#465);
#465 = DEFINITIONAL_REPRESENTATION('',(#466),#470);
#466 = CIRCLE('',#467,4.95);
#467 = AXIS2_PLACEMENT_2D('',#468,#469);
#468 = CARTESIAN_POINT('',(3.296856832053E-16,2.51608060199E-16));
#469 = DIRECTION('',(1.,0.));
#470 = ( GEOMETRIC_REPRESENTATION_CONTEXT(2) 
PARAMETRIC_REPRESENTATION_CONTEXT() REPRESENTATION_CONTEXT('2D SPACE',''
  ) );
#471 = PCURVE('',#129,#472);
#472 = DEFINITIONAL_REPRESENTATION('',(#473),#477);
#473 = LINE('',#474,#475);
#474 = CARTESIAN_POINT('',(0.,0.));
#475 = VECTOR('',#476,1.);
#476 = DIRECTION('',(1.,0.));
#477 = ( GEOMETRIC_REPRESENTATION_CONTEXT(2) 
PARAMETRIC_REPRESENTATION_CONTEXT() REPRESENTATION_CONTEXT('2D SPACE',''
  ) );
#478 = ORIENTED_EDGE('',*,*,#168,.T.);
#479 = ORIENTED_EDGE('',*,*,#331,.T.);
#480 = ADVANCED_FACE('',(#481),#129,.T.);
#481 = FACE_BOUND('',#482,.T.);
#482 = EDGE_LOOP('',(#483,#509,#510,#532,#533,#534,#535,#559,#610,#639,
    #690,#719,#770));
#483 = ORIENTED_EDGE('',*,*,#484,.T.);
#484 = EDGE_CURVE('',#485,#487,#489,.T.);
#485 = VERTEX_POINT('',#486);
#486 = CARTESIAN_POINT('',(4.95,-1.212400331156E-15,20.));
#487 = VERTEX_POINT('',#488);
#488 = CARTESIAN_POINT('',(3.03100082789E-16,-7.423810924176E-32,24.95)
  );
#489 = SEAM_CURVE('',#490,(#495,#502),.PCURVE_S1.);
#490 = CIRCLE('',#491,4.95);
#491 = AXIS2_PLACEMENT_3D('',#492,#493,#494);
#492 = CARTESIAN_POINT('',(0.,0.,20.));
#493 = DIRECTION('',(-2.449293598295E-16,-1.,0.));
#494 = DIRECTION('',(1.,-2.449293598295E-16,0.));
#495 = PCURVE('',#129,#496);
#496 = DEFINITIONAL_REPRESENTATION('',(#497),#501);
#497 = LINE('',#498,#499);
#498 = CARTESIAN_POINT('',(6.28318530718,-6.28318530718));
#499 = VECTOR('',#500,1.);
#500 = DIRECTION('',(0.,1.));
#501 = ( GEOMETRIC_REPRESENTATION_CONTEXT(2) 
PARAMETRIC_REPRESENTATION_CONTEXT() REPRESENTATION_CONTEXT('2D SPACE',''
  ) );
#502 = PCURVE('',#129,#503);
#503 = DEFINITIONAL_REPRESENTATION('',(#504),#508);
#504 = LINE('',#505,#506);
#505 = CARTESIAN_POINT('',(0.,-6.28318530718));
#506 = VECTOR('',#507,1.);
#507 = DIRECTION('',(0.,1.));
#508 = ( GEOMETRIC_REPRESENTATION_CONTEXT(2) 
PARAMETRIC_REPRESENTATION_CONTEXT() REPRESENTATION_CONTEXT('2D SPACE',''
  ) );
#509 = ORIENTED_EDGE('',*,*,#484,.F.);
#510 = ORIENTED_EDGE('',*,*,#511,.T.);
#511 = EDGE_CURVE('',#485,#85,#512,.T.);
#512 = SURFACE_CURVE('',#513,(#518,#525),.PCURVE_S1.);
#513 = CIRCLE('',#514,4.95);
#514 = AXIS2_PLACEMENT_3D('',#515,#516,#517);
#515 = CARTESIAN_POINT('',(0.,0.,20.));
#516 = DIRECTION('',(0.,0.,1.));
#517 = DIRECTION('',(1.,0.,-0.));
#518 = PCURVE('',#129,#519);
#519 = DEFINITIONAL_REPRESENTATION('',(#520),#524);
#520 = LINE('',#521,#522);
#521 = CARTESIAN_POINT('',(0.,0.));
#522 = VECTOR('',#523,1.);
#523 = DIRECTION('',(1.,0.));
#524 = ( GEOMETRIC_REPRESENTATION_CONTEXT(2) 
PARAMETRIC_REPRESENTATION_CONTEXT() REPRESENTATION_CONTEXT('2D SPACE',''
  ) );
#525 = PCURVE('',#100,#526);
#526 = DEFINITIONAL_REPRESENTATION('',(#527),#531);
#527 = CIRCLE('',#528,4.95);
#528 = AXIS2_PLACEMENT_2D('',#529,#530);
#529 = CARTESIAN_POINT('',(3.296856832053E-16,2.51608060199E-16));
#530 = DIRECTION('',(1.,0.));
#531 = ( GEOMETRIC_REPRESENTATION_CONTEXT(2) 
PARAMETRIC_REPRESENTATION_CONTEXT() REPRESENTATION_CONTEXT('2D SPACE',''
  ) );
#532 = ORIENTED_EDGE('',*,*,#112,.F.);
#533 = ORIENTED_EDGE('',*,*,#457,.T.);
#534 = ORIENTED_EDGE('',*,*,#354,.F.);
#535 = ORIENTED_EDGE('',*,*,#536,.T.);
#536 = EDGE_CURVE('',#355,#537,#539,.T.);
#537 = VERTEX_POINT('',#538);
#538 = CARTESIAN_POINT('',(-4.449593469062,2.16878259862,20.));
#539 = SURFACE_CURVE('',#540,(#545,#552),.PCURVE_S1.);
#540 = CIRCLE('',#541,4.95);
#541 = AXIS2_PLACEMENT_3D('',#542,#543,#544);
#542 = CARTESIAN_POINT('',(0.,0.,20.));
#543 = DIRECTION('',(0.,0.,1.));
#544 = DIRECTION('',(1.,0.,-0.));
#545 = PCURVE('',#129,#546);
#546 = DEFINITIONAL_REPRESENTATION('',(#547),#551);
#547 = LINE('',#548,#549);
#548 = CARTESIAN_POINT('',(0.,0.));
#549 = VECTOR('',#550,1.);
#550 = DIRECTION('',(1.,0.));
#551 = ( GEOMETRIC_REPRESENTATION_CONTEXT(2) 
PARAMETRIC_REPRESENTATION_CONTEXT() REPRESENTATION_CONTEXT('2D SPACE',''
  ) );
#552 = PCURVE('',#421,#553);
#553 = DEFINITIONAL_REPRESENTATION('',(#554),#558);
#554 = CIRCLE('',#555,4.95);
#555 = AXIS2_PLACEMENT_2D('',#556,#557);
#556 = CARTESIAN_POINT('',(3.296856832053E-16,2.51608060199E-16));
#557 = DIRECTION('',(1.,0.));
#558 = ( GEOMETRIC_REPRESENTATION_CONTEXT(2) 
PARAMETRIC_REPRESENTATION_CONTEXT() REPRESENTATION_CONTEXT('2D SPACE',''
  ) );
#559 = ORIENTED_EDGE('',*,*,#560,.F.);
#560 = EDGE_CURVE('',#561,#537,#563,.T.);
#561 = VERTEX_POINT('',#562);
#562 = CARTESIAN_POINT('',(-4.449593469062,-2.16878259862,20.));
#563 = SURFACE_CURVE('',#564,(#569,#603),.PCURVE_S1.);
#564 = CIRCLE('',#565,2.16878259862);
#565 = AXIS2_PLACEMENT_3D('',#566,#567,#568);
#566 = CARTESIAN_POINT('',(-4.449593469062,6.11236359514E-16,20.));
#567 = DIRECTION('',(1.,-1.373690346689E-16,0.));
#568 = DIRECTION('',(1.373690346689E-16,1.,0.));
#569 = PCURVE('',#129,#570);
#570 = DEFINITIONAL_REPRESENTATION('',(#571),#602);
#571 = B_SPLINE_CURVE_WITH_KNOTS('',8,(#572,#573,#574,#575,#576,#577,
    #578,#579,#580,#581,#582,#583,#584,#585,#586,#587,#588,#589,#590,
    #591,#592,#593,#594,#595,#596,#597,#598,#599,#600,#601),
  .UNSPECIFIED.,.F.,.F.,(9,7,7,7,9),(3.14159265359,3.926990816987,
    4.516039439535,5.399612373357,6.28318530718),.UNSPECIFIED.);
#572 = CARTESIAN_POINT('',(3.595118763263,0.));
#573 = CARTESIAN_POINT('',(3.595118763263,-4.301408762032E-02));
#574 = CARTESIAN_POINT('',(3.590780558673,-8.60281672877E-02));
#575 = CARTESIAN_POINT('',(3.582103662841,-0.128531825685));
#576 = CARTESIAN_POINT('',(3.569075792912,-0.170014402885));
#577 = CARTESIAN_POINT('',(3.551668401283,-0.209954321666));
#578 = CARTESIAN_POINT('',(3.529868592459,-0.247806377966));
#579 = CARTESIAN_POINT('',(3.503738738276,-0.283004000518));
#580 = CARTESIAN_POINT('',(3.45081237905,-0.338985602947));
#581 = CARTESIAN_POINT('',(3.425815563728,-0.361173159454));
#582 = CARTESIAN_POINT('',(3.398595739968,-0.381322449205));
#583 = CARTESIAN_POINT('',(3.369291033399,-0.399204265614));
#584 = CARTESIAN_POINT('',(3.338104189274,-0.414600515171));
#585 = CARTESIAN_POINT('',(3.305315669501,-0.427319359857));
#586 = CARTESIAN_POINT('',(3.271280468892,-0.437211696528));
#587 = CARTESIAN_POINT('',(3.18407141736,-0.45463690424));
#588 = CARTESIAN_POINT('',(3.129837026356,-0.458516818049));
#589 = CARTESIAN_POINT('',(3.075039895743,-0.455499017276));
#590 = CARTESIAN_POINT('',(3.021244558824,-0.445524447708));
#591 = CARTESIAN_POINT('',(2.970060360219,-0.428890172042));
#592 = CARTESIAN_POINT('',(2.922625408451,-0.406193150159));
#593 = CARTESIAN_POINT('',(2.879689335879,-0.378146232624));
#594 = CARTESIAN_POINT('',(2.803725476122,-0.312892034952));
#595 = CARTESIAN_POINT('',(2.770697336686,-0.275684667935));
#596 = CARTESIAN_POINT('',(2.743080953516,-0.234665545085));
#597 = CARTESIAN_POINT('',(2.721031134894,-0.190655983995));
#598 = CARTESIAN_POINT('',(2.704539339902,-0.144445759238));
#599 = CARTESIAN_POINT('',(2.693556920431,-9.67816926681E-02));
#600 = CARTESIAN_POINT('',(2.688066543917,-4.839084857287E-02));
#601 = CARTESIAN_POINT('',(2.688066543917,0.));
#602 = ( GEOMETRIC_REPRESENTATION_CONTEXT(2) 
PARAMETRIC_REPRESENTATION_CONTEXT() REPRESENTATION_CONTEXT('2D SPACE',''
  ) );
#603 = PCURVE('',#265,#604);
#604 = DEFINITIONAL_REPRESENTATION('',(#605),#609);
#605 = CIRCLE('',#606,2.16878259862);
#606 = AXIS2_PLACEMENT_2D('',#607,#608);
#607 = CARTESIAN_POINT('',(3.232818887609,-20.));
#608 = DIRECTION('',(-1.,0.));
#609 = ( GEOMETRIC_REPRESENTATION_CONTEXT(2) 
PARAMETRIC_REPRESENTATION_CONTEXT() REPRESENTATION_CONTEXT('2D SPACE',''
  ) );
#610 = ORIENTED_EDGE('',*,*,#611,.T.);
#611 = EDGE_CURVE('',#561,#612,#614,.T.);
#612 = VERTEX_POINT('',#613);
#613 = CARTESIAN_POINT('',(-3.437634822846,-3.561624183538,20.));
#614 = SURFACE_CURVE('',#615,(#620,#627),.PCURVE_S1.);
#615 = CIRCLE('',#616,4.95);
#616 = AXIS2_PLACEMENT_3D('',#617,#618,#619);
#617 = CARTESIAN_POINT('',(0.,0.,20.));
#618 = DIRECTION('',(0.,0.,1.));
#619 = DIRECTION('',(1.,0.,-0.));
#620 = PCURVE('',#129,#621);
#621 = DEFINITIONAL_REPRESENTATION('',(#622),#626);
#622 = LINE('',#623,#624);
#623 = CARTESIAN_POINT('',(0.,0.));
#624 = VECTOR('',#625,1.);
#625 = DIRECTION('',(1.,0.));
#626 = ( GEOMETRIC_REPRESENTATION_CONTEXT(2) 
PARAMETRIC_REPRESENTATION_CONTEXT() REPRESENTATION_CONTEXT('2D SPACE',''
  ) );
#627 = PCURVE('',#628,#633);
#628 = PLANE('',#629);
#629 = AXIS2_PLACEMENT_3D('',#630,#631,#632);
#630 = CARTESIAN_POINT('',(-3.296856832053E-16,-2.51608060199E-16,20.));
#631 = DIRECTION('',(0.,0.,1.));
#632 = DIRECTION('',(1.,0.,-0.));
#633 = DEFINITIONAL_REPRESENTATION('',(#634),#638);
#634 = CIRCLE('',#635,4.95);
#635 = AXIS2_PLACEMENT_2D('',#636,#637);
#636 = CARTESIAN_POINT('',(3.296856832053E-16,2.51608060199E-16));
#637 = DIRECTION('',(1.,0.));
#638 = ( GEOMETRIC_REPRESENTATION_CONTEXT(2) 
PARAMETRIC_REPRESENTATION_CONTEXT() REPRESENTATION_CONTEXT('2D SPACE',''
  ) );
#639 = ORIENTED_EDGE('',*,*,#640,.F.);
#640 = EDGE_CURVE('',#641,#612,#643,.T.);
#641 = VERTEX_POINT('',#642);
#642 = CARTESIAN_POINT('',(0.687634822846,-4.902005543694,20.));
#643 = SURFACE_CURVE('',#644,(#649,#683),.PCURVE_S1.);
#644 = CIRCLE('',#645,2.16878259862);
#645 = AXIS2_PLACEMENT_3D('',#646,#647,#648);
#646 = CARTESIAN_POINT('',(-1.375,-4.231814863616,20.));
#647 = DIRECTION('',(0.309016994375,0.951056516295,-0.));
#648 = DIRECTION('',(-0.951056516295,0.309016994375,0.));
#649 = PCURVE('',#129,#650);
#650 = DEFINITIONAL_REPRESENTATION('',(#651),#682);
#651 = B_SPLINE_CURVE_WITH_KNOTS('',8,(#652,#653,#654,#655,#656,#657,
    #658,#659,#660,#661,#662,#663,#664,#665,#666,#667,#668,#669,#670,
    #671,#672,#673,#674,#675,#676,#677,#678,#679,#680,#681),
  .UNSPECIFIED.,.F.,.F.,(9,7,7,7,9),(3.14159265359,3.926990816987,
    4.516039439535,5.399612373357,6.28318530718),.UNSPECIFIED.);
#652 = CARTESIAN_POINT('',(4.851755824699,0.));
#653 = CARTESIAN_POINT('',(4.851755824699,-4.301408762032E-02));
#654 = CARTESIAN_POINT('',(4.847417620109,-8.602816728774E-02));
#655 = CARTESIAN_POINT('',(4.838740724277,-0.128531825685));
#656 = CARTESIAN_POINT('',(4.825712854348,-0.170014402885));
#657 = CARTESIAN_POINT('',(4.808305462719,-0.209954321666));
#658 = CARTESIAN_POINT('',(4.786505653896,-0.247806377966));
#659 = CARTESIAN_POINT('',(4.760375799711,-0.283004000518));
#660 = CARTESIAN_POINT('',(4.707449440486,-0.338985602947));
#661 = CARTESIAN_POINT('',(4.682452625164,-0.361173159454));
#662 = CARTESIAN_POINT('',(4.655232801403,-0.381322449205));
#663 = CARTESIAN_POINT('',(4.625928094835,-0.399204265614));
#664 = CARTESIAN_POINT('',(4.594741250711,-0.414600515171));
#665 = CARTESIAN_POINT('',(4.561952730937,-0.427319359857));
#666 = CARTESIAN_POINT('',(4.527917530328,-0.437211696528));
#667 = CARTESIAN_POINT('',(4.440708478796,-0.45463690424));
#668 = CARTESIAN_POINT('',(4.386474087787,-0.458516818049));
#669 = CARTESIAN_POINT('',(4.331676957197,-0.455499017277));
#670 = CARTESIAN_POINT('',(4.277881620235,-0.445524447706));
#671 = CARTESIAN_POINT('',(4.226697421672,-0.428890172043));
#672 = CARTESIAN_POINT('',(4.179262469883,-0.406193150159));
#673 = CARTESIAN_POINT('',(4.136326397315,-0.378146232624));
#674 = CARTESIAN_POINT('',(4.060362537558,-0.312892034952));
#675 = CARTESIAN_POINT('',(4.027334398122,-0.275684667935));
#676 = CARTESIAN_POINT('',(3.999718014952,-0.234665545085));
#677 = CARTESIAN_POINT('',(3.97766819633,-0.190655983995));
#678 = CARTESIAN_POINT('',(3.961176401338,-0.144445759238));
#679 = CARTESIAN_POINT('',(3.950193981866,-9.678169266811E-02));
#680 = CARTESIAN_POINT('',(3.944703605353,-4.839084857287E-02));
#681 = CARTESIAN_POINT('',(3.944703605353,0.));
#682 = ( GEOMETRIC_REPRESENTATION_CONTEXT(2) 
PARAMETRIC_REPRESENTATION_CONTEXT() REPRESENTATION_CONTEXT('2D SPACE',''
  ) );
#683 = PCURVE('',#293,#684);
#684 = DEFINITIONAL_REPRESENTATION('',(#685),#689);
#685 = CIRCLE('',#686,2.16878259862);
#686 = AXIS2_PLACEMENT_2D('',#687,#688);
#687 = CARTESIAN_POINT('',(3.232818887609,-20.));
#688 = DIRECTION('',(-1.,-0.));
#689 = ( GEOMETRIC_REPRESENTATION_CONTEXT(2) 
PARAMETRIC_REPRESENTATION_CONTEXT() REPRESENTATION_CONTEXT('2D SPACE',''
  ) );
#690 = ORIENTED_EDGE('',*,*,#691,.T.);
#691 = EDGE_CURVE('',#641,#692,#694,.T.);
#692 = VERTEX_POINT('',#693);
#693 = CARTESIAN_POINT('',(2.325018307633,-4.3699873992,20.));
#694 = SURFACE_CURVE('',#695,(#700,#707),.PCURVE_S1.);
#695 = CIRCLE('',#696,4.95);
#696 = AXIS2_PLACEMENT_3D('',#697,#698,#699);
#697 = CARTESIAN_POINT('',(0.,0.,20.));
#698 = DIRECTION('',(0.,0.,1.));
#699 = DIRECTION('',(1.,0.,-0.));
#700 = PCURVE('',#129,#701);
#701 = DEFINITIONAL_REPRESENTATION('',(#702),#706);
#702 = LINE('',#703,#704);
#703 = CARTESIAN_POINT('',(0.,0.));
#704 = VECTOR('',#705,1.);
#705 = DIRECTION('',(1.,0.));
#706 = ( GEOMETRIC_REPRESENTATION_CONTEXT(2) 
PARAMETRIC_REPRESENTATION_CONTEXT() REPRESENTATION_CONTEXT('2D SPACE',''
  ) );
#707 = PCURVE('',#708,#713);
#708 = PLANE('',#709);
#709 = AXIS2_PLACEMENT_3D('',#710,#711,#712);
#710 = CARTESIAN_POINT('',(-3.296856832053E-16,-2.51608060199E-16,20.));
#711 = DIRECTION('',(0.,0.,1.));
#712 = DIRECTION('',(1.,0.,-0.));
#713 = DEFINITIONAL_REPRESENTATION('',(#714),#718);
#714 = CIRCLE('',#715,4.95);
#715 = AXIS2_PLACEMENT_2D('',#716,#717);
#716 = CARTESIAN_POINT('',(3.296856832053E-16,2.51608060199E-16));
#717 = DIRECTION('',(1.,0.));
#718 = ( GEOMETRIC_REPRESENTATION_CONTEXT(2) 
PARAMETRIC_REPRESENTATION_CONTEXT() REPRESENTATION_CONTEXT('2D SPACE',''
  ) );
#719 = ORIENTED_EDGE('',*,*,#720,.F.);
#720 = EDGE_CURVE('',#721,#692,#723,.T.);
#721 = VERTEX_POINT('',#722);
#722 = CARTESIAN_POINT('',(4.874575161429,-0.860823440423,20.));
#723 = SURFACE_CURVE('',#724,(#729,#763),.PCURVE_S1.);
#724 = CIRCLE('',#725,2.16878259862);
#725 = AXIS2_PLACEMENT_3D('',#726,#727,#728);
#726 = CARTESIAN_POINT('',(3.599796734531,-2.615405419812,20.));
#727 = DIRECTION('',(-0.809016994375,0.587785252292,0.));
#728 = DIRECTION('',(-0.587785252292,-0.809016994375,0.));
#729 = PCURVE('',#129,#730);
#730 = DEFINITIONAL_REPRESENTATION('',(#731),#762);
#731 = B_SPLINE_CURVE_WITH_KNOTS('',8,(#732,#733,#734,#735,#736,#737,
    #738,#739,#740,#741,#742,#743,#744,#745,#746,#747,#748,#749,#750,
    #751,#752,#753,#754,#755,#756,#757,#758,#759,#760,#761),
  .UNSPECIFIED.,.F.,.F.,(9,7,7,7,9),(3.14159265359,3.926990816987,
    4.516039439535,5.399612373357,6.28318530718),.UNSPECIFIED.);
#732 = CARTESIAN_POINT('',(6.108392886135,0.));
#733 = CARTESIAN_POINT('',(6.108392886135,-4.301408762032E-02));
#734 = CARTESIAN_POINT('',(6.104054681545,-8.602816728774E-02));
#735 = CARTESIAN_POINT('',(6.095377785713,-0.128531825685));
#736 = CARTESIAN_POINT('',(6.082349915785,-0.170014402885));
#737 = CARTESIAN_POINT('',(6.064942524155,-0.209954321666));
#738 = CARTESIAN_POINT('',(6.043142715331,-0.247806377966));
#739 = CARTESIAN_POINT('',(6.017012861147,-0.283004000518));
#740 = CARTESIAN_POINT('',(5.964086501922,-0.338985602947));
#741 = CARTESIAN_POINT('',(5.9390896866,-0.361173159454));
#742 = CARTESIAN_POINT('',(5.91186986284,-0.381322449205));
#743 = CARTESIAN_POINT('',(5.882565156272,-0.399204265614));
#744 = CARTESIAN_POINT('',(5.851378312146,-0.414600515171));
#745 = CARTESIAN_POINT('',(5.818589792373,-0.427319359857));
#746 = CARTESIAN_POINT('',(5.784554591764,-0.437211696528));
#747 = CARTESIAN_POINT('',(5.697345540232,-0.45463690424));
#748 = CARTESIAN_POINT('',(5.643111149224,-0.458516818049));
#749 = CARTESIAN_POINT('',(5.588314018619,-0.455499017277));
#750 = CARTESIAN_POINT('',(5.534518681669,-0.445524447707));
#751 = CARTESIAN_POINT('',(5.483334483099,-0.428890172043));
#752 = CARTESIAN_POINT('',(5.435899531317,-0.406193150159));
#753 = CARTESIAN_POINT('',(5.392963458751,-0.378146232624));
#754 = CARTESIAN_POINT('',(5.316999598993,-0.312892034952));
#755 = CARTESIAN_POINT('',(5.283971459558,-0.275684667935));
#756 = CARTESIAN_POINT('',(5.256355076387,-0.234665545085));
#757 = CARTESIAN_POINT('',(5.234305257766,-0.190655983995));
#758 = CARTESIAN_POINT('',(5.217813462775,-0.144445759238));
#759 = CARTESIAN_POINT('',(5.206831043302,-9.67816926681E-02));
#760 = CARTESIAN_POINT('',(5.201340666789,-4.839084857287E-02));
#761 = CARTESIAN_POINT('',(5.201340666789,0.));
#762 = ( GEOMETRIC_REPRESENTATION_CONTEXT(2) 
PARAMETRIC_REPRESENTATION_CONTEXT() REPRESENTATION_CONTEXT('2D SPACE',''
  ) );
#763 = PCURVE('',#72,#764);
#764 = DEFINITIONAL_REPRESENTATION('',(#765),#769);
#765 = CIRCLE('',#766,2.16878259862);
#766 = AXIS2_PLACEMENT_2D('',#767,#768);
#767 = CARTESIAN_POINT('',(3.232818887609,-20.));
#768 = DIRECTION('',(-1.,-0.));
#769 = ( GEOMETRIC_REPRESENTATION_CONTEXT(2) 
PARAMETRIC_REPRESENTATION_CONTEXT() REPRESENTATION_CONTEXT('2D SPACE',''
  ) );
#770 = ORIENTED_EDGE('',*,*,#771,.T.);
#771 = EDGE_CURVE('',#721,#485,#772,.T.);
#772 = SURFACE_CURVE('',#773,(#778,#785),.PCURVE_S1.);
#773 = CIRCLE('',#774,4.95);
#774 = AXIS2_PLACEMENT_3D('',#775,#776,#777);
#775 = CARTESIAN_POINT('',(0.,0.,20.));
#776 = DIRECTION('',(0.,0.,1.));
#777 = DIRECTION('',(1.,0.,-0.));
#778 = PCURVE('',#129,#779);
#779 = DEFINITIONAL_REPRESENTATION('',(#780),#784);
#780 = LINE('',#781,#782);
#781 = CARTESIAN_POINT('',(0.,0.));
#782 = VECTOR('',#783,1.);
#783 = DIRECTION('',(1.,0.));
#784 = ( GEOMETRIC_REPRESENTATION_CONTEXT(2) 
PARAMETRIC_REPRESENTATION_CONTEXT() REPRESENTATION_CONTEXT('2D SPACE',''
  ) );
#785 = PCURVE('',#100,#786);
#786 = DEFINITIONAL_REPRESENTATION('',(#787),#791);
#787 = CIRCLE('',#788,4.95);
#788 = AXIS2_PLACEMENT_2D('',#789,#790);
#789 = CARTESIAN_POINT('',(3.296856832053E-16,2.51608060199E-16));
#790 = DIRECTION('',(1.,0.));
#791 = ( GEOMETRIC_REPRESENTATION_CONTEXT(2) 
PARAMETRIC_REPRESENTATION_CONTEXT() REPRESENTATION_CONTEXT('2D SPACE',''
  ) );
#792 = ADVANCED_FACE('',(#793),#100,.T.);
#793 = FACE_BOUND('',#794,.T.);
#794 = EDGE_LOOP('',(#795,#816,#817,#818));
#795 = ORIENTED_EDGE('',*,*,#796,.T.);
#796 = EDGE_CURVE('',#721,#57,#797,.T.);
#797 = SURFACE_CURVE('',#798,(#802,#809),.PCURVE_S1.);
#798 = LINE('',#799,#800);
#799 = CARTESIAN_POINT('',(1.699593469062,-5.230810839623,20.));
#800 = VECTOR('',#801,1.);
#801 = DIRECTION('',(0.587785252292,0.809016994375,0.));
#802 = PCURVE('',#100,#803);
#803 = DEFINITIONAL_REPRESENTATION('',(#804),#808);
#804 = LINE('',#805,#806);
#805 = CARTESIAN_POINT('',(1.699593469062,-5.230810839623));
#806 = VECTOR('',#807,1.);
#807 = DIRECTION('',(0.587785252292,0.809016994375));
#808 = ( GEOMETRIC_REPRESENTATION_CONTEXT(2) 
PARAMETRIC_REPRESENTATION_CONTEXT() REPRESENTATION_CONTEXT('2D SPACE',''
  ) );
#809 = PCURVE('',#72,#810);
#810 = DEFINITIONAL_REPRESENTATION('',(#811),#815);
#811 = LINE('',#812,#813);
#812 = CARTESIAN_POINT('',(0.,-20.));
#813 = VECTOR('',#814,1.);
#814 = DIRECTION('',(1.,0.));
#815 = ( GEOMETRIC_REPRESENTATION_CONTEXT(2) 
PARAMETRIC_REPRESENTATION_CONTEXT() REPRESENTATION_CONTEXT('2D SPACE',''
  ) );
#816 = ORIENTED_EDGE('',*,*,#84,.T.);
#817 = ORIENTED_EDGE('',*,*,#511,.F.);
#818 = ORIENTED_EDGE('',*,*,#771,.F.);
#819 = ADVANCED_FACE('',(#820),#72,.F.);
#820 = FACE_BOUND('',#821,.F.);
#821 = EDGE_LOOP('',(#822,#823,#846,#867,#868,#869));
#822 = ORIENTED_EDGE('',*,*,#305,.F.);
#823 = ORIENTED_EDGE('',*,*,#824,.T.);
#824 = EDGE_CURVE('',#278,#825,#827,.T.);
#825 = VERTEX_POINT('',#826);
#826 = CARTESIAN_POINT('',(1.699593469062,-5.230810839623,20.));
#827 = SURFACE_CURVE('',#828,(#832,#839),.PCURVE_S1.);
#828 = LINE('',#829,#830);
#829 = CARTESIAN_POINT('',(1.699593469062,-5.230810839623,0.));
#830 = VECTOR('',#831,1.);
#831 = DIRECTION('',(0.,0.,1.));
#832 = PCURVE('',#72,#833);
#833 = DEFINITIONAL_REPRESENTATION('',(#834),#838);
#834 = LINE('',#835,#836);
#835 = CARTESIAN_POINT('',(0.,0.));
#836 = VECTOR('',#837,1.);
#837 = DIRECTION('',(0.,-1.));
#838 = ( GEOMETRIC_REPRESENTATION_CONTEXT(2) 
PARAMETRIC_REPRESENTATION_CONTEXT() REPRESENTATION_CONTEXT('2D SPACE',''
  ) );
#839 = PCURVE('',#293,#840);
#840 = DEFINITIONAL_REPRESENTATION('',(#841),#845);
#841 = LINE('',#842,#843);
#842 = CARTESIAN_POINT('',(6.465637775217,0.));
#843 = VECTOR('',#844,1.);
#844 = DIRECTION('',(0.,-1.));
#845 = ( GEOMETRIC_REPRESENTATION_CONTEXT(2) 
PARAMETRIC_REPRESENTATION_CONTEXT() REPRESENTATION_CONTEXT('2D SPACE',''
  ) );
#846 = ORIENTED_EDGE('',*,*,#847,.T.);
#847 = EDGE_CURVE('',#825,#692,#848,.T.);
#848 = SURFACE_CURVE('',#849,(#853,#860),.PCURVE_S1.);
#849 = LINE('',#850,#851);
#850 = CARTESIAN_POINT('',(1.699593469062,-5.230810839623,20.));
#851 = VECTOR('',#852,1.);
#852 = DIRECTION('',(0.587785252292,0.809016994375,0.));
#853 = PCURVE('',#72,#854);
#854 = DEFINITIONAL_REPRESENTATION('',(#855),#859);
#855 = LINE('',#856,#857);
#856 = CARTESIAN_POINT('',(0.,-20.));
#857 = VECTOR('',#858,1.);
#858 = DIRECTION('',(1.,0.));
#859 = ( GEOMETRIC_REPRESENTATION_CONTEXT(2) 
PARAMETRIC_REPRESENTATION_CONTEXT() REPRESENTATION_CONTEXT('2D SPACE',''
  ) );
#860 = PCURVE('',#708,#861);
#861 = DEFINITIONAL_REPRESENTATION('',(#862),#866);
#862 = LINE('',#863,#864);
#863 = CARTESIAN_POINT('',(1.699593469062,-5.230810839623));
#864 = VECTOR('',#865,1.);
#865 = DIRECTION('',(0.587785252292,0.809016994375));
#866 = ( GEOMETRIC_REPRESENTATION_CONTEXT(2) 
PARAMETRIC_REPRESENTATION_CONTEXT() REPRESENTATION_CONTEXT('2D SPACE',''
  ) );
#867 = ORIENTED_EDGE('',*,*,#720,.F.);
#868 = ORIENTED_EDGE('',*,*,#796,.T.);
#869 = ORIENTED_EDGE('',*,*,#56,.F.);
#870 = ADVANCED_FACE('',(#871),#265,.F.);
#871 = FACE_BOUND('',#872,.F.);
#872 = EDGE_LOOP('',(#873,#874,#875,#896,#897,#920));
#873 = ORIENTED_EDGE('',*,*,#249,.F.);
#874 = ORIENTED_EDGE('',*,*,#433,.T.);
#875 = ORIENTED_EDGE('',*,*,#876,.T.);
#876 = EDGE_CURVE('',#406,#537,#877,.T.);
#877 = SURFACE_CURVE('',#878,(#882,#889),.PCURVE_S1.);
#878 = LINE('',#879,#880);
#879 = CARTESIAN_POINT('',(-4.449593469062,3.232818887609,20.));
#880 = VECTOR('',#881,1.);
#881 = DIRECTION('',(-1.373690346689E-16,-1.,0.));
#882 = PCURVE('',#265,#883);
#883 = DEFINITIONAL_REPRESENTATION('',(#884),#888);
#884 = LINE('',#885,#886);
#885 = CARTESIAN_POINT('',(0.,-20.));
#886 = VECTOR('',#887,1.);
#887 = DIRECTION('',(1.,0.));
#888 = ( GEOMETRIC_REPRESENTATION_CONTEXT(2) 
PARAMETRIC_REPRESENTATION_CONTEXT() REPRESENTATION_CONTEXT('2D SPACE',''
  ) );
#889 = PCURVE('',#421,#890);
#890 = DEFINITIONAL_REPRESENTATION('',(#891),#895);
#891 = LINE('',#892,#893);
#892 = CARTESIAN_POINT('',(-4.449593469062,3.232818887609));
#893 = VECTOR('',#894,1.);
#894 = DIRECTION('',(-1.373690346689E-16,-1.));
#895 = ( GEOMETRIC_REPRESENTATION_CONTEXT(2) 
PARAMETRIC_REPRESENTATION_CONTEXT() REPRESENTATION_CONTEXT('2D SPACE',''
  ) );
#896 = ORIENTED_EDGE('',*,*,#560,.F.);
#897 = ORIENTED_EDGE('',*,*,#898,.T.);
#898 = EDGE_CURVE('',#561,#899,#901,.T.);
#899 = VERTEX_POINT('',#900);
#900 = CARTESIAN_POINT('',(-4.449593469062,-3.232818887609,20.));
#901 = SURFACE_CURVE('',#902,(#906,#913),.PCURVE_S1.);
#902 = LINE('',#903,#904);
#903 = CARTESIAN_POINT('',(-4.449593469062,3.232818887609,20.));
#904 = VECTOR('',#905,1.);
#905 = DIRECTION('',(-1.373690346689E-16,-1.,0.));
#906 = PCURVE('',#265,#907);
#907 = DEFINITIONAL_REPRESENTATION('',(#908),#912);
#908 = LINE('',#909,#910);
#909 = CARTESIAN_POINT('',(0.,-20.));
#910 = VECTOR('',#911,1.);
#911 = DIRECTION('',(1.,0.));
#912 = ( GEOMETRIC_REPRESENTATION_CONTEXT(2) 
PARAMETRIC_REPRESENTATION_CONTEXT() REPRESENTATION_CONTEXT('2D SPACE',''
  ) );
#913 = PCURVE('',#628,#914);
#914 = DEFINITIONAL_REPRESENTATION('',(#915),#919);
#915 = LINE('',#916,#917);
#916 = CARTESIAN_POINT('',(-4.449593469062,3.232818887609));
#917 = VECTOR('',#918,1.);
#918 = DIRECTION('',(-1.373690346689E-16,-1.));
#919 = ( GEOMETRIC_REPRESENTATION_CONTEXT(2) 
PARAMETRIC_REPRESENTATION_CONTEXT() REPRESENTATION_CONTEXT('2D SPACE',''
  ) );
#920 = ORIENTED_EDGE('',*,*,#921,.F.);
#921 = EDGE_CURVE('',#250,#899,#922,.T.);
#922 = SURFACE_CURVE('',#923,(#927,#934),.PCURVE_S1.);
#923 = LINE('',#924,#925);
#924 = CARTESIAN_POINT('',(-4.449593469062,-3.232818887609,0.));
#925 = VECTOR('',#926,1.);
#926 = DIRECTION('',(0.,0.,1.));
#927 = PCURVE('',#265,#928);
#928 = DEFINITIONAL_REPRESENTATION('',(#929),#933);
#929 = LINE('',#930,#931);
#930 = CARTESIAN_POINT('',(6.465637775217,0.));
#931 = VECTOR('',#932,1.);
#932 = DIRECTION('',(0.,-1.));
#933 = ( GEOMETRIC_REPRESENTATION_CONTEXT(2) 
PARAMETRIC_REPRESENTATION_CONTEXT() REPRESENTATION_CONTEXT('2D SPACE',''
  ) );
#934 = PCURVE('',#293,#935);
#935 = DEFINITIONAL_REPRESENTATION('',(#936),#940);
#936 = LINE('',#937,#938);
#937 = CARTESIAN_POINT('',(0.,0.));
#938 = VECTOR('',#939,1.);
#939 = DIRECTION('',(0.,-1.));
#940 = ( GEOMETRIC_REPRESENTATION_CONTEXT(2) 
PARAMETRIC_REPRESENTATION_CONTEXT() REPRESENTATION_CONTEXT('2D SPACE',''
  ) );
#941 = ADVANCED_FACE('',(#942),#293,.F.);
#942 = FACE_BOUND('',#943,.F.);
#943 = EDGE_LOOP('',(#944,#945,#946,#967,#968,#989));
#944 = ORIENTED_EDGE('',*,*,#277,.F.);
#945 = ORIENTED_EDGE('',*,*,#921,.T.);
#946 = ORIENTED_EDGE('',*,*,#947,.T.);
#947 = EDGE_CURVE('',#899,#612,#948,.T.);
#948 = SURFACE_CURVE('',#949,(#953,#960),.PCURVE_S1.);
#949 = LINE('',#950,#951);
#950 = CARTESIAN_POINT('',(-4.449593469062,-3.232818887609,20.));
#951 = VECTOR('',#952,1.);
#952 = DIRECTION('',(0.951056516295,-0.309016994375,0.));
#953 = PCURVE('',#293,#954);
#954 = DEFINITIONAL_REPRESENTATION('',(#955),#959);
#955 = LINE('',#956,#957);
#956 = CARTESIAN_POINT('',(0.,-20.));
#957 = VECTOR('',#958,1.);
#958 = DIRECTION('',(1.,0.));
#959 = ( GEOMETRIC_REPRESENTATION_CONTEXT(2) 
PARAMETRIC_REPRESENTATION_CONTEXT() REPRESENTATION_CONTEXT('2D SPACE',''
  ) );
#960 = PCURVE('',#628,#961);
#961 = DEFINITIONAL_REPRESENTATION('',(#962),#966);
#962 = LINE('',#963,#964);
#963 = CARTESIAN_POINT('',(-4.449593469062,-3.232818887609));
#964 = VECTOR('',#965,1.);
#965 = DIRECTION('',(0.951056516295,-0.309016994375));
#966 = ( GEOMETRIC_REPRESENTATION_CONTEXT(2) 
PARAMETRIC_REPRESENTATION_CONTEXT() REPRESENTATION_CONTEXT('2D SPACE',''
  ) );
#967 = ORIENTED_EDGE('',*,*,#640,.F.);
#968 = ORIENTED_EDGE('',*,*,#969,.T.);
#969 = EDGE_CURVE('',#641,#825,#970,.T.);
#970 = SURFACE_CURVE('',#971,(#975,#982),.PCURVE_S1.);
#971 = LINE('',#972,#973);
#972 = CARTESIAN_POINT('',(-4.449593469062,-3.232818887609,20.));
#973 = VECTOR('',#974,1.);
#974 = DIRECTION('',(0.951056516295,-0.309016994375,0.));
#975 = PCURVE('',#293,#976);
#976 = DEFINITIONAL_REPRESENTATION('',(#977),#981);
#977 = LINE('',#978,#979);
#978 = CARTESIAN_POINT('',(0.,-20.));
#979 = VECTOR('',#980,1.);
#980 = DIRECTION('',(1.,0.));
#981 = ( GEOMETRIC_REPRESENTATION_CONTEXT(2) 
PARAMETRIC_REPRESENTATION_CONTEXT() REPRESENTATION_CONTEXT('2D SPACE',''
  ) );
#982 = PCURVE('',#708,#983);
#983 = DEFINITIONAL_REPRESENTATION('',(#984),#988);
#984 = LINE('',#985,#986);
#985 = CARTESIAN_POINT('',(-4.449593469062,-3.232818887609));
#986 = VECTOR('',#987,1.);
#987 = DIRECTION('',(0.951056516295,-0.309016994375));
#988 = ( GEOMETRIC_REPRESENTATION_CONTEXT(2) 
PARAMETRIC_REPRESENTATION_CONTEXT() REPRESENTATION_CONTEXT('2D SPACE',''
  ) );
#989 = ORIENTED_EDGE('',*,*,#824,.F.);
#990 = ADVANCED_FACE('',(#991),#421,.T.);
#991 = FACE_BOUND('',#992,.T.);
#992 = EDGE_LOOP('',(#993,#994,#995));
#993 = ORIENTED_EDGE('',*,*,#536,.F.);
#994 = ORIENTED_EDGE('',*,*,#405,.T.);
#995 = ORIENTED_EDGE('',*,*,#876,.T.);
#996 = ADVANCED_FACE('',(#997),#708,.T.);
#997 = FACE_BOUND('',#998,.T.);
#998 = EDGE_LOOP('',(#999,#1000,#1001));
#999 = ORIENTED_EDGE('',*,*,#847,.T.);
#1000 = ORIENTED_EDGE('',*,*,#691,.F.);
#1001 = ORIENTED_EDGE('',*,*,#969,.T.);
#1002 = ADVANCED_FACE('',(#1003),#628,.T.);
#1003 = FACE_BOUND('',#1004,.T.);
#1004 = EDGE_LOOP('',(#1005,#1006,#1007));
#1005 = ORIENTED_EDGE('',*,*,#947,.T.);
#1006 = ORIENTED_EDGE('',*,*,#611,.F.);
#1007 = ORIENTED_EDGE('',*,*,#898,.T.);
#1008 = ( GEOMETRIC_REPRESENTATION_CONTEXT(3) 
GLOBAL_UNCERTAINTY_ASSIGNED_CONTEXT((#1012)) 
GLOBAL_UNIT_ASSIGNED_CONTEXT((#1009,#1010,#1011)) REPRESENTATION_CONTEXT
('Context #1','3D Context with UNIT and UNCERTAINTY') );
#1009 = ( LENGTH_UNIT() NAMED_UNIT(*) SI_UNIT(.MILLI.,.METRE.) );
#1010 = ( NAMED_UNIT(*) PLANE_ANGLE_UNIT() SI_UNIT($,.RADIAN.) );
#1011 = ( NAMED_UNIT(*) SI_UNIT($,.STERADIAN.) SOLID_ANGLE_UNIT() );
#1012 = UNCERTAINTY_MEASURE_WITH_UNIT(LENGTH_MEASURE(1.E-07),#1009,
  'distance_accuracy_value','confusion accuracy');
#1013 = PRODUCT_RELATED_PRODUCT_CATEGORY('part',$,(#7));
ENDSEC;
END-ISO-10303-21;
