ISO-10303-21;
HEADER;
FILE_DESCRIPTION(('Open CASCADE Model'),'2;1');
FILE_NAME('marker_peg_tri_03','2026-08-13T18:10:25',('Author'),(
    'Open CASCADE'),'Open CASCADE STEP processor 7.8','cadpy','Unknown'
  );
FILE_SCHEMA(('AUTOMOTIVE_DESIGN { 1 0 10303 214 1 1 1 1 }'));
ENDSEC;
DATA;
#1 = APPLICATION_PROTOCOL_DEFINITION('international standard',
  'automotive_design',2000,#2);
#2 = APPLICATION_CONTEXT(
  'core data for automotive mechanical design processes');
#3 = SHAPE_DEFINITION_REPRESENTATION(#4,#10);
#4 = PRODUCT_DEFINITION_SHAPE('','',#5);
#5 = PRODUCT_DEFINITION('design','',#6,#9);
#6 = PRODUCT_DEFINITION_FORMATION('','',#7);
#7 = PRODUCT('marker_peg_tri_03','marker_peg_tri_03','',(#8));
#8 = PRODUCT_CONTEXT('',#2,'mechanical');
#9 = PRODUCT_DEFINITION_CONTEXT('part definition',#2,'design');
#10 = ADVANCED_BREP_SHAPE_REPRESENTATION('',(#11,#15),#722);
#11 = AXIS2_PLACEMENT_3D('',#12,#13,#14);
#12 = CARTESIAN_POINT('',(0.,0.,0.));
#13 = DIRECTION('',(0.,0.,1.));
#14 = DIRECTION('',(1.,0.,-0.));
#15 = MANIFOLD_SOLID_BREP('',#16);
#16 = CLOSED_SHELL('',(#17,#249,#297,#453,#480,#660,#687,#716));
#17 = ADVANCED_FACE('',(#18),#32,.F.);
#18 = FACE_BOUND('',#19,.F.);
#19 = EDGE_LOOP('',(#20,#55,#83,#111,#195,#223));
#20 = ORIENTED_EDGE('',*,*,#21,.F.);
#21 = EDGE_CURVE('',#22,#24,#26,.T.);
#22 = VERTEX_POINT('',#23);
#23 = CARTESIAN_POINT('',(5.5,0.,0.));
#24 = VERTEX_POINT('',#25);
#25 = CARTESIAN_POINT('',(-2.75,4.763139720814,0.));
#26 = SURFACE_CURVE('',#27,(#31,#43),.PCURVE_S1.);
#27 = LINE('',#28,#29);
#28 = CARTESIAN_POINT('',(5.5,0.,0.));
#29 = VECTOR('',#30,1.);
#30 = DIRECTION('',(-0.866025403784,0.5,0.));
#31 = PCURVE('',#32,#37);
#32 = PLANE('',#33);
#33 = AXIS2_PLACEMENT_3D('',#34,#35,#36);
#34 = CARTESIAN_POINT('',(5.5,0.,0.));
#35 = DIRECTION('',(-0.5,-0.866025403784,0.));
#36 = DIRECTION('',(-0.866025403784,0.5,0.));
#37 = DEFINITIONAL_REPRESENTATION('',(#38),#42);
#38 = LINE('',#39,#40);
#39 = CARTESIAN_POINT('',(0.,0.));
#40 = VECTOR('',#41,1.);
#41 = DIRECTION('',(1.,0.));
#42 = ( GEOMETRIC_REPRESENTATION_CONTEXT(2) 
PARAMETRIC_REPRESENTATION_CONTEXT() REPRESENTATION_CONTEXT('2D SPACE',''
  ) );
#43 = PCURVE('',#44,#49);
#44 = PLANE('',#45);
#45 = AXIS2_PLACEMENT_3D('',#46,#47,#48);
#46 = CARTESIAN_POINT('',(-6.215636966088E-16,5.289030611427E-16,0.));
#47 = DIRECTION('',(0.,0.,1.));
#48 = DIRECTION('',(1.,0.,-0.));
#49 = DEFINITIONAL_REPRESENTATION('',(#50),#54);
#50 = LINE('',#51,#52);
#51 = CARTESIAN_POINT('',(5.5,-5.289030611427E-16));
#52 = VECTOR('',#53,1.);
#53 = DIRECTION('',(-0.866025403784,0.5));
#54 = ( GEOMETRIC_REPRESENTATION_CONTEXT(2) 
PARAMETRIC_REPRESENTATION_CONTEXT() REPRESENTATION_CONTEXT('2D SPACE',''
  ) );
#55 = ORIENTED_EDGE('',*,*,#56,.T.);
#56 = EDGE_CURVE('',#22,#57,#59,.T.);
#57 = VERTEX_POINT('',#58);
#58 = CARTESIAN_POINT('',(5.5,0.,20.));
#59 = SURFACE_CURVE('',#60,(#64,#71),.PCURVE_S1.);
#60 = LINE('',#61,#62);
#61 = CARTESIAN_POINT('',(5.5,0.,0.));
#62 = VECTOR('',#63,1.);
#63 = DIRECTION('',(0.,0.,1.));
#64 = PCURVE('',#32,#65);
#65 = DEFINITIONAL_REPRESENTATION('',(#66),#70);
#66 = LINE('',#67,#68);
#67 = CARTESIAN_POINT('',(0.,0.));
#68 = VECTOR('',#69,1.);
#69 = DIRECTION('',(0.,-1.));
#70 = ( GEOMETRIC_REPRESENTATION_CONTEXT(2) 
PARAMETRIC_REPRESENTATION_CONTEXT() REPRESENTATION_CONTEXT('2D SPACE',''
  ) );
#71 = PCURVE('',#72,#77);
#72 = PLANE('',#73);
#73 = AXIS2_PLACEMENT_3D('',#74,#75,#76);
#74 = CARTESIAN_POINT('',(-2.75,-4.763139720814,0.));
#75 = DIRECTION('',(-0.5,0.866025403784,0.));
#76 = DIRECTION('',(0.866025403784,0.5,0.));
#77 = DEFINITIONAL_REPRESENTATION('',(#78),#82);
#78 = LINE('',#79,#80);
#79 = CARTESIAN_POINT('',(9.526279441629,0.));
#80 = VECTOR('',#81,1.);
#81 = DIRECTION('',(0.,-1.));
#82 = ( GEOMETRIC_REPRESENTATION_CONTEXT(2) 
PARAMETRIC_REPRESENTATION_CONTEXT() REPRESENTATION_CONTEXT('2D SPACE',''
  ) );
#83 = ORIENTED_EDGE('',*,*,#84,.T.);
#84 = EDGE_CURVE('',#57,#85,#87,.T.);
#85 = VERTEX_POINT('',#86);
#86 = CARTESIAN_POINT('',(4.939407384124,0.323658297682,20.));
#87 = SURFACE_CURVE('',#88,(#92,#99),.PCURVE_S1.);
#88 = LINE('',#89,#90);
#89 = CARTESIAN_POINT('',(5.5,0.,20.));
#90 = VECTOR('',#91,1.);
#91 = DIRECTION('',(-0.866025403784,0.5,0.));
#92 = PCURVE('',#32,#93);
#93 = DEFINITIONAL_REPRESENTATION('',(#94),#98);
#94 = LINE('',#95,#96);
#95 = CARTESIAN_POINT('',(0.,-20.));
#96 = VECTOR('',#97,1.);
#97 = DIRECTION('',(1.,0.));
#98 = ( GEOMETRIC_REPRESENTATION_CONTEXT(2) 
PARAMETRIC_REPRESENTATION_CONTEXT() REPRESENTATION_CONTEXT('2D SPACE',''
  ) );
#99 = PCURVE('',#100,#105);
#100 = PLANE('',#101);
#101 = AXIS2_PLACEMENT_3D('',#102,#103,#104);
#102 = CARTESIAN_POINT('',(-6.215636966088E-16,5.289030611427E-16,20.));
#103 = DIRECTION('',(0.,0.,1.));
#104 = DIRECTION('',(1.,0.,-0.));
#105 = DEFINITIONAL_REPRESENTATION('',(#106),#110);
#106 = LINE('',#107,#108);
#107 = CARTESIAN_POINT('',(5.5,-5.289030611427E-16));
#108 = VECTOR('',#109,1.);
#109 = DIRECTION('',(-0.866025403784,0.5));
#110 = ( GEOMETRIC_REPRESENTATION_CONTEXT(2) 
PARAMETRIC_REPRESENTATION_CONTEXT() REPRESENTATION_CONTEXT('2D SPACE',''
  ) );
#111 = ORIENTED_EDGE('',*,*,#112,.F.);
#112 = EDGE_CURVE('',#113,#85,#115,.T.);
#113 = VERTEX_POINT('',#114);
#114 = CARTESIAN_POINT('',(-2.189407384124,4.439481423133,20.));
#115 = SURFACE_CURVE('',#116,(#121,#128),.PCURVE_S1.);
#116 = CIRCLE('',#117,4.115823125451);
#117 = AXIS2_PLACEMENT_3D('',#118,#119,#120);
#118 = CARTESIAN_POINT('',(1.375,2.381569860407,20.));
#119 = DIRECTION('',(-0.5,-0.866025403784,0.));
#120 = DIRECTION('',(0.866025403784,-0.5,0.));
#121 = PCURVE('',#32,#122);
#122 = DEFINITIONAL_REPRESENTATION('',(#123),#127);
#123 = CIRCLE('',#124,4.115823125451);
#124 = AXIS2_PLACEMENT_2D('',#125,#126);
#125 = CARTESIAN_POINT('',(4.763139720814,-20.));
#126 = DIRECTION('',(-1.,-0.));
#127 = ( GEOMETRIC_REPRESENTATION_CONTEXT(2) 
PARAMETRIC_REPRESENTATION_CONTEXT() REPRESENTATION_CONTEXT('2D SPACE',''
  ) );
#128 = PCURVE('',#129,#134);
#129 = SPHERICAL_SURFACE('',#130,4.95);
#130 = AXIS2_PLACEMENT_3D('',#131,#132,#133);
#131 = CARTESIAN_POINT('',(0.,0.,20.));
#132 = DIRECTION('',(0.,0.,1.));
#133 = DIRECTION('',(1.,0.,0.));
#134 = DEFINITIONAL_REPRESENTATION('',(#135),#194);
#135 = B_SPLINE_CURVE_WITH_KNOTS('',8,(#136,#137,#138,#139,#140,#141,
    #142,#143,#144,#145,#146,#147,#148,#149,#150,#151,#152,#153,#154,
    #155,#156,#157,#158,#159,#160,#161,#162,#163,#164,#165,#166,#167,
    #168,#169,#170,#171,#172,#173,#174,#175,#176,#177,#178,#179,#180,
    #181,#182,#183,#184,#185,#186,#187,#188,#189,#190,#191,#192,#193),
  .UNSPECIFIED.,.F.,.F.,(9,7,7,7,7,7,7,7,9),(3.14159265359,
    3.926990816987,4.221515128261,4.479223900626,4.704719076445,
    5.099335634129,5.395298052392,5.839241679786,6.28318530718),
  .UNSPECIFIED.);
#136 = CARTESIAN_POINT('',(2.028962907775,0.));
#137 = CARTESIAN_POINT('',(2.028962907775,-8.163030110097E-02));
#138 = CARTESIAN_POINT('',(2.023874994699,-0.16326063694));
#139 = CARTESIAN_POINT('',(2.013696017693,-0.244520689864));
#140 = CARTESIAN_POINT('',(1.998109247651,-0.325041500095));
#141 = CARTESIAN_POINT('',(1.976424175945,-0.404391124161));
#142 = CARTESIAN_POINT('',(1.947620828984,-0.482023603946));
#143 = CARTESIAN_POINT('',(1.909921420811,-0.557157955626));
#144 = CARTESIAN_POINT('',(1.842534479698,-0.655274822908));
#145 = CARTESIAN_POINT('',(1.822566058358,-0.681502927557));
#146 = CARTESIAN_POINT('',(1.800879828752,-0.707132424043));
#147 = CARTESIAN_POINT('',(1.777337856185,-0.732086456143));
#148 = CARTESIAN_POINT('',(1.751790374975,-0.756276224023));
#149 = CARTESIAN_POINT('',(1.724081839691,-0.779599222335));
#150 = CARTESIAN_POINT('',(1.694064567494,-0.801938370984));
#151 = CARTESIAN_POINT('',(1.633230950193,-0.841732747719));
#152 = CARTESIAN_POINT('',(1.60298363955,-0.859449456912));
#153 = CARTESIAN_POINT('',(1.570798820027,-0.87622410916));
#154 = CARTESIAN_POINT('',(1.536616118011,-0.8919606321));
#155 = CARTESIAN_POINT('',(1.500404249312,-0.906555398326));
#156 = CARTESIAN_POINT('',(1.462181890307,-0.919899862157));
#157 = CARTESIAN_POINT('',(1.422037975954,-0.931885863409));
#158 = CARTESIAN_POINT('',(1.343479690713,-0.951626285768));
#159 = CARTESIAN_POINT('',(1.305476397457,-0.959722313123));
#160 = CARTESIAN_POINT('',(1.266242414846,-0.966635878972));
#161 = CARTESIAN_POINT('',(1.22593575069,-0.972305031183));
#162 = CARTESIAN_POINT('',(1.184763976617,-0.976677652898));
#163 = CARTESIAN_POINT('',(1.142977957173,-0.979715645023));
#164 = CARTESIAN_POINT('',(1.100855681213,-0.981397795568));
#165 = CARTESIAN_POINT('',(0.984862095707,-0.982287531287));
#166 = CARTESIAN_POINT('',(0.910873399164,-0.978692762834));
#167 = CARTESIAN_POINT('',(0.838206371354,-0.970921369361));
#168 = CARTESIAN_POINT('',(0.768396544035,-0.959121266624));
#169 = CARTESIAN_POINT('',(0.70262316125,-0.943621873926));
#170 = CARTESIAN_POINT('',(0.64140052528,-0.924819209307));
#171 = CARTESIAN_POINT('',(0.584908021326,-0.903105829375));
#172 = CARTESIAN_POINT('',(0.494199022336,-0.860654936218));
#173 = CARTESIAN_POINT('',(0.457944515596,-0.841030441582));
#174 = CARTESIAN_POINT('',(0.424281865923,-0.820129545824));
#175 = CARTESIAN_POINT('',(0.393107582933,-0.798097256345));
#176 = CARTESIAN_POINT('',(0.364280024976,-0.775064382355));
#177 = CARTESIAN_POINT('',(0.337644899582,-0.751145791793));
#178 = CARTESIAN_POINT('',(0.313049846715,-0.726441277138));
#179 = CARTESIAN_POINT('',(0.256295492023,-0.662935659632));
#180 = CARTESIAN_POINT('',(0.22650311325,-0.62326220779));
#181 = CARTESIAN_POINT('',(0.200476274013,-0.582315310967));
#182 = CARTESIAN_POINT('',(0.177758112122,-0.540327588393));
#183 = CARTESIAN_POINT('',(0.157969068086,-0.497483182183));
#184 = CARTESIAN_POINT('',(0.140802862905,-0.453931401089));
#185 = CARTESIAN_POINT('',(0.126008689972,-0.409797156809));
#186 = CARTESIAN_POINT('',(0.100769965556,-0.320576606477));
#187 = CARTESIAN_POINT('',(9.032533114537E-02,-0.275490347347));
#188 = CARTESIAN_POINT('',(8.185753588946E-02,-0.230034477596));
#189 = CARTESIAN_POINT('',(7.522016465515E-02,-0.18429769175));
#190 = CARTESIAN_POINT('',(7.030936826125E-02,-0.138356973784));
#191 = CARTESIAN_POINT('',(6.705791405421E-02,-9.22824674564E-02));
#192 = CARTESIAN_POINT('',(6.543219461798E-02,-4.61412486875E-02));
#193 = CARTESIAN_POINT('',(6.543219461798E-02,0.));
#194 = ( GEOMETRIC_REPRESENTATION_CONTEXT(2) 
PARAMETRIC_REPRESENTATION_CONTEXT() REPRESENTATION_CONTEXT('2D SPACE',''
  ) );
#195 = ORIENTED_EDGE('',*,*,#196,.T.);
#196 = EDGE_CURVE('',#113,#197,#199,.T.);
#197 = VERTEX_POINT('',#198);
#198 = CARTESIAN_POINT('',(-2.75,4.763139720814,20.));
#199 = SURFACE_CURVE('',#200,(#204,#211),.PCURVE_S1.);
#200 = LINE('',#201,#202);
#201 = CARTESIAN_POINT('',(5.5,0.,20.));
#202 = VECTOR('',#203,1.);
#203 = DIRECTION('',(-0.866025403784,0.5,0.));
#204 = PCURVE('',#32,#205);
#205 = DEFINITIONAL_REPRESENTATION('',(#206),#210);
#206 = LINE('',#207,#208);
#207 = CARTESIAN_POINT('',(0.,-20.));
#208 = VECTOR('',#209,1.);
#209 = DIRECTION('',(1.,0.));
#210 = ( GEOMETRIC_REPRESENTATION_CONTEXT(2) 
PARAMETRIC_REPRESENTATION_CONTEXT() REPRESENTATION_CONTEXT('2D SPACE',''
  ) );
#211 = PCURVE('',#212,#217);
#212 = PLANE('',#213);
#213 = AXIS2_PLACEMENT_3D('',#214,#215,#216);
#214 = CARTESIAN_POINT('',(-6.215636966088E-16,5.289030611427E-16,20.));
#215 = DIRECTION('',(0.,0.,1.));
#216 = DIRECTION('',(1.,0.,-0.));
#217 = DEFINITIONAL_REPRESENTATION('',(#218),#222);
#218 = LINE('',#219,#220);
#219 = CARTESIAN_POINT('',(5.5,-5.289030611427E-16));
#220 = VECTOR('',#221,1.);
#221 = DIRECTION('',(-0.866025403784,0.5));
#222 = ( GEOMETRIC_REPRESENTATION_CONTEXT(2) 
PARAMETRIC_REPRESENTATION_CONTEXT() REPRESENTATION_CONTEXT('2D SPACE',''
  ) );
#223 = ORIENTED_EDGE('',*,*,#224,.F.);
#224 = EDGE_CURVE('',#24,#197,#225,.T.);
#225 = SURFACE_CURVE('',#226,(#230,#237),.PCURVE_S1.);
#226 = LINE('',#227,#228);
#227 = CARTESIAN_POINT('',(-2.75,4.763139720814,0.));
#228 = VECTOR('',#229,1.);
#229 = DIRECTION('',(0.,0.,1.));
#230 = PCURVE('',#32,#231);
#231 = DEFINITIONAL_REPRESENTATION('',(#232),#236);
#232 = LINE('',#233,#234);
#233 = CARTESIAN_POINT('',(9.526279441629,0.));
#234 = VECTOR('',#235,1.);
#235 = DIRECTION('',(0.,-1.));
#236 = ( GEOMETRIC_REPRESENTATION_CONTEXT(2) 
PARAMETRIC_REPRESENTATION_CONTEXT() REPRESENTATION_CONTEXT('2D SPACE',''
  ) );
#237 = PCURVE('',#238,#243);
#238 = PLANE('',#239);
#239 = AXIS2_PLACEMENT_3D('',#240,#241,#242);
#240 = CARTESIAN_POINT('',(-2.75,4.763139720814,0.));
#241 = DIRECTION('',(1.,-3.729382179653E-16,0.));
#242 = DIRECTION('',(-3.729382179653E-16,-1.,0.));
#243 = DEFINITIONAL_REPRESENTATION('',(#244),#248);
#244 = LINE('',#245,#246);
#245 = CARTESIAN_POINT('',(0.,0.));
#246 = VECTOR('',#247,1.);
#247 = DIRECTION('',(0.,-1.));
#248 = ( GEOMETRIC_REPRESENTATION_CONTEXT(2) 
PARAMETRIC_REPRESENTATION_CONTEXT() REPRESENTATION_CONTEXT('2D SPACE',''
  ) );
#249 = ADVANCED_FACE('',(#250),#44,.F.);
#250 = FACE_BOUND('',#251,.F.);
#251 = EDGE_LOOP('',(#252,#253,#276));
#252 = ORIENTED_EDGE('',*,*,#21,.T.);
#253 = ORIENTED_EDGE('',*,*,#254,.T.);
#254 = EDGE_CURVE('',#24,#255,#257,.T.);
#255 = VERTEX_POINT('',#256);
#256 = CARTESIAN_POINT('',(-2.75,-4.763139720814,0.));
#257 = SURFACE_CURVE('',#258,(#262,#269),.PCURVE_S1.);
#258 = LINE('',#259,#260);
#259 = CARTESIAN_POINT('',(-2.75,4.763139720814,0.));
#260 = VECTOR('',#261,1.);
#261 = DIRECTION('',(-3.729382179653E-16,-1.,0.));
#262 = PCURVE('',#44,#263);
#263 = DEFINITIONAL_REPRESENTATION('',(#264),#268);
#264 = LINE('',#265,#266);
#265 = CARTESIAN_POINT('',(-2.75,4.763139720814));
#266 = VECTOR('',#267,1.);
#267 = DIRECTION('',(-3.729382179653E-16,-1.));
#268 = ( GEOMETRIC_REPRESENTATION_CONTEXT(2) 
PARAMETRIC_REPRESENTATION_CONTEXT() REPRESENTATION_CONTEXT('2D SPACE',''
  ) );
#269 = PCURVE('',#238,#270);
#270 = DEFINITIONAL_REPRESENTATION('',(#271),#275);
#271 = LINE('',#272,#273);
#272 = CARTESIAN_POINT('',(0.,0.));
#273 = VECTOR('',#274,1.);
#274 = DIRECTION('',(1.,0.));
#275 = ( GEOMETRIC_REPRESENTATION_CONTEXT(2) 
PARAMETRIC_REPRESENTATION_CONTEXT() REPRESENTATION_CONTEXT('2D SPACE',''
  ) );
#276 = ORIENTED_EDGE('',*,*,#277,.T.);
#277 = EDGE_CURVE('',#255,#22,#278,.T.);
#278 = SURFACE_CURVE('',#279,(#283,#290),.PCURVE_S1.);
#279 = LINE('',#280,#281);
#280 = CARTESIAN_POINT('',(-2.75,-4.763139720814,0.));
#281 = VECTOR('',#282,1.);
#282 = DIRECTION('',(0.866025403784,0.5,0.));
#283 = PCURVE('',#44,#284);
#284 = DEFINITIONAL_REPRESENTATION('',(#285),#289);
#285 = LINE('',#286,#287);
#286 = CARTESIAN_POINT('',(-2.75,-4.763139720814));
#287 = VECTOR('',#288,1.);
#288 = DIRECTION('',(0.866025403784,0.5));
#289 = ( GEOMETRIC_REPRESENTATION_CONTEXT(2) 
PARAMETRIC_REPRESENTATION_CONTEXT() REPRESENTATION_CONTEXT('2D SPACE',''
  ) );
#290 = PCURVE('',#72,#291);
#291 = DEFINITIONAL_REPRESENTATION('',(#292),#296);
#292 = LINE('',#293,#294);
#293 = CARTESIAN_POINT('',(0.,0.));
#294 = VECTOR('',#295,1.);
#295 = DIRECTION('',(1.,0.));
#296 = ( GEOMETRIC_REPRESENTATION_CONTEXT(2) 
PARAMETRIC_REPRESENTATION_CONTEXT() REPRESENTATION_CONTEXT('2D SPACE',''
  ) );
#297 = ADVANCED_FACE('',(#298),#238,.F.);
#298 = FACE_BOUND('',#299,.F.);
#299 = EDGE_LOOP('',(#300,#301,#302,#325,#404,#432));
#300 = ORIENTED_EDGE('',*,*,#254,.F.);
#301 = ORIENTED_EDGE('',*,*,#224,.T.);
#302 = ORIENTED_EDGE('',*,*,#303,.T.);
#303 = EDGE_CURVE('',#197,#304,#306,.T.);
#304 = VERTEX_POINT('',#305);
#305 = CARTESIAN_POINT('',(-2.75,4.115823125451,20.));
#306 = SURFACE_CURVE('',#307,(#311,#318),.PCURVE_S1.);
#307 = LINE('',#308,#309);
#308 = CARTESIAN_POINT('',(-2.75,4.763139720814,20.));
#309 = VECTOR('',#310,1.);
#310 = DIRECTION('',(-3.729382179653E-16,-1.,0.));
#311 = PCURVE('',#238,#312);
#312 = DEFINITIONAL_REPRESENTATION('',(#313),#317);
#313 = LINE('',#314,#315);
#314 = CARTESIAN_POINT('',(0.,-20.));
#315 = VECTOR('',#316,1.);
#316 = DIRECTION('',(1.,0.));
#317 = ( GEOMETRIC_REPRESENTATION_CONTEXT(2) 
PARAMETRIC_REPRESENTATION_CONTEXT() REPRESENTATION_CONTEXT('2D SPACE',''
  ) );
#318 = PCURVE('',#212,#319);
#319 = DEFINITIONAL_REPRESENTATION('',(#320),#324);
#320 = LINE('',#321,#322);
#321 = CARTESIAN_POINT('',(-2.75,4.763139720814));
#322 = VECTOR('',#323,1.);
#323 = DIRECTION('',(-3.729382179653E-16,-1.));
#324 = ( GEOMETRIC_REPRESENTATION_CONTEXT(2) 
PARAMETRIC_REPRESENTATION_CONTEXT() REPRESENTATION_CONTEXT('2D SPACE',''
  ) );
#325 = ORIENTED_EDGE('',*,*,#326,.F.);
#326 = EDGE_CURVE('',#327,#304,#329,.T.);
#327 = VERTEX_POINT('',#328);
#328 = CARTESIAN_POINT('',(-2.75,-4.115823125451,20.));
#329 = SURFACE_CURVE('',#330,(#335,#342),.PCURVE_S1.);
#330 = CIRCLE('',#331,4.115823125451);
#331 = AXIS2_PLACEMENT_3D('',#332,#333,#334);
#332 = CARTESIAN_POINT('',(-2.75,1.025580099405E-15,20.));
#333 = DIRECTION('',(1.,-3.729382179653E-16,0.));
#334 = DIRECTION('',(3.729382179653E-16,1.,0.));
#335 = PCURVE('',#238,#336);
#336 = DEFINITIONAL_REPRESENTATION('',(#337),#341);
#337 = CIRCLE('',#338,4.115823125451);
#338 = AXIS2_PLACEMENT_2D('',#339,#340);
#339 = CARTESIAN_POINT('',(4.763139720814,-20.));
#340 = DIRECTION('',(-1.,0.));
#341 = ( GEOMETRIC_REPRESENTATION_CONTEXT(2) 
PARAMETRIC_REPRESENTATION_CONTEXT() REPRESENTATION_CONTEXT('2D SPACE',''
  ) );
#342 = PCURVE('',#129,#343);
#343 = DEFINITIONAL_REPRESENTATION('',(#344),#403);
#344 = B_SPLINE_CURVE_WITH_KNOTS('',8,(#345,#346,#347,#348,#349,#350,
    #351,#352,#353,#354,#355,#356,#357,#358,#359,#360,#361,#362,#363,
    #364,#365,#366,#367,#368,#369,#370,#371,#372,#373,#374,#375,#376,
    #377,#378,#379,#380,#381,#382,#383,#384,#385,#386,#387,#388,#389,
    #390,#391,#392,#393,#394,#395,#396,#397,#398,#399,#400,#401,#402),
  .UNSPECIFIED.,.F.,.F.,(9,7,7,7,7,7,7,7,9),(3.14159265359,
    3.926990816987,4.221515128261,4.479223900626,4.704719076445,
    5.099335634129,5.395298052392,5.839241679786,6.28318530718),
  .UNSPECIFIED.);
#345 = CARTESIAN_POINT('',(4.123358010168,0.));
#346 = CARTESIAN_POINT('',(4.123358010168,-8.163030110097E-02));
#347 = CARTESIAN_POINT('',(4.118270097088,-0.16326063694));
#348 = CARTESIAN_POINT('',(4.10809112009,-0.244520689865));
#349 = CARTESIAN_POINT('',(4.092504350018,-0.325041500094));
#350 = CARTESIAN_POINT('',(4.070819278348,-0.404391124162));
#351 = CARTESIAN_POINT('',(4.042015931373,-0.482023603945));
#352 = CARTESIAN_POINT('',(4.004316523205,-0.557157955626));
#353 = CARTESIAN_POINT('',(3.936929582091,-0.655274822908));
#354 = CARTESIAN_POINT('',(3.916961160751,-0.681502927557));
#355 = CARTESIAN_POINT('',(3.895274931145,-0.707132424043));
#356 = CARTESIAN_POINT('',(3.871732958578,-0.732086456143));
#357 = CARTESIAN_POINT('',(3.846185477369,-0.756276224023));
#358 = CARTESIAN_POINT('',(3.818476942084,-0.779599222335));
#359 = CARTESIAN_POINT('',(3.788459669888,-0.801938370984));
#360 = CARTESIAN_POINT('',(3.727626052586,-0.841732747719));
#361 = CARTESIAN_POINT('',(3.697378741943,-0.859449456912));
#362 = CARTESIAN_POINT('',(3.665193922421,-0.87622410916));
#363 = CARTESIAN_POINT('',(3.631011220404,-0.8919606321));
#364 = CARTESIAN_POINT('',(3.594799351705,-0.906555398326));
#365 = CARTESIAN_POINT('',(3.556576992701,-0.919899862157));
#366 = CARTESIAN_POINT('',(3.516433078347,-0.931885863409));
#367 = CARTESIAN_POINT('',(3.437874793106,-0.951626285768));
#368 = CARTESIAN_POINT('',(3.39987149985,-0.959722313123));
#369 = CARTESIAN_POINT('',(3.360637517239,-0.966635878972));
#370 = CARTESIAN_POINT('',(3.320330853083,-0.972305031183));
#371 = CARTESIAN_POINT('',(3.27915907901,-0.976677652898));
#372 = CARTESIAN_POINT('',(3.237373059566,-0.979715645023));
#373 = CARTESIAN_POINT('',(3.195250783606,-0.981397795568));
#374 = CARTESIAN_POINT('',(3.0792571981,-0.982287531287));
#375 = CARTESIAN_POINT('',(3.005268501554,-0.978692762833));
#376 = CARTESIAN_POINT('',(2.932601473758,-0.970921369364));
#377 = CARTESIAN_POINT('',(2.86279164641,-0.959121266619));
#378 = CARTESIAN_POINT('',(2.797018263655,-0.94362187393));
#379 = CARTESIAN_POINT('',(2.73579562767,-0.924819209307));
#380 = CARTESIAN_POINT('',(2.67930312372,-0.903105829375));
#381 = CARTESIAN_POINT('',(2.588594124729,-0.860654936218));
#382 = CARTESIAN_POINT('',(2.552339617989,-0.841030441582));
#383 = CARTESIAN_POINT('',(2.518676968316,-0.820129545824));
#384 = CARTESIAN_POINT('',(2.487502685327,-0.798097256345));
#385 = CARTESIAN_POINT('',(2.45867512737,-0.775064382355));
#386 = CARTESIAN_POINT('',(2.432040001975,-0.751145791793));
#387 = CARTESIAN_POINT('',(2.407444949108,-0.726441277138));
#388 = CARTESIAN_POINT('',(2.350690594416,-0.662935659632));
#389 = CARTESIAN_POINT('',(2.320898215644,-0.62326220779));
#390 = CARTESIAN_POINT('',(2.294871376406,-0.582315310967));
#391 = CARTESIAN_POINT('',(2.272153214515,-0.540327588393));
#392 = CARTESIAN_POINT('',(2.252364170479,-0.497483182183));
#393 = CARTESIAN_POINT('',(2.235197965299,-0.453931401089));
#394 = CARTESIAN_POINT('',(2.220403792366,-0.409797156809));
#395 = CARTESIAN_POINT('',(2.195165067949,-0.320576606477));
#396 = CARTESIAN_POINT('',(2.184720433539,-0.275490347347));
#397 = CARTESIAN_POINT('',(2.176252638283,-0.230034477596));
#398 = CARTESIAN_POINT('',(2.169615267048,-0.18429769175));
#399 = CARTESIAN_POINT('',(2.164704470654,-0.138356973784));
#400 = CARTESIAN_POINT('',(2.161453016447,-9.22824674564E-02));
#401 = CARTESIAN_POINT('',(2.159827297011,-4.61412486875E-02));
#402 = CARTESIAN_POINT('',(2.159827297011,0.));
#403 = ( GEOMETRIC_REPRESENTATION_CONTEXT(2) 
PARAMETRIC_REPRESENTATION_CONTEXT() REPRESENTATION_CONTEXT('2D SPACE',''
  ) );
#404 = ORIENTED_EDGE('',*,*,#405,.T.);
#405 = EDGE_CURVE('',#327,#406,#408,.T.);
#406 = VERTEX_POINT('',#407);
#407 = CARTESIAN_POINT('',(-2.75,-4.763139720814,20.));
#408 = SURFACE_CURVE('',#409,(#413,#420),.PCURVE_S1.);
#409 = LINE('',#410,#411);
#410 = CARTESIAN_POINT('',(-2.75,4.763139720814,20.));
#411 = VECTOR('',#412,1.);
#412 = DIRECTION('',(-3.729382179653E-16,-1.,0.));
#413 = PCURVE('',#238,#414);
#414 = DEFINITIONAL_REPRESENTATION('',(#415),#419);
#415 = LINE('',#416,#417);
#416 = CARTESIAN_POINT('',(0.,-20.));
#417 = VECTOR('',#418,1.);
#418 = DIRECTION('',(1.,0.));
#419 = ( GEOMETRIC_REPRESENTATION_CONTEXT(2) 
PARAMETRIC_REPRESENTATION_CONTEXT() REPRESENTATION_CONTEXT('2D SPACE',''
  ) );
#420 = PCURVE('',#421,#426);
#421 = PLANE('',#422);
#422 = AXIS2_PLACEMENT_3D('',#423,#424,#425);
#423 = CARTESIAN_POINT('',(-6.215636966088E-16,5.289030611427E-16,20.));
#424 = DIRECTION('',(0.,0.,1.));
#425 = DIRECTION('',(1.,0.,-0.));
#426 = DEFINITIONAL_REPRESENTATION('',(#427),#431);
#427 = LINE('',#428,#429);
#428 = CARTESIAN_POINT('',(-2.75,4.763139720814));
#429 = VECTOR('',#430,1.);
#430 = DIRECTION('',(-3.729382179653E-16,-1.));
#431 = ( GEOMETRIC_REPRESENTATION_CONTEXT(2) 
PARAMETRIC_REPRESENTATION_CONTEXT() REPRESENTATION_CONTEXT('2D SPACE',''
  ) );
#432 = ORIENTED_EDGE('',*,*,#433,.F.);
#433 = EDGE_CURVE('',#255,#406,#434,.T.);
#434 = SURFACE_CURVE('',#435,(#439,#446),.PCURVE_S1.);
#435 = LINE('',#436,#437);
#436 = CARTESIAN_POINT('',(-2.75,-4.763139720814,0.));
#437 = VECTOR('',#438,1.);
#438 = DIRECTION('',(0.,0.,1.));
#439 = PCURVE('',#238,#440);
#440 = DEFINITIONAL_REPRESENTATION('',(#441),#445);
#441 = LINE('',#442,#443);
#442 = CARTESIAN_POINT('',(9.526279441629,0.));
#443 = VECTOR('',#444,1.);
#444 = DIRECTION('',(0.,-1.));
#445 = ( GEOMETRIC_REPRESENTATION_CONTEXT(2) 
PARAMETRIC_REPRESENTATION_CONTEXT() REPRESENTATION_CONTEXT('2D SPACE',''
  ) );
#446 = PCURVE('',#72,#447);
#447 = DEFINITIONAL_REPRESENTATION('',(#448),#452);
#448 = LINE('',#449,#450);
#449 = CARTESIAN_POINT('',(0.,0.));
#450 = VECTOR('',#451,1.);
#451 = DIRECTION('',(0.,-1.));
#452 = ( GEOMETRIC_REPRESENTATION_CONTEXT(2) 
PARAMETRIC_REPRESENTATION_CONTEXT() REPRESENTATION_CONTEXT('2D SPACE',''
  ) );
#453 = ADVANCED_FACE('',(#454),#212,.T.);
#454 = FACE_BOUND('',#455,.T.);
#455 = EDGE_LOOP('',(#456,#478,#479));
#456 = ORIENTED_EDGE('',*,*,#457,.F.);
#457 = EDGE_CURVE('',#113,#304,#458,.T.);
#458 = SURFACE_CURVE('',#459,(#464,#471),.PCURVE_S1.);
#459 = CIRCLE('',#460,4.95);
#460 = AXIS2_PLACEMENT_3D('',#461,#462,#463);
#461 = CARTESIAN_POINT('',(0.,0.,20.));
#462 = DIRECTION('',(0.,0.,1.));
#463 = DIRECTION('',(1.,0.,-0.));
#464 = PCURVE('',#212,#465);
#465 = DEFINITIONAL_REPRESENTATION('',(#466),#470);
#466 = CIRCLE('',#467,4.95);
#467 = AXIS2_PLACEMENT_2D('',#468,#469);
#468 = CARTESIAN_POINT('',(6.215636966088E-16,-5.289030611427E-16));
#469 = DIRECTION('',(1.,0.));
#470 = ( GEOMETRIC_REPRESENTATION_CONTEXT(2) 
PARAMETRIC_REPRESENTATION_CONTEXT() REPRESENTATION_CONTEXT('2D SPACE',''
  ) );
#471 = PCURVE('',#129,#472);
#472 = DEFINITIONAL_REPRESENTATION('',(#473),#477);
#473 = LINE('',#474,#475);
#474 = CARTESIAN_POINT('',(0.,0.));
#475 = VECTOR('',#476,1.);
#476 = DIRECTION('',(1.,0.));
#477 = ( GEOMETRIC_REPRESENTATION_CONTEXT(2) 
PARAMETRIC_REPRESENTATION_CONTEXT() REPRESENTATION_CONTEXT('2D SPACE',''
  ) );
#478 = ORIENTED_EDGE('',*,*,#196,.T.);
#479 = ORIENTED_EDGE('',*,*,#303,.T.);
#480 = ADVANCED_FACE('',(#481),#129,.T.);
#481 = FACE_BOUND('',#482,.T.);
#482 = EDGE_LOOP('',(#483,#509,#510,#532,#533,#534,#535,#559,#638));
#483 = ORIENTED_EDGE('',*,*,#484,.T.);
#484 = EDGE_CURVE('',#485,#487,#489,.T.);
#485 = VERTEX_POINT('',#486);
#486 = CARTESIAN_POINT('',(4.95,-1.212400331156E-15,20.));
#487 = VERTEX_POINT('',#488);
#488 = CARTESIAN_POINT('',(3.03100082789E-16,-7.423810924176E-32,24.95)
  );
#489 = SEAM_CURVE('',#490,(#495,#502),.PCURVE_S1.);
#490 = CIRCLE('',#491,4.95);
#491 = AXIS2_PLACEMENT_3D('',#492,#493,#494);
#492 = CARTESIAN_POINT('',(0.,0.,20.));
#493 = DIRECTION('',(-2.449293598295E-16,-1.,0.));
#494 = DIRECTION('',(1.,-2.449293598295E-16,0.));
#495 = PCURVE('',#129,#496);
#496 = DEFINITIONAL_REPRESENTATION('',(#497),#501);
#497 = LINE('',#498,#499);
#498 = CARTESIAN_POINT('',(6.28318530718,-6.28318530718));
#499 = VECTOR('',#500,1.);
#500 = DIRECTION('',(0.,1.));
#501 = ( GEOMETRIC_REPRESENTATION_CONTEXT(2) 
PARAMETRIC_REPRESENTATION_CONTEXT() REPRESENTATION_CONTEXT('2D SPACE',''
  ) );
#502 = PCURVE('',#129,#503);
#503 = DEFINITIONAL_REPRESENTATION('',(#504),#508);
#504 = LINE('',#505,#506);
#505 = CARTESIAN_POINT('',(0.,-6.28318530718));
#506 = VECTOR('',#507,1.);
#507 = DIRECTION('',(0.,1.));
#508 = ( GEOMETRIC_REPRESENTATION_CONTEXT(2) 
PARAMETRIC_REPRESENTATION_CONTEXT() REPRESENTATION_CONTEXT('2D SPACE',''
  ) );
#509 = ORIENTED_EDGE('',*,*,#484,.F.);
#510 = ORIENTED_EDGE('',*,*,#511,.T.);
#511 = EDGE_CURVE('',#485,#85,#512,.T.);
#512 = SURFACE_CURVE('',#513,(#518,#525),.PCURVE_S1.);
#513 = CIRCLE('',#514,4.95);
#514 = AXIS2_PLACEMENT_3D('',#515,#516,#517);
#515 = CARTESIAN_POINT('',(0.,0.,20.));
#516 = DIRECTION('',(0.,0.,1.));
#517 = DIRECTION('',(1.,0.,-0.));
#518 = PCURVE('',#129,#519);
#519 = DEFINITIONAL_REPRESENTATION('',(#520),#524);
#520 = LINE('',#521,#522);
#521 = CARTESIAN_POINT('',(0.,0.));
#522 = VECTOR('',#523,1.);
#523 = DIRECTION('',(1.,0.));
#524 = ( GEOMETRIC_REPRESENTATION_CONTEXT(2) 
PARAMETRIC_REPRESENTATION_CONTEXT() REPRESENTATION_CONTEXT('2D SPACE',''
  ) );
#525 = PCURVE('',#100,#526);
#526 = DEFINITIONAL_REPRESENTATION('',(#527),#531);
#527 = CIRCLE('',#528,4.95);
#528 = AXIS2_PLACEMENT_2D('',#529,#530);
#529 = CARTESIAN_POINT('',(6.215636966088E-16,-5.289030611427E-16));
#530 = DIRECTION('',(1.,0.));
#531 = ( GEOMETRIC_REPRESENTATION_CONTEXT(2) 
PARAMETRIC_REPRESENTATION_CONTEXT() REPRESENTATION_CONTEXT('2D SPACE',''
  ) );
#532 = ORIENTED_EDGE('',*,*,#112,.F.);
#533 = ORIENTED_EDGE('',*,*,#457,.T.);
#534 = ORIENTED_EDGE('',*,*,#326,.F.);
#535 = ORIENTED_EDGE('',*,*,#536,.T.);
#536 = EDGE_CURVE('',#327,#537,#539,.T.);
#537 = VERTEX_POINT('',#538);
#538 = CARTESIAN_POINT('',(-2.189407384124,-4.439481423133,20.));
#539 = SURFACE_CURVE('',#540,(#545,#552),.PCURVE_S1.);
#540 = CIRCLE('',#541,4.95);
#541 = AXIS2_PLACEMENT_3D('',#542,#543,#544);
#542 = CARTESIAN_POINT('',(0.,0.,20.));
#543 = DIRECTION('',(0.,0.,1.));
#544 = DIRECTION('',(1.,0.,-0.));
#545 = PCURVE('',#129,#546);
#546 = DEFINITIONAL_REPRESENTATION('',(#547),#551);
#547 = LINE('',#548,#549);
#548 = CARTESIAN_POINT('',(0.,0.));
#549 = VECTOR('',#550,1.);
#550 = DIRECTION('',(1.,0.));
#551 = ( GEOMETRIC_REPRESENTATION_CONTEXT(2) 
PARAMETRIC_REPRESENTATION_CONTEXT() REPRESENTATION_CONTEXT('2D SPACE',''
  ) );
#552 = PCURVE('',#421,#553);
#553 = DEFINITIONAL_REPRESENTATION('',(#554),#558);
#554 = CIRCLE('',#555,4.95);
#555 = AXIS2_PLACEMENT_2D('',#556,#557);
#556 = CARTESIAN_POINT('',(6.215636966088E-16,-5.289030611427E-16));
#557 = DIRECTION('',(1.,0.));
#558 = ( GEOMETRIC_REPRESENTATION_CONTEXT(2) 
PARAMETRIC_REPRESENTATION_CONTEXT() REPRESENTATION_CONTEXT('2D SPACE',''
  ) );
#559 = ORIENTED_EDGE('',*,*,#560,.F.);
#560 = EDGE_CURVE('',#561,#537,#563,.T.);
#561 = VERTEX_POINT('',#562);
#562 = CARTESIAN_POINT('',(4.939407384124,-0.323658297682,20.));
#563 = SURFACE_CURVE('',#564,(#569,#631),.PCURVE_S1.);
#564 = CIRCLE('',#565,4.115823125451);
#565 = AXIS2_PLACEMENT_3D('',#566,#567,#568);
#566 = CARTESIAN_POINT('',(1.375,-2.381569860407,20.));
#567 = DIRECTION('',(-0.5,0.866025403784,0.));
#568 = DIRECTION('',(-0.866025403784,-0.5,0.));
#569 = PCURVE('',#129,#570);
#570 = DEFINITIONAL_REPRESENTATION('',(#571),#630);
#571 = B_SPLINE_CURVE_WITH_KNOTS('',8,(#572,#573,#574,#575,#576,#577,
    #578,#579,#580,#581,#582,#583,#584,#585,#586,#587,#588,#589,#590,
    #591,#592,#593,#594,#595,#596,#597,#598,#599,#600,#601,#602,#603,
    #604,#605,#606,#607,#608,#609,#610,#611,#612,#613,#614,#615,#616,
    #617,#618,#619,#620,#621,#622,#623,#624,#625,#626,#627,#628,#629),
  .UNSPECIFIED.,.F.,.F.,(9,7,7,7,7,7,7,7,9),(3.14159265359,
    3.926990816987,4.221515128261,4.479223900626,4.704719076445,
    5.099335634129,5.395298052392,5.839241679786,6.28318530718),
  .UNSPECIFIED.);
#572 = CARTESIAN_POINT('',(6.217753112562,0.));
#573 = CARTESIAN_POINT('',(6.217753112562,-8.163030110097E-02));
#574 = CARTESIAN_POINT('',(6.212665199485,-0.16326063694));
#575 = CARTESIAN_POINT('',(6.202486222468,-0.244520689865));
#576 = CARTESIAN_POINT('',(6.18689945244,-0.325041500094));
#577 = CARTESIAN_POINT('',(6.165214380723,-0.404391124161));
#578 = CARTESIAN_POINT('',(6.136411033773,-0.482023603945));
#579 = CARTESIAN_POINT('',(6.098711625598,-0.557157955626));
#580 = CARTESIAN_POINT('',(6.031324684484,-0.655274822908));
#581 = CARTESIAN_POINT('',(6.011356263144,-0.681502927557));
#582 = CARTESIAN_POINT('',(5.989670033538,-0.707132424043));
#583 = CARTESIAN_POINT('',(5.966128060971,-0.732086456143));
#584 = CARTESIAN_POINT('',(5.940580579762,-0.756276224023));
#585 = CARTESIAN_POINT('',(5.912872044478,-0.779599222335));
#586 = CARTESIAN_POINT('',(5.882854772281,-0.801938370984));
#587 = CARTESIAN_POINT('',(5.822021154979,-0.841732747719));
#588 = CARTESIAN_POINT('',(5.791773844336,-0.859449456912));
#589 = CARTESIAN_POINT('',(5.759589024814,-0.87622410916));
#590 = CARTESIAN_POINT('',(5.725406322797,-0.8919606321));
#591 = CARTESIAN_POINT('',(5.689194454098,-0.906555398326));
#592 = CARTESIAN_POINT('',(5.650972095094,-0.919899862157));
#593 = CARTESIAN_POINT('',(5.61082818074,-0.931885863409));
#594 = CARTESIAN_POINT('',(5.532269895499,-0.951626285768));
#595 = CARTESIAN_POINT('',(5.494266602243,-0.959722313123));
#596 = CARTESIAN_POINT('',(5.455032619633,-0.966635878972));
#597 = CARTESIAN_POINT('',(5.414725955476,-0.972305031183));
#598 = CARTESIAN_POINT('',(5.373554181403,-0.976677652898));
#599 = CARTESIAN_POINT('',(5.33176816196,-0.979715645023));
#600 = CARTESIAN_POINT('',(5.289645885999,-0.981397795568));
#601 = CARTESIAN_POINT('',(5.173652300493,-0.982287531287));
#602 = CARTESIAN_POINT('',(5.099663603946,-0.978692762834));
#603 = CARTESIAN_POINT('',(5.026996576156,-0.970921369359));
#604 = CARTESIAN_POINT('',(4.957186748787,-0.959121266626));
#605 = CARTESIAN_POINT('',(4.891413366055,-0.943621873925));
#606 = CARTESIAN_POINT('',(4.83019073006,-0.924819209308));
#607 = CARTESIAN_POINT('',(4.773698226113,-0.903105829375));
#608 = CARTESIAN_POINT('',(4.682989227122,-0.860654936218));
#609 = CARTESIAN_POINT('',(4.646734720382,-0.841030441582));
#610 = CARTESIAN_POINT('',(4.613072070709,-0.820129545824));
#611 = CARTESIAN_POINT('',(4.58189778772,-0.798097256345));
#612 = CARTESIAN_POINT('',(4.553070229763,-0.775064382355));
#613 = CARTESIAN_POINT('',(4.526435104368,-0.751145791793));
#614 = CARTESIAN_POINT('',(4.501840051502,-0.726441277138));
#615 = CARTESIAN_POINT('',(4.44508569681,-0.662935659632));
#616 = CARTESIAN_POINT('',(4.415293318037,-0.62326220779));
#617 = CARTESIAN_POINT('',(4.3892664788,-0.582315310967));
#618 = CARTESIAN_POINT('',(4.366548316908,-0.540327588393));
#619 = CARTESIAN_POINT('',(4.346759272872,-0.497483182183));
#620 = CARTESIAN_POINT('',(4.329593067692,-0.453931401089));
#621 = CARTESIAN_POINT('',(4.314798894759,-0.409797156809));
#622 = CARTESIAN_POINT('',(4.289560170342,-0.320576606477));
#623 = CARTESIAN_POINT('',(4.279115535932,-0.275490347347));
#624 = CARTESIAN_POINT('',(4.270647740676,-0.230034477596));
#625 = CARTESIAN_POINT('',(4.264010369442,-0.18429769175));
#626 = CARTESIAN_POINT('',(4.259099573048,-0.138356973784));
#627 = CARTESIAN_POINT('',(4.255848118841,-9.22824674564E-02));
#628 = CARTESIAN_POINT('',(4.254222399404,-4.61412486875E-02));
#629 = CARTESIAN_POINT('',(4.254222399404,0.));
#630 = ( GEOMETRIC_REPRESENTATION_CONTEXT(2) 
PARAMETRIC_REPRESENTATION_CONTEXT() REPRESENTATION_CONTEXT('2D SPACE',''
  ) );
#631 = PCURVE('',#72,#632);
#632 = DEFINITIONAL_REPRESENTATION('',(#633),#637);
#633 = CIRCLE('',#634,4.115823125451);
#634 = AXIS2_PLACEMENT_2D('',#635,#636);
#635 = CARTESIAN_POINT('',(4.763139720814,-20.));
#636 = DIRECTION('',(-1.,-0.));
#637 = ( GEOMETRIC_REPRESENTATION_CONTEXT(2) 
PARAMETRIC_REPRESENTATION_CONTEXT() REPRESENTATION_CONTEXT('2D SPACE',''
  ) );
#638 = ORIENTED_EDGE('',*,*,#639,.T.);
#639 = EDGE_CURVE('',#561,#485,#640,.T.);
#640 = SURFACE_CURVE('',#641,(#646,#653),.PCURVE_S1.);
#641 = CIRCLE('',#642,4.95);
#642 = AXIS2_PLACEMENT_3D('',#643,#644,#645);
#643 = CARTESIAN_POINT('',(0.,0.,20.));
#644 = DIRECTION('',(0.,0.,1.));
#645 = DIRECTION('',(1.,0.,-0.));
#646 = PCURVE('',#129,#647);
#647 = DEFINITIONAL_REPRESENTATION('',(#648),#652);
#648 = LINE('',#649,#650);
#649 = CARTESIAN_POINT('',(0.,0.));
#650 = VECTOR('',#651,1.);
#651 = DIRECTION('',(1.,0.));
#652 = ( GEOMETRIC_REPRESENTATION_CONTEXT(2) 
PARAMETRIC_REPRESENTATION_CONTEXT() REPRESENTATION_CONTEXT('2D SPACE',''
  ) );
#653 = PCURVE('',#100,#654);
#654 = DEFINITIONAL_REPRESENTATION('',(#655),#659);
#655 = CIRCLE('',#656,4.95);
#656 = AXIS2_PLACEMENT_2D('',#657,#658);
#657 = CARTESIAN_POINT('',(6.215636966088E-16,-5.289030611427E-16));
#658 = DIRECTION('',(1.,0.));
#659 = ( GEOMETRIC_REPRESENTATION_CONTEXT(2) 
PARAMETRIC_REPRESENTATION_CONTEXT() REPRESENTATION_CONTEXT('2D SPACE',''
  ) );
#660 = ADVANCED_FACE('',(#661),#100,.T.);
#661 = FACE_BOUND('',#662,.T.);
#662 = EDGE_LOOP('',(#663,#684,#685,#686));
#663 = ORIENTED_EDGE('',*,*,#664,.T.);
#664 = EDGE_CURVE('',#561,#57,#665,.T.);
#665 = SURFACE_CURVE('',#666,(#670,#677),.PCURVE_S1.);
#666 = LINE('',#667,#668);
#667 = CARTESIAN_POINT('',(-2.75,-4.763139720814,20.));
#668 = VECTOR('',#669,1.);
#669 = DIRECTION('',(0.866025403784,0.5,0.));
#670 = PCURVE('',#100,#671);
#671 = DEFINITIONAL_REPRESENTATION('',(#672),#676);
#672 = LINE('',#673,#674);
#673 = CARTESIAN_POINT('',(-2.75,-4.763139720814));
#674 = VECTOR('',#675,1.);
#675 = DIRECTION('',(0.866025403784,0.5));
#676 = ( GEOMETRIC_REPRESENTATION_CONTEXT(2) 
PARAMETRIC_REPRESENTATION_CONTEXT() REPRESENTATION_CONTEXT('2D SPACE',''
  ) );
#677 = PCURVE('',#72,#678);
#678 = DEFINITIONAL_REPRESENTATION('',(#679),#683);
#679 = LINE('',#680,#681);
#680 = CARTESIAN_POINT('',(0.,-20.));
#681 = VECTOR('',#682,1.);
#682 = DIRECTION('',(1.,0.));
#683 = ( GEOMETRIC_REPRESENTATION_CONTEXT(2) 
PARAMETRIC_REPRESENTATION_CONTEXT() REPRESENTATION_CONTEXT('2D SPACE',''
  ) );
#684 = ORIENTED_EDGE('',*,*,#84,.T.);
#685 = ORIENTED_EDGE('',*,*,#511,.F.);
#686 = ORIENTED_EDGE('',*,*,#639,.F.);
#687 = ADVANCED_FACE('',(#688),#72,.F.);
#688 = FACE_BOUND('',#689,.F.);
#689 = EDGE_LOOP('',(#690,#691,#692,#713,#714,#715));
#690 = ORIENTED_EDGE('',*,*,#277,.F.);
#691 = ORIENTED_EDGE('',*,*,#433,.T.);
#692 = ORIENTED_EDGE('',*,*,#693,.T.);
#693 = EDGE_CURVE('',#406,#537,#694,.T.);
#694 = SURFACE_CURVE('',#695,(#699,#706),.PCURVE_S1.);
#695 = LINE('',#696,#697);
#696 = CARTESIAN_POINT('',(-2.75,-4.763139720814,20.));
#697 = VECTOR('',#698,1.);
#698 = DIRECTION('',(0.866025403784,0.5,0.));
#699 = PCURVE('',#72,#700);
#700 = DEFINITIONAL_REPRESENTATION('',(#701),#705);
#701 = LINE('',#702,#703);
#702 = CARTESIAN_POINT('',(0.,-20.));
#703 = VECTOR('',#704,1.);
#704 = DIRECTION('',(1.,0.));
#705 = ( GEOMETRIC_REPRESENTATION_CONTEXT(2) 
PARAMETRIC_REPRESENTATION_CONTEXT() REPRESENTATION_CONTEXT('2D SPACE',''
  ) );
#706 = PCURVE('',#421,#707);
#707 = DEFINITIONAL_REPRESENTATION('',(#708),#712);
#708 = LINE('',#709,#710);
#709 = CARTESIAN_POINT('',(-2.75,-4.763139720814));
#710 = VECTOR('',#711,1.);
#711 = DIRECTION('',(0.866025403784,0.5));
#712 = ( GEOMETRIC_REPRESENTATION_CONTEXT(2) 
PARAMETRIC_REPRESENTATION_CONTEXT() REPRESENTATION_CONTEXT('2D SPACE',''
  ) );
#713 = ORIENTED_EDGE('',*,*,#560,.F.);
#714 = ORIENTED_EDGE('',*,*,#664,.T.);
#715 = ORIENTED_EDGE('',*,*,#56,.F.);
#716 = ADVANCED_FACE('',(#717),#421,.T.);
#717 = FACE_BOUND('',#718,.T.);
#718 = EDGE_LOOP('',(#719,#720,#721));
#719 = ORIENTED_EDGE('',*,*,#693,.T.);
#720 = ORIENTED_EDGE('',*,*,#536,.F.);
#721 = ORIENTED_EDGE('',*,*,#405,.T.);
#722 = ( GEOMETRIC_REPRESENTATION_CONTEXT(3) 
GLOBAL_UNCERTAINTY_ASSIGNED_CONTEXT((#726)) GLOBAL_UNIT_ASSIGNED_CONTEXT
((#723,#724,#725)) REPRESENTATION_CONTEXT('Context #1',
  '3D Context with UNIT and UNCERTAINTY') );
#723 = ( LENGTH_UNIT() NAMED_UNIT(*) SI_UNIT(.MILLI.,.METRE.) );
#724 = ( NAMED_UNIT(*) PLANE_ANGLE_UNIT() SI_UNIT($,.RADIAN.) );
#725 = ( NAMED_UNIT(*) SI_UNIT($,.STERADIAN.) SOLID_ANGLE_UNIT() );
#726 = UNCERTAINTY_MEASURE_WITH_UNIT(LENGTH_MEASURE(1.E-07),#723,
  'distance_accuracy_value','confusion accuracy');
#727 = PRODUCT_RELATED_PRODUCT_CATEGORY('part',$,(#7));
ENDSEC;
END-ISO-10303-21;
