ISO-10303-21;
HEADER;
FILE_DESCRIPTION(('Open CASCADE Model'),'2;1');
FILE_NAME('marker_peg_square_04','2026-08-13T18:10:25',('Author'),(
    'Open CASCADE'),'Open CASCADE STEP processor 7.8','cadpy','Unknown'
  );
FILE_SCHEMA(('AUTOMOTIVE_DESIGN { 1 0 10303 214 1 1 1 1 }'));
ENDSEC;
DATA;
#1 = APPLICATION_PROTOCOL_DEFINITION('international standard',
  'automotive_design',2000,#2);
#2 = APPLICATION_CONTEXT(
  'core data for automotive mechanical design processes');
#3 = SHAPE_DEFINITION_REPRESENTATION(#4,#10);
#4 = PRODUCT_DEFINITION_SHAPE('','',#5);
#5 = PRODUCT_DEFINITION('design','',#6,#9);
#6 = PRODUCT_DEFINITION_FORMATION('','',#7);
#7 = PRODUCT('marker_peg_square_04','marker_peg_square_04','',(#8));
#8 = PRODUCT_CONTEXT('',#2,'mechanical');
#9 = PRODUCT_DEFINITION_CONTEXT('part definition',#2,'design');
#10 = ADVANCED_BREP_SHAPE_REPRESENTATION('',(#11,#15),#851);
#11 = AXIS2_PLACEMENT_3D('',#12,#13,#14);
#12 = CARTESIAN_POINT('',(0.,0.,0.));
#13 = DIRECTION('',(0.,0.,1.));
#14 = DIRECTION('',(1.,0.,-0.));
#15 = MANIFOLD_SOLID_BREP('',#16);
#16 = CLOSED_SHELL('',(#17,#228,#304,#439,#466,#712,#739,#790,#839,#845)
  );
#17 = ADVANCED_FACE('',(#18),#32,.F.);
#18 = FACE_BOUND('',#19,.F.);
#19 = EDGE_LOOP('',(#20,#55,#83,#111,#174,#202));
#20 = ORIENTED_EDGE('',*,*,#21,.F.);
#21 = EDGE_CURVE('',#22,#24,#26,.T.);
#22 = VERTEX_POINT('',#23);
#23 = CARTESIAN_POINT('',(5.5,0.,0.));
#24 = VERTEX_POINT('',#25);
#25 = CARTESIAN_POINT('',(3.367778697655E-16,5.5,0.));
#26 = SURFACE_CURVE('',#27,(#31,#43),.PCURVE_S1.);
#27 = LINE('',#28,#29);
#28 = CARTESIAN_POINT('',(5.5,0.,0.));
#29 = VECTOR('',#30,1.);
#30 = DIRECTION('',(-0.707106781187,0.707106781187,0.));
#31 = PCURVE('',#32,#37);
#32 = PLANE('',#33);
#33 = AXIS2_PLACEMENT_3D('',#34,#35,#36);
#34 = CARTESIAN_POINT('',(5.5,0.,0.));
#35 = DIRECTION('',(-0.707106781187,-0.707106781187,0.));
#36 = DIRECTION('',(-0.707106781187,0.707106781187,0.));
#37 = DEFINITIONAL_REPRESENTATION('',(#38),#42);
#38 = LINE('',#39,#40);
#39 = CARTESIAN_POINT('',(0.,0.));
#40 = VECTOR('',#41,1.);
#41 = DIRECTION('',(1.,0.));
#42 = ( GEOMETRIC_REPRESENTATION_CONTEXT(2) 
PARAMETRIC_REPRESENTATION_CONTEXT() REPRESENTATION_CONTEXT('2D SPACE',''
  ) );
#43 = PCURVE('',#44,#49);
#44 = PLANE('',#45);
#45 = AXIS2_PLACEMENT_3D('',#46,#47,#48);
#46 = CARTESIAN_POINT('',(0.,-1.183269520746E-16,0.));
#47 = DIRECTION('',(0.,0.,1.));
#48 = DIRECTION('',(1.,0.,-0.));
#49 = DEFINITIONAL_REPRESENTATION('',(#50),#54);
#50 = LINE('',#51,#52);
#51 = CARTESIAN_POINT('',(5.5,1.183269520746E-16));
#52 = VECTOR('',#53,1.);
#53 = DIRECTION('',(-0.707106781187,0.707106781187));
#54 = ( GEOMETRIC_REPRESENTATION_CONTEXT(2) 
PARAMETRIC_REPRESENTATION_CONTEXT() REPRESENTATION_CONTEXT('2D SPACE',''
  ) );
#55 = ORIENTED_EDGE('',*,*,#56,.T.);
#56 = EDGE_CURVE('',#22,#57,#59,.T.);
#57 = VERTEX_POINT('',#58);
#58 = CARTESIAN_POINT('',(5.5,0.,20.));
#59 = SURFACE_CURVE('',#60,(#64,#71),.PCURVE_S1.);
#60 = LINE('',#61,#62);
#61 = CARTESIAN_POINT('',(5.5,0.,0.));
#62 = VECTOR('',#63,1.);
#63 = DIRECTION('',(0.,0.,1.));
#64 = PCURVE('',#32,#65);
#65 = DEFINITIONAL_REPRESENTATION('',(#66),#70);
#66 = LINE('',#67,#68);
#67 = CARTESIAN_POINT('',(0.,0.));
#68 = VECTOR('',#69,1.);
#69 = DIRECTION('',(0.,-1.));
#70 = ( GEOMETRIC_REPRESENTATION_CONTEXT(2) 
PARAMETRIC_REPRESENTATION_CONTEXT() REPRESENTATION_CONTEXT('2D SPACE',''
  ) );
#71 = PCURVE('',#72,#77);
#72 = PLANE('',#73);
#73 = AXIS2_PLACEMENT_3D('',#74,#75,#76);
#74 = CARTESIAN_POINT('',(-1.010333609297E-15,-5.5,0.));
#75 = DIRECTION('',(-0.707106781187,0.707106781187,0.));
#76 = DIRECTION('',(0.707106781187,0.707106781187,0.));
#77 = DEFINITIONAL_REPRESENTATION('',(#78),#82);
#78 = LINE('',#79,#80);
#79 = CARTESIAN_POINT('',(7.778174593052,0.));
#80 = VECTOR('',#81,1.);
#81 = DIRECTION('',(0.,-1.));
#82 = ( GEOMETRIC_REPRESENTATION_CONTEXT(2) 
PARAMETRIC_REPRESENTATION_CONTEXT() REPRESENTATION_CONTEXT('2D SPACE',''
  ) );
#83 = ORIENTED_EDGE('',*,*,#84,.T.);
#84 = EDGE_CURVE('',#57,#85,#87,.T.);
#85 = VERTEX_POINT('',#86);
#86 = CARTESIAN_POINT('',(4.915352165353,0.584647834647,20.));
#87 = SURFACE_CURVE('',#88,(#92,#99),.PCURVE_S1.);
#88 = LINE('',#89,#90);
#89 = CARTESIAN_POINT('',(5.5,0.,20.));
#90 = VECTOR('',#91,1.);
#91 = DIRECTION('',(-0.707106781187,0.707106781187,0.));
#92 = PCURVE('',#32,#93);
#93 = DEFINITIONAL_REPRESENTATION('',(#94),#98);
#94 = LINE('',#95,#96);
#95 = CARTESIAN_POINT('',(0.,-20.));
#96 = VECTOR('',#97,1.);
#97 = DIRECTION('',(1.,0.));
#98 = ( GEOMETRIC_REPRESENTATION_CONTEXT(2) 
PARAMETRIC_REPRESENTATION_CONTEXT() REPRESENTATION_CONTEXT('2D SPACE',''
  ) );
#99 = PCURVE('',#100,#105);
#100 = PLANE('',#101);
#101 = AXIS2_PLACEMENT_3D('',#102,#103,#104);
#102 = CARTESIAN_POINT('',(0.,-1.183269520746E-16,20.));
#103 = DIRECTION('',(0.,0.,1.));
#104 = DIRECTION('',(1.,0.,-0.));
#105 = DEFINITIONAL_REPRESENTATION('',(#106),#110);
#106 = LINE('',#107,#108);
#107 = CARTESIAN_POINT('',(5.5,1.183269520746E-16));
#108 = VECTOR('',#109,1.);
#109 = DIRECTION('',(-0.707106781187,0.707106781187));
#110 = ( GEOMETRIC_REPRESENTATION_CONTEXT(2) 
PARAMETRIC_REPRESENTATION_CONTEXT() REPRESENTATION_CONTEXT('2D SPACE',''
  ) );
#111 = ORIENTED_EDGE('',*,*,#112,.F.);
#112 = EDGE_CURVE('',#113,#85,#115,.T.);
#113 = VERTEX_POINT('',#114);
#114 = CARTESIAN_POINT('',(0.584647834647,4.915352165353,20.));
#115 = SURFACE_CURVE('',#116,(#121,#128),.PCURVE_S1.);
#116 = CIRCLE('',#117,3.062270399557);
#117 = AXIS2_PLACEMENT_3D('',#118,#119,#120);
#118 = CARTESIAN_POINT('',(2.75,2.75,20.));
#119 = DIRECTION('',(-0.707106781187,-0.707106781187,0.));
#120 = DIRECTION('',(0.707106781187,-0.707106781187,0.));
#121 = PCURVE('',#32,#122);
#122 = DEFINITIONAL_REPRESENTATION('',(#123),#127);
#123 = CIRCLE('',#124,3.062270399557);
#124 = AXIS2_PLACEMENT_2D('',#125,#126);
#125 = CARTESIAN_POINT('',(3.889087296526,-20.));
#126 = DIRECTION('',(-1.,-0.));
#127 = ( GEOMETRIC_REPRESENTATION_CONTEXT(2) 
PARAMETRIC_REPRESENTATION_CONTEXT() REPRESENTATION_CONTEXT('2D SPACE',''
  ) );
#128 = PCURVE('',#129,#134);
#129 = SPHERICAL_SURFACE('',#130,4.95);
#130 = AXIS2_PLACEMENT_3D('',#131,#132,#133);
#131 = CARTESIAN_POINT('',(0.,0.,20.));
#132 = DIRECTION('',(0.,0.,1.));
#133 = DIRECTION('',(1.,0.,0.));
#134 = DEFINITIONAL_REPRESENTATION('',(#135),#173);
#135 = B_SPLINE_CURVE_WITH_KNOTS('',8,(#136,#137,#138,#139,#140,#141,
    #142,#143,#144,#145,#146,#147,#148,#149,#150,#151,#152,#153,#154,
    #155,#156,#157,#158,#159,#160,#161,#162,#163,#164,#165,#166,#167,
    #168,#169,#170,#171,#172),.UNSPECIFIED.,.F.,.F.,(9,7,7,7,7,9),(
    3.14159265359,3.926990816987,4.516039439535,4.957825906446,
    5.620505606813,6.28318530718),.UNSPECIFIED.);
#136 = CARTESIAN_POINT('',(1.452409304898,0.));
#137 = CARTESIAN_POINT('',(1.452409304898,-6.073488756662E-02));
#138 = CARTESIAN_POINT('',(1.447055175177,-0.121469608466));
#139 = CARTESIAN_POINT('',(1.436348334937,-0.181654635026));
#140 = CARTESIAN_POINT('',(1.420141673206,-0.240736331414));
#141 = CARTESIAN_POINT('',(1.39815769202,-0.298126779199));
#142 = CARTESIAN_POINT('',(1.369984090476,-0.353148931235));
#143 = CARTESIAN_POINT('',(1.335155380023,-0.4049974142));
#144 = CARTESIAN_POINT('',(1.262134427415,-0.488573714495));
#145 = CARTESIAN_POINT('',(1.226960100762,-0.522091433617));
#146 = CARTESIAN_POINT('',(1.187802864374,-0.552921193975));
#147 = CARTESIAN_POINT('',(1.14463597984,-0.580646045463));
#148 = CARTESIAN_POINT('',(1.097556588005,-0.604816757513));
#149 = CARTESIAN_POINT('',(1.046912111221,-0.624990317357));
#150 = CARTESIAN_POINT('',(0.993373232222,-0.640790308434));
#151 = CARTESIAN_POINT('',(0.896156763934,-0.660354693473));
#152 = CARTESIAN_POINT('',(0.853360016231,-0.666140356687));
#153 = CARTESIAN_POINT('',(0.809802361059,-0.669222573205));
#154 = CARTESIAN_POINT('',(0.765922132728,-0.669535619131));
#155 = CARTESIAN_POINT('',(0.722200738625,-0.667066761317));
#156 = CARTESIAN_POINT('',(0.679107794202,-0.661859041113));
#157 = CARTESIAN_POINT('',(0.637050135606,-0.654004128017));
#158 = CARTESIAN_POINT('',(0.535324373963,-0.628060984497));
#159 = CARTESIAN_POINT('',(0.477365483791,-0.606819935709));
#160 = CARTESIAN_POINT('',(0.423602002978,-0.580325476283));
#161 = CARTESIAN_POINT('',(0.374773983841,-0.549173260868));
#162 = CARTESIAN_POINT('',(0.331091749525,-0.514026837258));
#163 = CARTESIAN_POINT('',(0.292502162532,-0.475496656906));
#164 = CARTESIAN_POINT('',(0.258831321069,-0.434139668273));
#165 = CARTESIAN_POINT('',(0.200898212171,-0.346765919787));
#166 = CARTESIAN_POINT('',(0.176636045125,-0.300749159701));
#167 = CARTESIAN_POINT('',(0.156863749857,-0.252900107524));
#168 = CARTESIAN_POINT('',(0.141328951614,-0.20365710839));
#169 = CARTESIAN_POINT('',(0.1298213801,-0.153404561558));
#170 = CARTESIAN_POINT('',(0.122198624469,-0.102490088035));
#171 = CARTESIAN_POINT('',(0.118387021897,-5.124506138433E-02));
#172 = CARTESIAN_POINT('',(0.118387021897,0.));
#173 = ( GEOMETRIC_REPRESENTATION_CONTEXT(2) 
PARAMETRIC_REPRESENTATION_CONTEXT() REPRESENTATION_CONTEXT('2D SPACE',''
  ) );
#174 = ORIENTED_EDGE('',*,*,#175,.T.);
#175 = EDGE_CURVE('',#113,#176,#178,.T.);
#176 = VERTEX_POINT('',#177);
#177 = CARTESIAN_POINT('',(3.367778697655E-16,5.5,20.));
#178 = SURFACE_CURVE('',#179,(#183,#190),.PCURVE_S1.);
#179 = LINE('',#180,#181);
#180 = CARTESIAN_POINT('',(5.5,0.,20.));
#181 = VECTOR('',#182,1.);
#182 = DIRECTION('',(-0.707106781187,0.707106781187,0.));
#183 = PCURVE('',#32,#184);
#184 = DEFINITIONAL_REPRESENTATION('',(#185),#189);
#185 = LINE('',#186,#187);
#186 = CARTESIAN_POINT('',(0.,-20.));
#187 = VECTOR('',#188,1.);
#188 = DIRECTION('',(1.,0.));
#189 = ( GEOMETRIC_REPRESENTATION_CONTEXT(2) 
PARAMETRIC_REPRESENTATION_CONTEXT() REPRESENTATION_CONTEXT('2D SPACE',''
  ) );
#190 = PCURVE('',#191,#196);
#191 = PLANE('',#192);
#192 = AXIS2_PLACEMENT_3D('',#193,#194,#195);
#193 = CARTESIAN_POINT('',(0.,-1.183269520746E-16,20.));
#194 = DIRECTION('',(0.,0.,1.));
#195 = DIRECTION('',(1.,0.,-0.));
#196 = DEFINITIONAL_REPRESENTATION('',(#197),#201);
#197 = LINE('',#198,#199);
#198 = CARTESIAN_POINT('',(5.5,1.183269520746E-16));
#199 = VECTOR('',#200,1.);
#200 = DIRECTION('',(-0.707106781187,0.707106781187));
#201 = ( GEOMETRIC_REPRESENTATION_CONTEXT(2) 
PARAMETRIC_REPRESENTATION_CONTEXT() REPRESENTATION_CONTEXT('2D SPACE',''
  ) );
#202 = ORIENTED_EDGE('',*,*,#203,.F.);
#203 = EDGE_CURVE('',#24,#176,#204,.T.);
#204 = SURFACE_CURVE('',#205,(#209,#216),.PCURVE_S1.);
#205 = LINE('',#206,#207);
#206 = CARTESIAN_POINT('',(3.367778697655E-16,5.5,0.));
#207 = VECTOR('',#208,1.);
#208 = DIRECTION('',(0.,0.,1.));
#209 = PCURVE('',#32,#210);
#210 = DEFINITIONAL_REPRESENTATION('',(#211),#215);
#211 = LINE('',#212,#213);
#212 = CARTESIAN_POINT('',(7.778174593052,0.));
#213 = VECTOR('',#214,1.);
#214 = DIRECTION('',(0.,-1.));
#215 = ( GEOMETRIC_REPRESENTATION_CONTEXT(2) 
PARAMETRIC_REPRESENTATION_CONTEXT() REPRESENTATION_CONTEXT('2D SPACE',''
  ) );
#216 = PCURVE('',#217,#222);
#217 = PLANE('',#218);
#218 = AXIS2_PLACEMENT_3D('',#219,#220,#221);
#219 = CARTESIAN_POINT('',(3.367778697655E-16,5.5,0.));
#220 = DIRECTION('',(0.707106781187,-0.707106781187,0.));
#221 = DIRECTION('',(-0.707106781187,-0.707106781187,0.));
#222 = DEFINITIONAL_REPRESENTATION('',(#223),#227);
#223 = LINE('',#224,#225);
#224 = CARTESIAN_POINT('',(0.,0.));
#225 = VECTOR('',#226,1.);
#226 = DIRECTION('',(0.,-1.));
#227 = ( GEOMETRIC_REPRESENTATION_CONTEXT(2) 
PARAMETRIC_REPRESENTATION_CONTEXT() REPRESENTATION_CONTEXT('2D SPACE',''
  ) );
#228 = ADVANCED_FACE('',(#229),#44,.F.);
#229 = FACE_BOUND('',#230,.F.);
#230 = EDGE_LOOP('',(#231,#232,#255,#283));
#231 = ORIENTED_EDGE('',*,*,#21,.T.);
#232 = ORIENTED_EDGE('',*,*,#233,.T.);
#233 = EDGE_CURVE('',#24,#234,#236,.T.);
#234 = VERTEX_POINT('',#235);
#235 = CARTESIAN_POINT('',(-5.5,6.73555739531E-16,0.));
#236 = SURFACE_CURVE('',#237,(#241,#248),.PCURVE_S1.);
#237 = LINE('',#238,#239);
#238 = CARTESIAN_POINT('',(3.367778697655E-16,5.5,0.));
#239 = VECTOR('',#240,1.);
#240 = DIRECTION('',(-0.707106781187,-0.707106781187,0.));
#241 = PCURVE('',#44,#242);
#242 = DEFINITIONAL_REPRESENTATION('',(#243),#247);
#243 = LINE('',#244,#245);
#244 = CARTESIAN_POINT('',(3.367778697655E-16,5.5));
#245 = VECTOR('',#246,1.);
#246 = DIRECTION('',(-0.707106781187,-0.707106781187));
#247 = ( GEOMETRIC_REPRESENTATION_CONTEXT(2) 
PARAMETRIC_REPRESENTATION_CONTEXT() REPRESENTATION_CONTEXT('2D SPACE',''
  ) );
#248 = PCURVE('',#217,#249);
#249 = DEFINITIONAL_REPRESENTATION('',(#250),#254);
#250 = LINE('',#251,#252);
#251 = CARTESIAN_POINT('',(0.,0.));
#252 = VECTOR('',#253,1.);
#253 = DIRECTION('',(1.,0.));
#254 = ( GEOMETRIC_REPRESENTATION_CONTEXT(2) 
PARAMETRIC_REPRESENTATION_CONTEXT() REPRESENTATION_CONTEXT('2D SPACE',''
  ) );
#255 = ORIENTED_EDGE('',*,*,#256,.T.);
#256 = EDGE_CURVE('',#234,#257,#259,.T.);
#257 = VERTEX_POINT('',#258);
#258 = CARTESIAN_POINT('',(-1.010333609297E-15,-5.5,0.));
#259 = SURFACE_CURVE('',#260,(#264,#271),.PCURVE_S1.);
#260 = LINE('',#261,#262);
#261 = CARTESIAN_POINT('',(-5.5,6.73555739531E-16,0.));
#262 = VECTOR('',#263,1.);
#263 = DIRECTION('',(0.707106781187,-0.707106781187,0.));
#264 = PCURVE('',#44,#265);
#265 = DEFINITIONAL_REPRESENTATION('',(#266),#270);
#266 = LINE('',#267,#268);
#267 = CARTESIAN_POINT('',(-5.5,7.918826916057E-16));
#268 = VECTOR('',#269,1.);
#269 = DIRECTION('',(0.707106781187,-0.707106781187));
#270 = ( GEOMETRIC_REPRESENTATION_CONTEXT(2) 
PARAMETRIC_REPRESENTATION_CONTEXT() REPRESENTATION_CONTEXT('2D SPACE',''
  ) );
#271 = PCURVE('',#272,#277);
#272 = PLANE('',#273);
#273 = AXIS2_PLACEMENT_3D('',#274,#275,#276);
#274 = CARTESIAN_POINT('',(-5.5,6.73555739531E-16,0.));
#275 = DIRECTION('',(0.707106781187,0.707106781187,-0.));
#276 = DIRECTION('',(0.707106781187,-0.707106781187,0.));
#277 = DEFINITIONAL_REPRESENTATION('',(#278),#282);
#278 = LINE('',#279,#280);
#279 = CARTESIAN_POINT('',(0.,0.));
#280 = VECTOR('',#281,1.);
#281 = DIRECTION('',(1.,0.));
#282 = ( GEOMETRIC_REPRESENTATION_CONTEXT(2) 
PARAMETRIC_REPRESENTATION_CONTEXT() REPRESENTATION_CONTEXT('2D SPACE',''
  ) );
#283 = ORIENTED_EDGE('',*,*,#284,.T.);
#284 = EDGE_CURVE('',#257,#22,#285,.T.);
#285 = SURFACE_CURVE('',#286,(#290,#297),.PCURVE_S1.);
#286 = LINE('',#287,#288);
#287 = CARTESIAN_POINT('',(-1.010333609297E-15,-5.5,0.));
#288 = VECTOR('',#289,1.);
#289 = DIRECTION('',(0.707106781187,0.707106781187,0.));
#290 = PCURVE('',#44,#291);
#291 = DEFINITIONAL_REPRESENTATION('',(#292),#296);
#292 = LINE('',#293,#294);
#293 = CARTESIAN_POINT('',(-1.010333609297E-15,-5.5));
#294 = VECTOR('',#295,1.);
#295 = DIRECTION('',(0.707106781187,0.707106781187));
#296 = ( GEOMETRIC_REPRESENTATION_CONTEXT(2) 
PARAMETRIC_REPRESENTATION_CONTEXT() REPRESENTATION_CONTEXT('2D SPACE',''
  ) );
#297 = PCURVE('',#72,#298);
#298 = DEFINITIONAL_REPRESENTATION('',(#299),#303);
#299 = LINE('',#300,#301);
#300 = CARTESIAN_POINT('',(0.,0.));
#301 = VECTOR('',#302,1.);
#302 = DIRECTION('',(1.,0.));
#303 = ( GEOMETRIC_REPRESENTATION_CONTEXT(2) 
PARAMETRIC_REPRESENTATION_CONTEXT() REPRESENTATION_CONTEXT('2D SPACE',''
  ) );
#304 = ADVANCED_FACE('',(#305),#217,.F.);
#305 = FACE_BOUND('',#306,.F.);
#306 = EDGE_LOOP('',(#307,#308,#309,#332,#390,#418));
#307 = ORIENTED_EDGE('',*,*,#233,.F.);
#308 = ORIENTED_EDGE('',*,*,#203,.T.);
#309 = ORIENTED_EDGE('',*,*,#310,.T.);
#310 = EDGE_CURVE('',#176,#311,#313,.T.);
#311 = VERTEX_POINT('',#312);
#312 = CARTESIAN_POINT('',(-0.584647834647,4.915352165353,20.));
#313 = SURFACE_CURVE('',#314,(#318,#325),.PCURVE_S1.);
#314 = LINE('',#315,#316);
#315 = CARTESIAN_POINT('',(3.367778697655E-16,5.5,20.));
#316 = VECTOR('',#317,1.);
#317 = DIRECTION('',(-0.707106781187,-0.707106781187,0.));
#318 = PCURVE('',#217,#319);
#319 = DEFINITIONAL_REPRESENTATION('',(#320),#324);
#320 = LINE('',#321,#322);
#321 = CARTESIAN_POINT('',(0.,-20.));
#322 = VECTOR('',#323,1.);
#323 = DIRECTION('',(1.,0.));
#324 = ( GEOMETRIC_REPRESENTATION_CONTEXT(2) 
PARAMETRIC_REPRESENTATION_CONTEXT() REPRESENTATION_CONTEXT('2D SPACE',''
  ) );
#325 = PCURVE('',#191,#326);
#326 = DEFINITIONAL_REPRESENTATION('',(#327),#331);
#327 = LINE('',#328,#329);
#328 = CARTESIAN_POINT('',(3.367778697655E-16,5.5));
#329 = VECTOR('',#330,1.);
#330 = DIRECTION('',(-0.707106781187,-0.707106781187));
#331 = ( GEOMETRIC_REPRESENTATION_CONTEXT(2) 
PARAMETRIC_REPRESENTATION_CONTEXT() REPRESENTATION_CONTEXT('2D SPACE',''
  ) );
#332 = ORIENTED_EDGE('',*,*,#333,.F.);
#333 = EDGE_CURVE('',#334,#311,#336,.T.);
#334 = VERTEX_POINT('',#335);
#335 = CARTESIAN_POINT('',(-4.915352165353,0.584647834647,20.));
#336 = SURFACE_CURVE('',#337,(#342,#349),.PCURVE_S1.);
#337 = CIRCLE('',#338,3.062270399557);
#338 = AXIS2_PLACEMENT_3D('',#339,#340,#341);
#339 = CARTESIAN_POINT('',(-2.75,2.75,20.));
#340 = DIRECTION('',(0.707106781187,-0.707106781187,0.));
#341 = DIRECTION('',(0.707106781187,0.707106781187,0.));
#342 = PCURVE('',#217,#343);
#343 = DEFINITIONAL_REPRESENTATION('',(#344),#348);
#344 = CIRCLE('',#345,3.062270399557);
#345 = AXIS2_PLACEMENT_2D('',#346,#347);
#346 = CARTESIAN_POINT('',(3.889087296526,-20.));
#347 = DIRECTION('',(-1.,0.));
#348 = ( GEOMETRIC_REPRESENTATION_CONTEXT(2) 
PARAMETRIC_REPRESENTATION_CONTEXT() REPRESENTATION_CONTEXT('2D SPACE',''
  ) );
#349 = PCURVE('',#129,#350);
#350 = DEFINITIONAL_REPRESENTATION('',(#351),#389);
#351 = B_SPLINE_CURVE_WITH_KNOTS('',8,(#352,#353,#354,#355,#356,#357,
    #358,#359,#360,#361,#362,#363,#364,#365,#366,#367,#368,#369,#370,
    #371,#372,#373,#374,#375,#376,#377,#378,#379,#380,#381,#382,#383,
    #384,#385,#386,#387,#388),.UNSPECIFIED.,.F.,.F.,(9,7,7,7,7,9),(
    3.14159265359,3.926990816987,4.516039439535,4.957825906446,
    5.620505606813,6.28318530718),.UNSPECIFIED.);
#352 = CARTESIAN_POINT('',(3.023205631692,0.));
#353 = CARTESIAN_POINT('',(3.023205631692,-6.073488756662E-02));
#354 = CARTESIAN_POINT('',(3.017851501972,-0.121469608466));
#355 = CARTESIAN_POINT('',(3.007144661733,-0.181654635026));
#356 = CARTESIAN_POINT('',(2.990938000001,-0.240736331414));
#357 = CARTESIAN_POINT('',(2.968954018815,-0.298126779198));
#358 = CARTESIAN_POINT('',(2.940780417271,-0.353148931235));
#359 = CARTESIAN_POINT('',(2.905951706818,-0.4049974142));
#360 = CARTESIAN_POINT('',(2.83293075421,-0.488573714495));
#361 = CARTESIAN_POINT('',(2.797756427557,-0.522091433617));
#362 = CARTESIAN_POINT('',(2.758599191169,-0.552921193975));
#363 = CARTESIAN_POINT('',(2.715432306635,-0.580646045463));
#364 = CARTESIAN_POINT('',(2.668352914801,-0.604816757513));
#365 = CARTESIAN_POINT('',(2.617708438016,-0.624990317357));
#366 = CARTESIAN_POINT('',(2.564169559017,-0.640790308434));
#367 = CARTESIAN_POINT('',(2.466953090729,-0.660354693473));
#368 = CARTESIAN_POINT('',(2.424156343026,-0.666140356687));
#369 = CARTESIAN_POINT('',(2.380598687853,-0.669222573206));
#370 = CARTESIAN_POINT('',(2.336718459523,-0.669535619131));
#371 = CARTESIAN_POINT('',(2.29299706542,-0.667066761317));
#372 = CARTESIAN_POINT('',(2.249904120997,-0.661859041113));
#373 = CARTESIAN_POINT('',(2.207846462401,-0.654004128017));
#374 = CARTESIAN_POINT('',(2.106120700758,-0.628060984497));
#375 = CARTESIAN_POINT('',(2.048161810587,-0.606819935708));
#376 = CARTESIAN_POINT('',(1.994398329766,-0.580325476283));
#377 = CARTESIAN_POINT('',(1.94557031064,-0.549173260867));
#378 = CARTESIAN_POINT('',(1.901888076314,-0.514026837257));
#379 = CARTESIAN_POINT('',(1.863298489327,-0.475496656906));
#380 = CARTESIAN_POINT('',(1.829627647864,-0.434139668273));
#381 = CARTESIAN_POINT('',(1.771694538966,-0.346765919787));
#382 = CARTESIAN_POINT('',(1.74743237192,-0.300749159701));
#383 = CARTESIAN_POINT('',(1.727660076652,-0.252900107524));
#384 = CARTESIAN_POINT('',(1.712125278409,-0.20365710839));
#385 = CARTESIAN_POINT('',(1.700617706895,-0.153404561558));
#386 = CARTESIAN_POINT('',(1.692994951264,-0.102490088035));
#387 = CARTESIAN_POINT('',(1.689183348692,-5.124506138433E-02));
#388 = CARTESIAN_POINT('',(1.689183348692,0.));
#389 = ( GEOMETRIC_REPRESENTATION_CONTEXT(2) 
PARAMETRIC_REPRESENTATION_CONTEXT() REPRESENTATION_CONTEXT('2D SPACE',''
  ) );
#390 = ORIENTED_EDGE('',*,*,#391,.T.);
#391 = EDGE_CURVE('',#334,#392,#394,.T.);
#392 = VERTEX_POINT('',#393);
#393 = CARTESIAN_POINT('',(-5.5,6.73555739531E-16,20.));
#394 = SURFACE_CURVE('',#395,(#399,#406),.PCURVE_S1.);
#395 = LINE('',#396,#397);
#396 = CARTESIAN_POINT('',(3.367778697655E-16,5.5,20.));
#397 = VECTOR('',#398,1.);
#398 = DIRECTION('',(-0.707106781187,-0.707106781187,0.));
#399 = PCURVE('',#217,#400);
#400 = DEFINITIONAL_REPRESENTATION('',(#401),#405);
#401 = LINE('',#402,#403);
#402 = CARTESIAN_POINT('',(0.,-20.));
#403 = VECTOR('',#404,1.);
#404 = DIRECTION('',(1.,0.));
#405 = ( GEOMETRIC_REPRESENTATION_CONTEXT(2) 
PARAMETRIC_REPRESENTATION_CONTEXT() REPRESENTATION_CONTEXT('2D SPACE',''
  ) );
#406 = PCURVE('',#407,#412);
#407 = PLANE('',#408);
#408 = AXIS2_PLACEMENT_3D('',#409,#410,#411);
#409 = CARTESIAN_POINT('',(0.,-1.183269520746E-16,20.));
#410 = DIRECTION('',(0.,0.,1.));
#411 = DIRECTION('',(1.,0.,-0.));
#412 = DEFINITIONAL_REPRESENTATION('',(#413),#417);
#413 = LINE('',#414,#415);
#414 = CARTESIAN_POINT('',(3.367778697655E-16,5.5));
#415 = VECTOR('',#416,1.);
#416 = DIRECTION('',(-0.707106781187,-0.707106781187));
#417 = ( GEOMETRIC_REPRESENTATION_CONTEXT(2) 
PARAMETRIC_REPRESENTATION_CONTEXT() REPRESENTATION_CONTEXT('2D SPACE',''
  ) );
#418 = ORIENTED_EDGE('',*,*,#419,.F.);
#419 = EDGE_CURVE('',#234,#392,#420,.T.);
#420 = SURFACE_CURVE('',#421,(#425,#432),.PCURVE_S1.);
#421 = LINE('',#422,#423);
#422 = CARTESIAN_POINT('',(-5.5,6.73555739531E-16,0.));
#423 = VECTOR('',#424,1.);
#424 = DIRECTION('',(0.,0.,1.));
#425 = PCURVE('',#217,#426);
#426 = DEFINITIONAL_REPRESENTATION('',(#427),#431);
#427 = LINE('',#428,#429);
#428 = CARTESIAN_POINT('',(7.778174593052,0.));
#429 = VECTOR('',#430,1.);
#430 = DIRECTION('',(0.,-1.));
#431 = ( GEOMETRIC_REPRESENTATION_CONTEXT(2) 
PARAMETRIC_REPRESENTATION_CONTEXT() REPRESENTATION_CONTEXT('2D SPACE',''
  ) );
#432 = PCURVE('',#272,#433);
#433 = DEFINITIONAL_REPRESENTATION('',(#434),#438);
#434 = LINE('',#435,#436);
#435 = CARTESIAN_POINT('',(0.,0.));
#436 = VECTOR('',#437,1.);
#437 = DIRECTION('',(0.,-1.));
#438 = ( GEOMETRIC_REPRESENTATION_CONTEXT(2) 
PARAMETRIC_REPRESENTATION_CONTEXT() REPRESENTATION_CONTEXT('2D SPACE',''
  ) );
#439 = ADVANCED_FACE('',(#440),#191,.T.);
#440 = FACE_BOUND('',#441,.T.);
#441 = EDGE_LOOP('',(#442,#464,#465));
#442 = ORIENTED_EDGE('',*,*,#443,.F.);
#443 = EDGE_CURVE('',#113,#311,#444,.T.);
#444 = SURFACE_CURVE('',#445,(#450,#457),.PCURVE_S1.);
#445 = CIRCLE('',#446,4.95);
#446 = AXIS2_PLACEMENT_3D('',#447,#448,#449);
#447 = CARTESIAN_POINT('',(0.,0.,20.));
#448 = DIRECTION('',(0.,0.,1.));
#449 = DIRECTION('',(1.,0.,-0.));
#450 = PCURVE('',#191,#451);
#451 = DEFINITIONAL_REPRESENTATION('',(#452),#456);
#452 = CIRCLE('',#453,4.95);
#453 = AXIS2_PLACEMENT_2D('',#454,#455);
#454 = CARTESIAN_POINT('',(0.,1.183269520746E-16));
#455 = DIRECTION('',(1.,0.));
#456 = ( GEOMETRIC_REPRESENTATION_CONTEXT(2) 
PARAMETRIC_REPRESENTATION_CONTEXT() REPRESENTATION_CONTEXT('2D SPACE',''
  ) );
#457 = PCURVE('',#129,#458);
#458 = DEFINITIONAL_REPRESENTATION('',(#459),#463);
#459 = LINE('',#460,#461);
#460 = CARTESIAN_POINT('',(0.,0.));
#461 = VECTOR('',#462,1.);
#462 = DIRECTION('',(1.,0.));
#463 = ( GEOMETRIC_REPRESENTATION_CONTEXT(2) 
PARAMETRIC_REPRESENTATION_CONTEXT() REPRESENTATION_CONTEXT('2D SPACE',''
  ) );
#464 = ORIENTED_EDGE('',*,*,#175,.T.);
#465 = ORIENTED_EDGE('',*,*,#310,.T.);
#466 = ADVANCED_FACE('',(#467),#129,.T.);
#467 = FACE_BOUND('',#468,.T.);
#468 = EDGE_LOOP('',(#469,#495,#496,#518,#519,#520,#521,#545,#603,#632,
    #690));
#469 = ORIENTED_EDGE('',*,*,#470,.T.);
#470 = EDGE_CURVE('',#471,#473,#475,.T.);
#471 = VERTEX_POINT('',#472);
#472 = CARTESIAN_POINT('',(4.95,-1.212400331156E-15,20.));
#473 = VERTEX_POINT('',#474);
#474 = CARTESIAN_POINT('',(3.03100082789E-16,-7.423810924176E-32,24.95)
  );
#475 = SEAM_CURVE('',#476,(#481,#488),.PCURVE_S1.);
#476 = CIRCLE('',#477,4.95);
#477 = AXIS2_PLACEMENT_3D('',#478,#479,#480);
#478 = CARTESIAN_POINT('',(0.,0.,20.));
#479 = DIRECTION('',(-2.449293598295E-16,-1.,0.));
#480 = DIRECTION('',(1.,-2.449293598295E-16,0.));
#481 = PCURVE('',#129,#482);
#482 = DEFINITIONAL_REPRESENTATION('',(#483),#487);
#483 = LINE('',#484,#485);
#484 = CARTESIAN_POINT('',(6.28318530718,-6.28318530718));
#485 = VECTOR('',#486,1.);
#486 = DIRECTION('',(0.,1.));
#487 = ( GEOMETRIC_REPRESENTATION_CONTEXT(2) 
PARAMETRIC_REPRESENTATION_CONTEXT() REPRESENTATION_CONTEXT('2D SPACE',''
  ) );
#488 = PCURVE('',#129,#489);
#489 = DEFINITIONAL_REPRESENTATION('',(#490),#494);
#490 = LINE('',#491,#492);
#491 = CARTESIAN_POINT('',(0.,-6.28318530718));
#492 = VECTOR('',#493,1.);
#493 = DIRECTION('',(0.,1.));
#494 = ( GEOMETRIC_REPRESENTATION_CONTEXT(2) 
PARAMETRIC_REPRESENTATION_CONTEXT() REPRESENTATION_CONTEXT('2D SPACE',''
  ) );
#495 = ORIENTED_EDGE('',*,*,#470,.F.);
#496 = ORIENTED_EDGE('',*,*,#497,.T.);
#497 = EDGE_CURVE('',#471,#85,#498,.T.);
#498 = SURFACE_CURVE('',#499,(#504,#511),.PCURVE_S1.);
#499 = CIRCLE('',#500,4.95);
#500 = AXIS2_PLACEMENT_3D('',#501,#502,#503);
#501 = CARTESIAN_POINT('',(0.,0.,20.));
#502 = DIRECTION('',(0.,0.,1.));
#503 = DIRECTION('',(1.,0.,-0.));
#504 = PCURVE('',#129,#505);
#505 = DEFINITIONAL_REPRESENTATION('',(#506),#510);
#506 = LINE('',#507,#508);
#507 = CARTESIAN_POINT('',(0.,0.));
#508 = VECTOR('',#509,1.);
#509 = DIRECTION('',(1.,0.));
#510 = ( GEOMETRIC_REPRESENTATION_CONTEXT(2) 
PARAMETRIC_REPRESENTATION_CONTEXT() REPRESENTATION_CONTEXT('2D SPACE',''
  ) );
#511 = PCURVE('',#100,#512);
#512 = DEFINITIONAL_REPRESENTATION('',(#513),#517);
#513 = CIRCLE('',#514,4.95);
#514 = AXIS2_PLACEMENT_2D('',#515,#516);
#515 = CARTESIAN_POINT('',(0.,1.183269520746E-16));
#516 = DIRECTION('',(1.,0.));
#517 = ( GEOMETRIC_REPRESENTATION_CONTEXT(2) 
PARAMETRIC_REPRESENTATION_CONTEXT() REPRESENTATION_CONTEXT('2D SPACE',''
  ) );
#518 = ORIENTED_EDGE('',*,*,#112,.F.);
#519 = ORIENTED_EDGE('',*,*,#443,.T.);
#520 = ORIENTED_EDGE('',*,*,#333,.F.);
#521 = ORIENTED_EDGE('',*,*,#522,.T.);
#522 = EDGE_CURVE('',#334,#523,#525,.T.);
#523 = VERTEX_POINT('',#524);
#524 = CARTESIAN_POINT('',(-4.915352165353,-0.584647834647,20.));
#525 = SURFACE_CURVE('',#526,(#531,#538),.PCURVE_S1.);
#526 = CIRCLE('',#527,4.95);
#527 = AXIS2_PLACEMENT_3D('',#528,#529,#530);
#528 = CARTESIAN_POINT('',(0.,0.,20.));
#529 = DIRECTION('',(0.,0.,1.));
#530 = DIRECTION('',(1.,0.,-0.));
#531 = PCURVE('',#129,#532);
#532 = DEFINITIONAL_REPRESENTATION('',(#533),#537);
#533 = LINE('',#534,#535);
#534 = CARTESIAN_POINT('',(0.,0.));
#535 = VECTOR('',#536,1.);
#536 = DIRECTION('',(1.,0.));
#537 = ( GEOMETRIC_REPRESENTATION_CONTEXT(2) 
PARAMETRIC_REPRESENTATION_CONTEXT() REPRESENTATION_CONTEXT('2D SPACE',''
  ) );
#538 = PCURVE('',#407,#539);
#539 = DEFINITIONAL_REPRESENTATION('',(#540),#544);
#540 = CIRCLE('',#541,4.95);
#541 = AXIS2_PLACEMENT_2D('',#542,#543);
#542 = CARTESIAN_POINT('',(0.,1.183269520746E-16));
#543 = DIRECTION('',(1.,0.));
#544 = ( GEOMETRIC_REPRESENTATION_CONTEXT(2) 
PARAMETRIC_REPRESENTATION_CONTEXT() REPRESENTATION_CONTEXT('2D SPACE',''
  ) );
#545 = ORIENTED_EDGE('',*,*,#546,.F.);
#546 = EDGE_CURVE('',#547,#523,#549,.T.);
#547 = VERTEX_POINT('',#548);
#548 = CARTESIAN_POINT('',(-0.584647834647,-4.915352165353,20.));
#549 = SURFACE_CURVE('',#550,(#555,#596),.PCURVE_S1.);
#550 = CIRCLE('',#551,3.062270399557);
#551 = AXIS2_PLACEMENT_3D('',#552,#553,#554);
#552 = CARTESIAN_POINT('',(-2.75,-2.75,20.));
#553 = DIRECTION('',(0.707106781187,0.707106781187,-0.));
#554 = DIRECTION('',(-0.707106781187,0.707106781187,0.));
#555 = PCURVE('',#129,#556);
#556 = DEFINITIONAL_REPRESENTATION('',(#557),#595);
#557 = B_SPLINE_CURVE_WITH_KNOTS('',8,(#558,#559,#560,#561,#562,#563,
    #564,#565,#566,#567,#568,#569,#570,#571,#572,#573,#574,#575,#576,
    #577,#578,#579,#580,#581,#582,#583,#584,#585,#586,#587,#588,#589,
    #590,#591,#592,#593,#594),.UNSPECIFIED.,.F.,.F.,(9,7,7,7,7,9),(
    3.14159265359,3.926990816987,4.516039439535,4.957825906446,
    5.620505606813,6.28318530718),.UNSPECIFIED.);
#558 = CARTESIAN_POINT('',(4.594001958487,0.));
#559 = CARTESIAN_POINT('',(4.594001958487,-6.073488756662E-02));
#560 = CARTESIAN_POINT('',(4.588647828767,-0.121469608466));
#561 = CARTESIAN_POINT('',(4.577940988528,-0.181654635026));
#562 = CARTESIAN_POINT('',(4.561734326796,-0.240736331414));
#563 = CARTESIAN_POINT('',(4.53975034561,-0.298126779198));
#564 = CARTESIAN_POINT('',(4.511576744066,-0.353148931235));
#565 = CARTESIAN_POINT('',(4.476748033613,-0.4049974142));
#566 = CARTESIAN_POINT('',(4.403727081004,-0.488573714495));
#567 = CARTESIAN_POINT('',(4.368552754352,-0.522091433618));
#568 = CARTESIAN_POINT('',(4.329395517964,-0.552921193975));
#569 = CARTESIAN_POINT('',(4.28622863343,-0.580646045463));
#570 = CARTESIAN_POINT('',(4.239149241596,-0.604816757513));
#571 = CARTESIAN_POINT('',(4.18850476481,-0.624990317357));
#572 = CARTESIAN_POINT('',(4.134965885812,-0.640790308434));
#573 = CARTESIAN_POINT('',(4.037749417524,-0.660354693473));
#574 = CARTESIAN_POINT('',(3.99495266982,-0.666140356687));
#575 = CARTESIAN_POINT('',(3.951395014649,-0.669222573205));
#576 = CARTESIAN_POINT('',(3.907514786318,-0.669535619131));
#577 = CARTESIAN_POINT('',(3.863793392215,-0.667066761317));
#578 = CARTESIAN_POINT('',(3.820700447791,-0.661859041113));
#579 = CARTESIAN_POINT('',(3.778642789196,-0.654004128017));
#580 = CARTESIAN_POINT('',(3.676917027553,-0.628060984497));
#581 = CARTESIAN_POINT('',(3.618958137377,-0.606819935708));
#582 = CARTESIAN_POINT('',(3.565194656574,-0.580325476284));
#583 = CARTESIAN_POINT('',(3.516366637407,-0.549173260865));
#584 = CARTESIAN_POINT('',(3.472684403124,-0.514026837258));
#585 = CARTESIAN_POINT('',(3.434094816118,-0.475496656906));
#586 = CARTESIAN_POINT('',(3.400423974659,-0.434139668273));
#587 = CARTESIAN_POINT('',(3.342490865761,-0.346765919787));
#588 = CARTESIAN_POINT('',(3.318228698715,-0.300749159701));
#589 = CARTESIAN_POINT('',(3.298456403447,-0.252900107524));
#590 = CARTESIAN_POINT('',(3.282921605204,-0.20365710839));
#591 = CARTESIAN_POINT('',(3.271414033691,-0.153404561558));
#592 = CARTESIAN_POINT('',(3.263791278059,-0.102490088035));
#593 = CARTESIAN_POINT('',(3.259979675487,-5.124506138433E-02));
#594 = CARTESIAN_POINT('',(3.259979675487,0.));
#595 = ( GEOMETRIC_REPRESENTATION_CONTEXT(2) 
PARAMETRIC_REPRESENTATION_CONTEXT() REPRESENTATION_CONTEXT('2D SPACE',''
  ) );
#596 = PCURVE('',#272,#597);
#597 = DEFINITIONAL_REPRESENTATION('',(#598),#602);
#598 = CIRCLE('',#599,3.062270399557);
#599 = AXIS2_PLACEMENT_2D('',#600,#601);
#600 = CARTESIAN_POINT('',(3.889087296526,-20.));
#601 = DIRECTION('',(-1.,-0.));
#602 = ( GEOMETRIC_REPRESENTATION_CONTEXT(2) 
PARAMETRIC_REPRESENTATION_CONTEXT() REPRESENTATION_CONTEXT('2D SPACE',''
  ) );
#603 = ORIENTED_EDGE('',*,*,#604,.T.);
#604 = EDGE_CURVE('',#547,#605,#607,.T.);
#605 = VERTEX_POINT('',#606);
#606 = CARTESIAN_POINT('',(0.584647834647,-4.915352165353,20.));
#607 = SURFACE_CURVE('',#608,(#613,#620),.PCURVE_S1.);
#608 = CIRCLE('',#609,4.95);
#609 = AXIS2_PLACEMENT_3D('',#610,#611,#612);
#610 = CARTESIAN_POINT('',(0.,0.,20.));
#611 = DIRECTION('',(0.,0.,1.));
#612 = DIRECTION('',(1.,0.,-0.));
#613 = PCURVE('',#129,#614);
#614 = DEFINITIONAL_REPRESENTATION('',(#615),#619);
#615 = LINE('',#616,#617);
#616 = CARTESIAN_POINT('',(0.,0.));
#617 = VECTOR('',#618,1.);
#618 = DIRECTION('',(1.,0.));
#619 = ( GEOMETRIC_REPRESENTATION_CONTEXT(2) 
PARAMETRIC_REPRESENTATION_CONTEXT() REPRESENTATION_CONTEXT('2D SPACE',''
  ) );
#620 = PCURVE('',#621,#626);
#621 = PLANE('',#622);
#622 = AXIS2_PLACEMENT_3D('',#623,#624,#625);
#623 = CARTESIAN_POINT('',(0.,-1.183269520746E-16,20.));
#624 = DIRECTION('',(0.,0.,1.));
#625 = DIRECTION('',(1.,0.,-0.));
#626 = DEFINITIONAL_REPRESENTATION('',(#627),#631);
#627 = CIRCLE('',#628,4.95);
#628 = AXIS2_PLACEMENT_2D('',#629,#630);
#629 = CARTESIAN_POINT('',(0.,1.183269520746E-16));
#630 = DIRECTION('',(1.,0.));
#631 = ( GEOMETRIC_REPRESENTATION_CONTEXT(2) 
PARAMETRIC_REPRESENTATION_CONTEXT() REPRESENTATION_CONTEXT('2D SPACE',''
  ) );
#632 = ORIENTED_EDGE('',*,*,#633,.F.);
#633 = EDGE_CURVE('',#634,#605,#636,.T.);
#634 = VERTEX_POINT('',#635);
#635 = CARTESIAN_POINT('',(4.915352165353,-0.584647834647,20.));
#636 = SURFACE_CURVE('',#637,(#642,#683),.PCURVE_S1.);
#637 = CIRCLE('',#638,3.062270399557);
#638 = AXIS2_PLACEMENT_3D('',#639,#640,#641);
#639 = CARTESIAN_POINT('',(2.75,-2.75,20.));
#640 = DIRECTION('',(-0.707106781187,0.707106781187,0.));
#641 = DIRECTION('',(-0.707106781187,-0.707106781187,0.));
#642 = PCURVE('',#129,#643);
#643 = DEFINITIONAL_REPRESENTATION('',(#644),#682);
#644 = B_SPLINE_CURVE_WITH_KNOTS('',8,(#645,#646,#647,#648,#649,#650,
    #651,#652,#653,#654,#655,#656,#657,#658,#659,#660,#661,#662,#663,
    #664,#665,#666,#667,#668,#669,#670,#671,#672,#673,#674,#675,#676,
    #677,#678,#679,#680,#681),.UNSPECIFIED.,.F.,.F.,(9,7,7,7,7,9),(
    3.14159265359,3.926990816987,4.516039439535,4.957825906446,
    5.620505606813,6.28318530718),.UNSPECIFIED.);
#645 = CARTESIAN_POINT('',(6.164798285282,0.));
#646 = CARTESIAN_POINT('',(6.164798285282,-6.073488756662E-02));
#647 = CARTESIAN_POINT('',(6.159444155562,-0.121469608466));
#648 = CARTESIAN_POINT('',(6.148737315322,-0.181654635026));
#649 = CARTESIAN_POINT('',(6.132530653591,-0.240736331414));
#650 = CARTESIAN_POINT('',(6.110546672405,-0.298126779199));
#651 = CARTESIAN_POINT('',(6.082373070861,-0.353148931235));
#652 = CARTESIAN_POINT('',(6.047544360408,-0.4049974142));
#653 = CARTESIAN_POINT('',(5.974523407799,-0.488573714495));
#654 = CARTESIAN_POINT('',(5.939349081147,-0.522091433618));
#655 = CARTESIAN_POINT('',(5.900191844758,-0.552921193975));
#656 = CARTESIAN_POINT('',(5.857024960225,-0.580646045463));
#657 = CARTESIAN_POINT('',(5.80994556839,-0.604816757513));
#658 = CARTESIAN_POINT('',(5.759301091605,-0.624990317357));
#659 = CARTESIAN_POINT('',(5.705762212607,-0.640790308434));
#660 = CARTESIAN_POINT('',(5.608545744319,-0.660354693473));
#661 = CARTESIAN_POINT('',(5.565748996616,-0.666140356687));
#662 = CARTESIAN_POINT('',(5.522191341443,-0.669222573205));
#663 = CARTESIAN_POINT('',(5.478311113113,-0.669535619131));
#664 = CARTESIAN_POINT('',(5.434589719012,-0.667066761317));
#665 = CARTESIAN_POINT('',(5.391496774586,-0.661859041112));
#666 = CARTESIAN_POINT('',(5.349439115991,-0.654004128017));
#667 = CARTESIAN_POINT('',(5.247713354347,-0.628060984497));
#668 = CARTESIAN_POINT('',(5.18975446417,-0.606819935707));
#669 = CARTESIAN_POINT('',(5.135990983376,-0.580325476287));
#670 = CARTESIAN_POINT('',(5.087162964203,-0.549173260863));
#671 = CARTESIAN_POINT('',(5.043480729921,-0.514026837262));
#672 = CARTESIAN_POINT('',(5.00489114291,-0.475496656905));
#673 = CARTESIAN_POINT('',(4.971220301454,-0.434139668273));
#674 = CARTESIAN_POINT('',(4.913287192556,-0.346765919787));
#675 = CARTESIAN_POINT('',(4.88902502551,-0.300749159701));
#676 = CARTESIAN_POINT('',(4.869252730241,-0.252900107524));
#677 = CARTESIAN_POINT('',(4.853717931999,-0.20365710839));
#678 = CARTESIAN_POINT('',(4.842210360485,-0.153404561558));
#679 = CARTESIAN_POINT('',(4.834587604854,-0.102490088035));
#680 = CARTESIAN_POINT('',(4.830776002282,-5.124506138433E-02));
#681 = CARTESIAN_POINT('',(4.830776002282,0.));
#682 = ( GEOMETRIC_REPRESENTATION_CONTEXT(2) 
PARAMETRIC_REPRESENTATION_CONTEXT() REPRESENTATION_CONTEXT('2D SPACE',''
  ) );
#683 = PCURVE('',#72,#684);
#684 = DEFINITIONAL_REPRESENTATION('',(#685),#689);
#685 = CIRCLE('',#686,3.062270399557);
#686 = AXIS2_PLACEMENT_2D('',#687,#688);
#687 = CARTESIAN_POINT('',(3.889087296526,-20.));
#688 = DIRECTION('',(-1.,-0.));
#689 = ( GEOMETRIC_REPRESENTATION_CONTEXT(2) 
PARAMETRIC_REPRESENTATION_CONTEXT() REPRESENTATION_CONTEXT('2D SPACE',''
  ) );
#690 = ORIENTED_EDGE('',*,*,#691,.T.);
#691 = EDGE_CURVE('',#634,#471,#692,.T.);
#692 = SURFACE_CURVE('',#693,(#698,#705),.PCURVE_S1.);
#693 = CIRCLE('',#694,4.95);
#694 = AXIS2_PLACEMENT_3D('',#695,#696,#697);
#695 = CARTESIAN_POINT('',(0.,0.,20.));
#696 = DIRECTION('',(0.,0.,1.));
#697 = DIRECTION('',(1.,0.,-0.));
#698 = PCURVE('',#129,#699);
#699 = DEFINITIONAL_REPRESENTATION('',(#700),#704);
#700 = LINE('',#701,#702);
#701 = CARTESIAN_POINT('',(0.,0.));
#702 = VECTOR('',#703,1.);
#703 = DIRECTION('',(1.,0.));
#704 = ( GEOMETRIC_REPRESENTATION_CONTEXT(2) 
PARAMETRIC_REPRESENTATION_CONTEXT() REPRESENTATION_CONTEXT('2D SPACE',''
  ) );
#705 = PCURVE('',#100,#706);
#706 = DEFINITIONAL_REPRESENTATION('',(#707),#711);
#707 = CIRCLE('',#708,4.95);
#708 = AXIS2_PLACEMENT_2D('',#709,#710);
#709 = CARTESIAN_POINT('',(0.,1.183269520746E-16));
#710 = DIRECTION('',(1.,0.));
#711 = ( GEOMETRIC_REPRESENTATION_CONTEXT(2) 
PARAMETRIC_REPRESENTATION_CONTEXT() REPRESENTATION_CONTEXT('2D SPACE',''
  ) );
#712 = ADVANCED_FACE('',(#713),#100,.T.);
#713 = FACE_BOUND('',#714,.T.);
#714 = EDGE_LOOP('',(#715,#736,#737,#738));
#715 = ORIENTED_EDGE('',*,*,#716,.T.);
#716 = EDGE_CURVE('',#634,#57,#717,.T.);
#717 = SURFACE_CURVE('',#718,(#722,#729),.PCURVE_S1.);
#718 = LINE('',#719,#720);
#719 = CARTESIAN_POINT('',(-1.010333609297E-15,-5.5,20.));
#720 = VECTOR('',#721,1.);
#721 = DIRECTION('',(0.707106781187,0.707106781187,0.));
#722 = PCURVE('',#100,#723);
#723 = DEFINITIONAL_REPRESENTATION('',(#724),#728);
#724 = LINE('',#725,#726);
#725 = CARTESIAN_POINT('',(-1.010333609297E-15,-5.5));
#726 = VECTOR('',#727,1.);
#727 = DIRECTION('',(0.707106781187,0.707106781187));
#728 = ( GEOMETRIC_REPRESENTATION_CONTEXT(2) 
PARAMETRIC_REPRESENTATION_CONTEXT() REPRESENTATION_CONTEXT('2D SPACE',''
  ) );
#729 = PCURVE('',#72,#730);
#730 = DEFINITIONAL_REPRESENTATION('',(#731),#735);
#731 = LINE('',#732,#733);
#732 = CARTESIAN_POINT('',(0.,-20.));
#733 = VECTOR('',#734,1.);
#734 = DIRECTION('',(1.,0.));
#735 = ( GEOMETRIC_REPRESENTATION_CONTEXT(2) 
PARAMETRIC_REPRESENTATION_CONTEXT() REPRESENTATION_CONTEXT('2D SPACE',''
  ) );
#736 = ORIENTED_EDGE('',*,*,#84,.T.);
#737 = ORIENTED_EDGE('',*,*,#497,.F.);
#738 = ORIENTED_EDGE('',*,*,#691,.F.);
#739 = ADVANCED_FACE('',(#740),#72,.F.);
#740 = FACE_BOUND('',#741,.F.);
#741 = EDGE_LOOP('',(#742,#743,#766,#787,#788,#789));
#742 = ORIENTED_EDGE('',*,*,#284,.F.);
#743 = ORIENTED_EDGE('',*,*,#744,.T.);
#744 = EDGE_CURVE('',#257,#745,#747,.T.);
#745 = VERTEX_POINT('',#746);
#746 = CARTESIAN_POINT('',(-1.010333609297E-15,-5.5,20.));
#747 = SURFACE_CURVE('',#748,(#752,#759),.PCURVE_S1.);
#748 = LINE('',#749,#750);
#749 = CARTESIAN_POINT('',(-1.010333609297E-15,-5.5,0.));
#750 = VECTOR('',#751,1.);
#751 = DIRECTION('',(0.,0.,1.));
#752 = PCURVE('',#72,#753);
#753 = DEFINITIONAL_REPRESENTATION('',(#754),#758);
#754 = LINE('',#755,#756);
#755 = CARTESIAN_POINT('',(0.,0.));
#756 = VECTOR('',#757,1.);
#757 = DIRECTION('',(0.,-1.));
#758 = ( GEOMETRIC_REPRESENTATION_CONTEXT(2) 
PARAMETRIC_REPRESENTATION_CONTEXT() REPRESENTATION_CONTEXT('2D SPACE',''
  ) );
#759 = PCURVE('',#272,#760);
#760 = DEFINITIONAL_REPRESENTATION('',(#761),#765);
#761 = LINE('',#762,#763);
#762 = CARTESIAN_POINT('',(7.778174593052,0.));
#763 = VECTOR('',#764,1.);
#764 = DIRECTION('',(0.,-1.));
#765 = ( GEOMETRIC_REPRESENTATION_CONTEXT(2) 
PARAMETRIC_REPRESENTATION_CONTEXT() REPRESENTATION_CONTEXT('2D SPACE',''
  ) );
#766 = ORIENTED_EDGE('',*,*,#767,.T.);
#767 = EDGE_CURVE('',#745,#605,#768,.T.);
#768 = SURFACE_CURVE('',#769,(#773,#780),.PCURVE_S1.);
#769 = LINE('',#770,#771);
#770 = CARTESIAN_POINT('',(-1.010333609297E-15,-5.5,20.));
#771 = VECTOR('',#772,1.);
#772 = DIRECTION('',(0.707106781187,0.707106781187,0.));
#773 = PCURVE('',#72,#774);
#774 = DEFINITIONAL_REPRESENTATION('',(#775),#779);
#775 = LINE('',#776,#777);
#776 = CARTESIAN_POINT('',(0.,-20.));
#777 = VECTOR('',#778,1.);
#778 = DIRECTION('',(1.,0.));
#779 = ( GEOMETRIC_REPRESENTATION_CONTEXT(2) 
PARAMETRIC_REPRESENTATION_CONTEXT() REPRESENTATION_CONTEXT('2D SPACE',''
  ) );
#780 = PCURVE('',#621,#781);
#781 = DEFINITIONAL_REPRESENTATION('',(#782),#786);
#782 = LINE('',#783,#784);
#783 = CARTESIAN_POINT('',(-1.010333609297E-15,-5.5));
#784 = VECTOR('',#785,1.);
#785 = DIRECTION('',(0.707106781187,0.707106781187));
#786 = ( GEOMETRIC_REPRESENTATION_CONTEXT(2) 
PARAMETRIC_REPRESENTATION_CONTEXT() REPRESENTATION_CONTEXT('2D SPACE',''
  ) );
#787 = ORIENTED_EDGE('',*,*,#633,.F.);
#788 = ORIENTED_EDGE('',*,*,#716,.T.);
#789 = ORIENTED_EDGE('',*,*,#56,.F.);
#790 = ADVANCED_FACE('',(#791),#272,.F.);
#791 = FACE_BOUND('',#792,.F.);
#792 = EDGE_LOOP('',(#793,#794,#795,#816,#817,#838));
#793 = ORIENTED_EDGE('',*,*,#256,.F.);
#794 = ORIENTED_EDGE('',*,*,#419,.T.);
#795 = ORIENTED_EDGE('',*,*,#796,.T.);
#796 = EDGE_CURVE('',#392,#523,#797,.T.);
#797 = SURFACE_CURVE('',#798,(#802,#809),.PCURVE_S1.);
#798 = LINE('',#799,#800);
#799 = CARTESIAN_POINT('',(-5.5,6.73555739531E-16,20.));
#800 = VECTOR('',#801,1.);
#801 = DIRECTION('',(0.707106781187,-0.707106781187,0.));
#802 = PCURVE('',#272,#803);
#803 = DEFINITIONAL_REPRESENTATION('',(#804),#808);
#804 = LINE('',#805,#806);
#805 = CARTESIAN_POINT('',(0.,-20.));
#806 = VECTOR('',#807,1.);
#807 = DIRECTION('',(1.,0.));
#808 = ( GEOMETRIC_REPRESENTATION_CONTEXT(2) 
PARAMETRIC_REPRESENTATION_CONTEXT() REPRESENTATION_CONTEXT('2D SPACE',''
  ) );
#809 = PCURVE('',#407,#810);
#810 = DEFINITIONAL_REPRESENTATION('',(#811),#815);
#811 = LINE('',#812,#813);
#812 = CARTESIAN_POINT('',(-5.5,7.918826916057E-16));
#813 = VECTOR('',#814,1.);
#814 = DIRECTION('',(0.707106781187,-0.707106781187));
#815 = ( GEOMETRIC_REPRESENTATION_CONTEXT(2) 
PARAMETRIC_REPRESENTATION_CONTEXT() REPRESENTATION_CONTEXT('2D SPACE',''
  ) );
#816 = ORIENTED_EDGE('',*,*,#546,.F.);
#817 = ORIENTED_EDGE('',*,*,#818,.T.);
#818 = EDGE_CURVE('',#547,#745,#819,.T.);
#819 = SURFACE_CURVE('',#820,(#824,#831),.PCURVE_S1.);
#820 = LINE('',#821,#822);
#821 = CARTESIAN_POINT('',(-5.5,6.73555739531E-16,20.));
#822 = VECTOR('',#823,1.);
#823 = DIRECTION('',(0.707106781187,-0.707106781187,0.));
#824 = PCURVE('',#272,#825);
#825 = DEFINITIONAL_REPRESENTATION('',(#826),#830);
#826 = LINE('',#827,#828);
#827 = CARTESIAN_POINT('',(0.,-20.));
#828 = VECTOR('',#829,1.);
#829 = DIRECTION('',(1.,0.));
#830 = ( GEOMETRIC_REPRESENTATION_CONTEXT(2) 
PARAMETRIC_REPRESENTATION_CONTEXT() REPRESENTATION_CONTEXT('2D SPACE',''
  ) );
#831 = PCURVE('',#621,#832);
#832 = DEFINITIONAL_REPRESENTATION('',(#833),#837);
#833 = LINE('',#834,#835);
#834 = CARTESIAN_POINT('',(-5.5,7.918826916057E-16));
#835 = VECTOR('',#836,1.);
#836 = DIRECTION('',(0.707106781187,-0.707106781187));
#837 = ( GEOMETRIC_REPRESENTATION_CONTEXT(2) 
PARAMETRIC_REPRESENTATION_CONTEXT() REPRESENTATION_CONTEXT('2D SPACE',''
  ) );
#838 = ORIENTED_EDGE('',*,*,#744,.F.);
#839 = ADVANCED_FACE('',(#840),#407,.T.);
#840 = FACE_BOUND('',#841,.T.);
#841 = EDGE_LOOP('',(#842,#843,#844));
#842 = ORIENTED_EDGE('',*,*,#522,.F.);
#843 = ORIENTED_EDGE('',*,*,#391,.T.);
#844 = ORIENTED_EDGE('',*,*,#796,.T.);
#845 = ADVANCED_FACE('',(#846),#621,.T.);
#846 = FACE_BOUND('',#847,.T.);
#847 = EDGE_LOOP('',(#848,#849,#850));
#848 = ORIENTED_EDGE('',*,*,#767,.T.);
#849 = ORIENTED_EDGE('',*,*,#604,.F.);
#850 = ORIENTED_EDGE('',*,*,#818,.T.);
#851 = ( GEOMETRIC_REPRESENTATION_CONTEXT(3) 
GLOBAL_UNCERTAINTY_ASSIGNED_CONTEXT((#855)) GLOBAL_UNIT_ASSIGNED_CONTEXT
((#852,#853,#854)) REPRESENTATION_CONTEXT('Context #1',
  '3D Context with UNIT and UNCERTAINTY') );
#852 = ( LENGTH_UNIT() NAMED_UNIT(*) SI_UNIT(.MILLI.,.METRE.) );
#853 = ( NAMED_UNIT(*) PLANE_ANGLE_UNIT() SI_UNIT($,.RADIAN.) );
#854 = ( NAMED_UNIT(*) SI_UNIT($,.STERADIAN.) SOLID_ANGLE_UNIT() );
#855 = UNCERTAINTY_MEASURE_WITH_UNIT(LENGTH_MEASURE(1.E-07),#852,
  'distance_accuracy_value','confusion accuracy');
#856 = PRODUCT_RELATED_PRODUCT_CATEGORY('part',$,(#7));
ENDSEC;
END-ISO-10303-21;
